<?xml version="1.0" encoding="utf-8"?>
<!-- Generator: Adobe Illustrator 30.1.0, SVG Export Plug-In . SVG Version: 9.03 Build 0)  -->
<svg version="1.1" id="Capa_1" xmlns="http://www.w3.org/2000/svg" xmlns:xlink="http://www.w3.org/1999/xlink" x="0px" y="0px"
	 viewBox="0 0 512 512" style="enable-background:new 0 0 512 512;" xml:space="preserve">
<g>
	<path d="M256.9074097,328.9251099v-0.0030518c-0.1694336,0-0.3400269,0.0014038-0.5095825,0.0015259
		c-0.1695557-0.0001221-0.34021-0.0015259-0.5096283-0.0015259v0.0030518
		c-45.7873383,0.0623779-95.4858246,4.4129028-118.0125732,35.18396
		c-7.6264496,10.4554138-11.4840317,22.9767456-11.4840317,37.2521057c0,55.6493225,58.0625381,100.9762268,129.4966125,101.4046936
		v0.0100708c0.1703644,0,0.3394318-0.0044861,0.5096283-0.0050049c0.1701965,0.0005188,0.3392029,0.0050049,0.5095825,0.0050049
		v-0.0100708c71.4340515-0.4284668,129.496582-45.7553711,129.496582-101.4046936
		c0-14.2753601-3.8575745-26.7966919-11.4840088-37.2521057
		C352.393219,333.3380127,302.6947327,328.9874878,256.9074097,328.9251099z M198.825882,415.848999
		c-8.0011444,0-14.4878235-6.4866943-14.4878235-14.4878235c0-8.0030823,6.4866791-14.4878235,14.4878235-14.4878235
		c8.0011292,0,14.4878235,6.4847412,14.4878235,14.4878235C213.3137054,409.3623047,206.8270111,415.848999,198.825882,415.848999z
		 M313.9697266,415.848999c-8.0011597,0-14.4878235-6.4866943-14.4878235-14.4878235
		c0-8.0030823,6.4866638-14.4878235,14.4878235-14.4878235c8.0011292,0,14.4878235,6.4847412,14.4878235,14.4878235
		C328.45755,409.3623047,321.9708557,415.848999,313.9697266,415.848999z"/>
	<path d="M501.559967,249.6620483c-2.2414856-2.8812408-46.5103455-31.6650543-87.2987366-44.5779419
		c-0.019043-0.292099-0.0379639-0.5841522-0.0584106-0.8767242c30.5952759-23.1518707,88.6061707-57.2555542,89.0657959-92.4201279
		c0-0.0145035,0-0.0425034,0-0.0570068c0.5224915-60.425827-44.5413818-93.2455597-68.1401062-101.6639557
		c-5.6309509-1.9944925-11.7854004-0.3679724-15.7183228,4.0459328c-3.9194641,4.4284668-5.3189697,10.7953625-2.6734924,16.0863419
		c11.4929504,22.9840355,29.2492981,68.8718719-33.040741,89.0800171
		c-27.9581299-32.8565216-72.5645142-50.9026337-126.7885437-51.1268845v-0.0105515
		c-0.1708374,0-0.3389893,0.0049515-0.5095825,0.0053024c-0.1705933-0.000351-0.3388062-0.0053024-0.5096283-0.0053024v0.0105515
		c-54.2240601,0.2242508-98.8304138,18.2703629-126.7885742,51.1268845
		C66.8095856,99.0704422,84.5659561,53.1826019,96.0588913,30.1985664
		c2.6454849-5.2909794,1.2459869-11.6578751-2.6734924-16.0863419c-3.9329224-4.4139051-10.0873642-6.0404253-15.7183151-4.0459328
		C54.068367,18.4846878,9.0044889,51.3044205,9.5269728,111.7302475c0,0.0145035,0,0.0425034,0,0.0570068
		c0.4596415,35.1645737,58.4705391,69.2682571,89.0658112,92.4201279c-0.0204544,0.292572-0.0393753,0.5846252-0.0584183,0.8767242
		c-40.7883911,12.9128876-85.057251,41.696701-87.2987518,44.5779419
		c-3.013463,5.6164551-1.9809341,12.5493469,2.5324802,17.0628052
		c14.9894991,14.9886169,59.7931633,35.5511169,93.1469421,19.6329651
		c3.8290482,17.3425293,8.8403625,35.1704102,14.7091217,52.7858276
		c21.3996048-22.8954468,87.5682144-38.6087952,134.2640381-38.9082642v0.0065308
		c0.0872955-0.0028687,0.1606903-0.0056458,0.2372589-0.0084839c0.0904541-0.0004578,0.1821289-0.0019531,0.2723694-0.0022888
		c0.0902405,0.0003357,0.1818542,0.0018311,0.2723083,0.0022888c0.0765686,0.0028381,0.1499634,0.0056152,0.2372742,0.0084839
		v-0.0065308c46.6958008,0.299469,112.8644104,16.0128174,134.2640381,38.9082642
		c5.8687439-17.6154175,10.8800659-35.4432983,14.7091064-52.7858276
		c33.3537903,15.9181519,78.1574402-4.6443481,93.1469421-19.6329651
		C503.5409241,262.2113953,504.5734558,255.2785034,501.559967,249.6620483z M169.850235,270.9707642
		c-8.0001984,0-14.4878235-6.4866943-14.4878235-14.4878235c0-8.0030975,6.4866791-14.4878387,14.4878235-14.4878387
		c8.0011292,0,14.4878235,6.4847412,14.4878235,14.4878387C184.3380585,264.4840698,177.8513641,270.9707642,169.850235,270.9707642
		z M342.9453735,270.9707642c-8.0011597,0-14.4878235-6.4866943-14.4878235-14.4878235
		c0-8.0030975,6.4866638-14.4878387,14.4878235-14.4878387c8.0011292,0,14.4878235,6.4847412,14.4878235,14.4878387
		C357.433197,264.4840698,350.9455566,270.9707642,342.9453735,270.9707642z"/>
</g>
</svg>
