<svg id="Capa_1" enable-background="new 0 0 512 512" height="512" viewBox="0 0 512 512" width="512" xmlns="http://www.w3.org/2000/svg"><g><path d="m61 257.026c0 140.61 87.48 254.974 195 254.974s195-114.364 195-254.974c0-11.103-11.746-18.431-21.709-13.418l-53.291 26.645-53.291-26.646c-4.219-2.109-9.199-2.109-13.418 0l-53.291 26.646-53.291-26.646c-4.219-2.109-9.199-2.109-13.418 0l-53.291 26.646-53.291-26.646c-10.083-5.025-21.709 2.399-21.709 13.419z"/><path d="m376 120c8.291 0 15-6.709 15-15s-6.709-15-15-15h-16.516c-7.357-50.75-50.729-90-103.484-90-57.891 0-105 47.109-105 105 0 19.819 5.61 39.214 15.996 55.854-17.693 18.935-30.218 45.521-37.841 72.406l6.844 3.422 39.873-19.937c6.212-3.104 13.17-4.745 20.128-4.745s13.916 1.641 20.127 4.746l39.873 19.937 39.873-19.937c6.211-3.105 13.169-4.746 20.127-4.746s13.916 1.641 20.127 4.746l39.873 19.937 6.846-3.422c-7.623-26.885-20.149-53.471-37.842-72.406 7.744-12.407 12.817-26.349 14.905-40.854h16.091zm-90 0c-8.284 0-15-6.716-15-15s6.716-15 15-15 15 6.716 15 15-6.716 15-15 15z"/></g></svg>