<svg id="Capa_1" enable-background="new 0 0 512 512" height="512" viewBox="0 0 512 512" width="512" xmlns="http://www.w3.org/2000/svg"><path d="m484.779 407.069c-17.553-19.356-41.542-31.418-67.548-33.964l-77.374-7.575v-60.889c9.784-14.263 16.385-31.106 18.691-49.365h5.009c32.412 0 58.781-26.369 58.781-58.781 0-10.452-2.755-20.267-7.557-28.781h13.361v-30h-35.878l-8.238-56.728c-3.266-22.488-14.528-43.061-31.712-57.929-17.184-14.869-39.162-23.057-61.885-23.057h-6.213l-4.394 4.393c-13.136 13.136-34.509 13.136-47.645 0l-4.393-4.393h-6.213c-22.724 0-44.702 8.188-61.885 23.057-17.184 14.869-28.447 35.441-31.712 57.929l-8.238 56.728h-35.878v30h13.361c-4.803 8.513-7.557 18.329-7.557 28.781 0 32.412 26.369 58.781 58.781 58.781h5.009c2.307 18.259 8.907 35.102 18.692 49.365v60.888l-77.374 7.575c-26.006 2.546-49.995 14.608-67.548 33.964-17.555 19.357-27.222 44.408-27.222 70.537v34.395h98.858v-109.152l38.856-3.804v78.527h236.571v-78.527l38.856 3.804v109.152h98.859v-34.395c0-26.129-9.667-51.18-27.221-70.536zm-415.921 74.931h-38.858v-4.395c0-28.291 15.492-53.023 38.858-65.796zm133.285-148.047c15.698 10.139 34.142 15.99 53.857 15.99 19.716 0 38.159-5.851 53.857-15.99v39.5c-13.993 14.759-33.342 23.133-53.857 23.133-20.516 0-39.864-8.374-53.857-23.133zm154.06-235.811 5.747 39.572h-17.487-176.926-17.487l5.747-39.572zm-173.666 69.572h146.926v73.064c0 43.651-32.955 79.165-73.463 79.165s-73.463-35.513-73.463-79.165zm209.801 28.781c0 15.87-12.911 28.781-28.781 28.781h-4.095v-57.562h4.095c15.87 0 28.781 12.911 28.781 28.781zm-213.023-150.751c10.352-8.957 23.251-14.364 36.8-15.513 23.207 18.669 56.562 18.669 79.769 0 13.549 1.149 26.448 6.556 36.8 15.513 7.173 6.206 12.824 13.873 16.651 22.398h-186.671c3.827-8.526 9.479-16.192 16.651-22.398zm-59.653 150.751c0-15.87 12.911-28.781 28.781-28.781h4.095v57.562h-4.095c-15.87 0-28.781-12.911-28.781-28.781zm224.624 251.076h-176.572v-51.464l13.332-1.305c19.591 20.291 46.473 31.784 74.953 31.784s55.362-11.493 74.953-31.784l13.332 1.305v51.464zm137.714 34.429h-38.858v-70.191c23.366 12.774 38.858 37.505 38.858 65.796z"/></svg>