<svg id="Capa_1" enable-background="new 0 0 512 512" height="512" viewBox="0 0 512 512" width="512" xmlns="http://www.w3.org/2000/svg"><g><path d="m406 120c8.401 0 15 6.599 15 15v75h45c8.401 0 15-6.601 15-15v-96.901c0-44.099-28.2-83.399-70.201-97.199-2.999-1.2-6.599-1.2-9.598 0-42.001 13.8-70.201 53.1-70.201 97.199v96.901c0 8.399 6.599 15 15 15h45v-75c0-8.4 6.599-15 15-15z"/><path d="m46 0c-8.291 0-15 6.709-15 15v90c0 24.814 20.186 45 45 45h75v332h-15c-8.291 0-15 6.709-15 15s6.709 15 15 15h60c8.291 0 15-6.709 15-15s-6.709-15-15-15h-15v-332h75c24.814 0 45-20.186 45-45v-90c0-8.291-6.709-15-15-15s-15 6.709-15 15v45h-30v-45c0-8.291-6.709-15-15-15s-15 6.709-15 15v45h-30v-45c0-8.291-6.709-15-15-15s-15 6.709-15 15v45h-30v-45c0-8.291-6.709-15-15-15s-15 6.709-15 15v45h-30v-45c0-8.291-6.709-15-15-15z"/><path d="m331 497c0 8.291 6.709 15 15 15h120c8.291 0 15-6.709 15-15 0-36.216-25.801-66.513-60-73.482v-213.518h-30v213.518c-34.198 6.969-60 37.266-60 73.482zm75-45c19.57 0 36.24 12.539 42.422 30h-84.844c6.182-17.46 22.852-30 42.422-30z"/></g></svg>