<svg id="Capa_1" enable-background="new 0 0 511.999 511.999" height="512" viewBox="0 0 511.999 511.999" width="512" xmlns="http://www.w3.org/2000/svg"><path d="m499.598 297.177c-16.523-18.592-45.123-20.306-63.753-3.828l-21.763 19.251c-6.763-16.503-18.374-31.411-34.067-43.389-19.269-14.707-43.351-23.85-68.996-26.433v-14.782c7.024 1.455 15.325 2.594 24.097 2.594 12.444 0 25.837-2.295 37.864-9.238 34.704-20.036 41.558-69.256 41.833-71.341.887-6.732-2.859-13.221-9.133-15.818-1.943-.806-47.995-19.479-82.7.557-4.426 2.556-8.397 5.588-11.961 8.935v-1.792c11.337-10.374 35-35.755 35-66.892 0-40.073-39.199-70.618-40.867-71.899-5.387-4.135-12.879-4.135-18.266 0-1.668 1.28-40.867 31.825-40.867 71.898 0 31.136 23.663 56.518 35 66.892v1.792c-3.564-3.347-7.535-6.379-11.961-8.934-34.705-20.038-80.757-1.362-82.7-.557-6.274 2.598-10.02 9.086-9.133 15.818.275 2.085 7.129 51.305 41.833 71.341 12.029 6.945 25.418 9.238 37.864 9.238 8.772 0 17.073-1.14 24.097-2.595v14.763c-47.138 4.703-86.84 31.328-102.669 68.95h-15.908c-2.247 0-4.466.505-6.492 1.478l-146.423 70.291c-3.804 1.826-6.664 5.171-7.876 9.213s-.666 8.408 1.505 12.027l60 99.997c2.772 4.62 7.713 7.284 12.865 7.284 1.652 0 3.327-.274 4.958-.846l84.015-29.444h160.036c23.467 0 46.008-8.635 63.47-24.313l107.512-96.535c18.459-16.574 20.067-45.143 3.586-63.683zm-161.618-136.447c13.003-7.507 31.433-5.618 44.313-2.52-3.45 11.861-10.632 29.263-24.313 37.161-13.021 7.518-31.481 5.613-44.351 2.514 3.754-12.708 11.335-29.639 24.351-37.155zm-103.922 34.642c-13.004-7.508-20.582-24.412-24.339-37.116 11.999-2.942 30.659-5.423 44.339 2.475 13.008 7.511 20.587 24.425 24.341 37.116-11.997 2.941-30.662 5.422-44.341-2.475zm41.961-120.372c0-15.016 10.851-30.031 19.974-39.637 8.547 8.919 20.026 23.839 20.026 39.637 0 15.025-10.866 30.051-19.981 39.647-1.981-2.069-4.12-4.466-6.239-7.133-6.286-7.906-13.78-19.966-13.78-32.514zm20 197c46.369 0 85.803 26.835 93.525 62.306l-28.984 25.638c.076-1.067.115-2.148.115-3.235 0-24.813-20.187-45-45-45h-103.273c16.281-23.83 48.3-39.709 83.617-39.709zm179.95 66.538-107.512 96.535c-11.948 10.728-27.37 16.636-43.427 16.636h-162.588c-1.689 0-3.367.285-4.961.844l-74.888 26.246-45.242-75.4 128.505-61.689h149.82c8.271 0 15 6.729 15 15s-6.729 15-15 15h-103.234c-8.284 0-15 6.716-15 15s6.716 15 15 15h129.138c10.992 0 21.581-4.011 29.815-11.295l84.327-74.595c6.269-5.545 15.894-4.968 21.454 1.289 5.546 6.238 5.004 15.851-1.207 21.429z"/></svg>