<?xml version="1.0" encoding="utf-8"?>
<!-- Generator: Adobe Illustrator 30.1.0, SVG Export Plug-In . SVG Version: 9.03 Build 0)  -->
<svg version="1.1" id="Capa_1" xmlns="http://www.w3.org/2000/svg" xmlns:xlink="http://www.w3.org/1999/xlink" x="0px" y="0px"
	 viewBox="0 0 25 25" style="enable-background:new 0 0 25 25;" xml:space="preserve">
<g>
	<path d="M8.866457,7.3640118h2.9069729v2.9072151H8.866457V7.3640118z"/>
	<path d="M13.2272806,7.3640118h2.9069719v2.9072151h-2.9069719V7.3640118z"/>
	<path d="M23.4014683,11.240057l0.1462326,0.1944933c0.2418804,0.3225069,0.6996212,0.3847694,1.0182037,0.1441011
		c0.3208122-0.2406216,0.3854008-0.6962786,0.1441021-1.0170898l-1.4514751-1.930584
		c-0.0004368-0.0006304-0.0002441-0.001503-0.0007286-0.0021324l-2.9072151-3.8810358
		c-0.0567875-0.0752487-0.1270466-0.1391106-0.207962-0.1873698l-7.2680387-4.3608232
		c-0.2299614-0.1377051-0.5181141-0.1377051-0.7480745,0L4.8584738,4.5604396
		c-0.0809178,0.0482597-0.1511755,0.1121216-0.207963,0.1873698L1.7432953,8.6288452
		C1.7428592,8.6294746,1.743053,8.6303473,1.7425686,8.6309776l-1.4515243,1.9305363
		c-0.2412989,0.3208113-0.1767102,0.7764683,0.144101,1.0170889c0.3180009,0.2402325,0.7748214,0.1789389,1.0170894-0.1441011
		l0.146233-0.1944923v12.9373512c0,0.4017277,0.3250751,0.7268047,0.7268038,0.7268047h2.1801693V14.0021067
		c0-0.4017277,0.3250751-0.7268038,0.7268043-0.7268038h14.5363197c0.4017296,0,0.7268028,0.3250761,0.7268028,0.7268038v10.9020586
		h2.1793461c0.4017277,0,0.7268028-0.3250771,0.7268028-0.7268047V11.2400589L23.4014683,11.240057z M17.5881023,10.9980316
		c0,0.4017286-0.3250751,0.7268038-0.7268028,0.7268038H8.1394596c-0.4017291,0-0.7268038-0.3250751-0.7268038-0.7268038V6.6372085
		c0-0.4017286,0.3250747-0.7268038,0.7268038-0.7268038h8.7218895c0.4017277,0,0.7268028,0.3250751,0.7268028,0.7268038v4.3608232
		H17.5881023z"/>
	<path d="M5.9592414,24.038105l5.4816518-4.3514233l-5.4816518-4.3515196V24.038105z"/>
	<path d="M12.6076555,18.7604427l5.0785189-4.0314846H7.5291872L12.6076555,18.7604427z"/>
	<path d="M12.6076555,20.6129189L7.2018824,24.904211h10.8115454L12.6076555,20.6129189z"/>
	<path d="M19.0415173,15.5053291l-5.2670994,4.1813507l5.2670994,4.1813507V15.5053291z"/>
</g>
</svg>
