<svg id="Capa_1" enable-background="new 0 0 512 512" height="512" viewBox="0 0 512 512" width="512" xmlns="http://www.w3.org/2000/svg"><path d="m489.052 432.369c-14.112-17.919-33.632-31.281-55.109-37.806 9.507-13.052 14.774-28.858 14.714-45.453-.099-26.968-13.951-51.513-36.579-65.569l-11.729-41.25c13.396-10.783 21.99-27.301 21.99-45.796 0-10.452-2.755-20.267-7.557-28.781h13.36v-30h-35.876l-8.239-56.728c-3.267-22.488-14.528-43.061-31.712-57.929-17.185-14.869-39.163-23.057-61.886-23.057h-6.213l-4.394 4.393c-13.135 13.136-34.51 13.136-47.645 0l-4.393-4.393h-6.213c-22.724 0-44.701 8.188-61.886 23.057-17.184 14.869-28.445 35.441-31.711 57.929l-8.24 56.728h-35.876v30h13.36c-4.802 8.513-7.557 18.329-7.557 28.781 0 18.495 8.595 35.013 21.99 45.796l-11.729 41.25c-22.63 14.057-36.482 38.605-36.579 65.576-.059 16.592 5.207 32.397 14.712 45.447-21.477 6.525-40.996 19.886-55.108 37.805-14.798 18.791-22.947 41.744-22.947 64.631v15h98.858l-.001-92.216 38.856-11.102v68.889h236.572v-68.889l38.856 11.102v92.216h98.859v-15c0-22.887-8.149-45.84-22.948-64.631zm-102.354-128.391 5.851 2.966c16.038 8.133 26.042 24.333 26.107 42.275.051 13.983-6.153 27.08-16.849 36.125l-64.542-18.441-11.591-45.495c17.553-16.9 29.583-40.078 32.874-66.132h5.009c3.093 0 6.129-.244 9.094-.706zm-30.496-205.836 5.747 39.572h-211.899l5.747-39.572zm-173.665 69.572h146.926v73.064c0 43.651-32.955 79.165-73.463 79.165s-73.463-35.513-73.463-79.165zm30.048 172.139c13.21 6.47 27.918 10.09 43.415 10.09s30.205-3.62 43.415-10.09l8.95 35.13c-13.86 13.806-32.569 21.603-52.365 21.603s-38.505-7.797-52.365-21.603zm179.754-143.358c0 15.87-12.911 28.781-28.781 28.781h-4.095v-57.562h4.095c15.87 0 28.781 12.911 28.781 28.781zm-213.024-150.751c10.353-8.957 23.251-14.364 36.801-15.513 23.207 18.669 56.561 18.669 79.768 0 13.55 1.149 26.448 6.556 36.801 15.513 7.173 6.206 12.824 13.873 16.651 22.398h-186.672c3.827-8.526 9.479-16.192 16.651-22.398zm-26.778 121.97v57.562h-4.095c-15.87 0-28.781-12.911-28.781-28.781s12.911-28.781 28.781-28.781zm-33.086 139.23 5.851-2.966 14.047-49.408c2.965.462 6.001.706 9.094.706h5.009c3.292 26.054 15.322 49.232 32.874 66.132l-11.591 45.495-64.543 18.441c-10.693-9.044-16.896-22.139-16.847-36.121.063-17.944 10.067-34.144 26.106-42.279zm-87.811 175.056c4.564-20.812 18.331-39.485 37.218-50.802v50.802zm312.646-34.429h-176.572v-47.461l14.485-4.138c19.486 19.56 45.874 30.614 73.801 30.614s54.315-11.053 73.801-30.614l14.485 4.138zm98.857 34.429v-50.802c18.887 11.316 32.653 29.99 37.218 50.802z"/></svg>