<?xml version="1.0" encoding="UTF-8"?>
<svg id="Layer_1" data-name="Layer 1" xmlns="http://www.w3.org/2000/svg" viewBox="0 0 968.25 641.23">
  <path d="M391.42,588.37c2.65-.64,3.86-1.77,3.86-3.22,0-2.25-4.02-3.86-10.54-3.86-7.88,0-12.15,1.37-12.15,3.86,0,1.77,1.53,2.82,5.23,3.06,1.61.08,2.09,1.69.64,7.08-1.85,7-5.87,19.23-9.49,29.04-3.54-8.37-7.4-18.67-9.17-25.83-1.61-6.11-1.69-9.9-.24-10.06,3.7-.48,5.23-1.29,5.23-3.22,0-2.41-4.1-3.94-13.6-3.94-8.93,0-13.35,1.53-13.35,4.26,0,1.61,1.37,2.49,3.14,2.9,1.21.24,2.01,1.13,4.18,7.24l1.37,3.94c-2.33,7.16-6.03,17.3-9.09,25.18-3.7-8.37-7.56-18.75-9.98-26.39-1.93-6.12-2.01-9.66-.8-9.9,2.74-.56,4.34-1.29,4.34-3.3,0-2.41-3.78-3.94-12.95-3.94s-13.52,1.53-13.52,4.26c0,1.61,1.21,2.74,3.46,2.98,1.37.16,2.49,1.21,4.75,7.16,4.26,11.26,12.31,31.94,15.53,38.86,1.69,3.54,3.22,5.39,6.28,5.39s4.1-2.09,5.71-5.63c1.69-3.78,5.95-14.8,9.82-25.02,3.46,9.33,7.64,19.95,9.81,25.02,1.69,3.78,3.22,5.63,6.2,5.63,3.46,0,4.51-2.09,5.87-5.63,2.25-5.71,8.77-23.81,13.44-37.01,2.01-5.71,3.7-8.37,6.03-8.93Z"/>
  <path d="M446.05,632.78c-1.45-.24-2.57-1.45-5.07-7.48-4.02-9.73-13.35-30.41-17.46-38.62-1.93-3.94-4.18-5.63-7.4-5.63-3.62,0-6.28,2.57-6.6,5.95-.16,1.61-.48,3.54-1.21,5.63-1.53,4.51-8.61,21.56-12.79,31.06-2.49,5.71-4.26,8.53-6.36,8.93-2.98.56-4.51,1.53-4.51,3.14,0,2.33,4.51,3.94,11.26,3.94s12.39-1.53,12.39-4.1c0-1.61-1.69-2.65-4.99-2.9-2.01-.16-2.41-1.93-.64-7.08l1.37-3.86c3.7-.4,6.84-.48,10.7-.48,3.62,0,7.24.08,11.02.4l.32.97c2.01,5.95,2.41,9.81,1.13,9.98-3.86.4-5.87,1.21-5.87,3.22,0,2.41,4.18,3.86,14.48,3.86,9.49,0,14.4-1.29,14.4-3.86,0-1.61-1.61-2.65-4.18-3.06ZM414.75,614.68c-2.82,0-5.31,0-8.05.16,2.41-6.11,5.23-13.12,7.72-18.91,2.98,5.87,6.12,12.71,8.69,18.91-2.98-.16-5.87-.16-8.37-.16Z"/>
  <path d="M496.41,618.06c-2.09,0-3.22,2.25-4.42,6.44-.64,2.17-1.45,4.67-2.41,5.87-1.21,1.45-6.11,2.01-11.75,2.01h-3.86c-2.57,0-3.06-2.65-3.06-8.77v-27.92c0-3.94.32-7.32,1.61-7.48,2.9-.32,4.67-1.13,4.67-3.14,0-2.82-4.83-3.78-12.79-3.78s-12.79.97-12.79,3.78c0,2.01,1.77,2.82,4.67,3.14,1.29.16,1.61,3.54,1.61,7.48v29.53c0,3.78-.32,7.08-1.61,7.24-3.22.4-5.07,1.21-5.07,3.3,0,2.82,4.02,3.46,11.83,3.46,2.41,0,6.19-.08,10.46-.08h15.69c.48,1.21,1.53,2.01,2.98,2.01,4.26,0,7.88-9.41,7.88-16.49,0-4.26-1.61-6.6-3.62-6.6Z"/>
  <path d="M547.82,618.06c-2.09,0-3.22,2.25-4.42,6.44-.64,2.17-1.45,4.67-2.41,5.87-1.21,1.45-6.11,2.01-11.75,2.01h-3.86c-2.57,0-3.06-2.65-3.06-8.77v-27.92c0-3.94.32-7.32,1.61-7.48,2.9-.32,4.67-1.13,4.67-3.14,0-2.82-4.83-3.78-12.79-3.78s-12.79.97-12.79,3.78c0,2.01,1.77,2.82,4.67,3.14,1.29.16,1.61,3.54,1.61,7.48v29.53c0,3.78-.32,7.08-1.61,7.24-3.22.4-5.07,1.21-5.07,3.3,0,2.82,4.02,3.46,11.83,3.46,2.41,0,6.19-.08,10.46-.08h15.69c.48,1.21,1.53,2.01,2.98,2.01,4.26,0,7.88-9.41,7.88-16.49,0-4.26-1.61-6.6-3.62-6.6Z"/>
  <path d="M601.8,619.59c-2.01,0-3.3,2.09-4.18,4.99-.89,2.98-1.45,4.67-2.49,5.71-1.29,1.29-5.31,2.17-12.47,2.17h-6.28c-2.25,0-2.57-2.74-2.57-8.77v-10.3c7,0,13.03.16,13.12,1.85.24,3.54.64,5.23,2.82,5.23,2.74,0,4.02-4.99,3.94-10.46,0-5.55-1.21-10.54-3.94-10.54-2.17,0-2.57,1.85-2.82,5.47-.08,1.85-6.11,1.93-13.12,1.93v-9.9c0-5.79.48-8.45,2.74-8.45h6.11c6.19,0,10.22.56,11.42,1.77.8.8,1.45,2.33,2.17,4.91.8,2.74,1.93,4.34,3.78,4.34s3.3-1.93,3.3-5.71c0-6.11-3.06-14.08-6.52-14.08-1.37,0-2.33.8-2.82,2.09h-19.39c-3.14,0-6.19-.08-8.69-.08-7.8,0-11.83.72-11.83,3.54,0,2.01,1.85,2.82,5.07,3.22,1.29.16,1.61,3.46,1.61,7.32v29.37c0,3.78-.32,7.08-1.61,7.24-3.22.4-5.07,1.21-5.07,3.3,0,2.82,4.02,3.46,11.83,3.46,2.17,0,5.95-.08,8.69-.08h20.19c.48,1.29,1.45,2.09,2.98,2.09,3.86,0,7.4-9.25,7.4-15.93,0-3.78-1.37-5.71-3.38-5.71Z"/>
  <path d="M655.78,579.76c-1.53,0-2.41.8-2.82,2.09h-35.08c-.4-1.29-1.29-2.09-2.82-2.09-3.78,0-7.32,8.37-7.32,15.69,0,3.86,1.37,6.03,3.38,6.03s3.14-1.85,4.42-6.03c.64-2.09,1.29-3.78,2.25-5.15.88-1.45,3.94-1.93,7.8-1.93h1.45c1.53,0,1.85,3.38,1.85,9.49v27.52c0,3.86-.4,7.16-2.01,7.32-3.7.32-5.47,1.21-5.47,3.22,0,2.82,4.83,3.78,14,3.78s14-.97,14-3.78c0-2.01-1.77-2.9-5.47-3.3-1.53-.16-2.01-3.38-2.01-7.24v-27.52c0-6.11.24-9.49,1.77-9.49h1.53c3.86,0,6.92.48,7.8,1.93s1.61,3.06,2.25,5.15c1.29,4.18,2.41,6.03,4.43,6.03s3.38-2.17,3.38-6.03c0-7.32-3.54-15.69-7.32-15.69Z"/>
  <path d="M336.33,249.35c-.3,7.59-1.92,15.25-1.27,22.83,2.38,10.48,10.44,21.14,21.13,23.93,6.96,1.37,7.71-5.88,7.76-10.98,1.97-24.56,4.04-49.12,6.2-73.66.28-4.17.58-8.33.9-12.5,18.95-3.86,37.85-7.95,56.73-12.09-1.38,24.86-2.59,49.74-3.95,74.6-.33,7.43-.96,14.87-1.18,22.3.74,9.46,7,19.73,16.31,22.73,9.1,1.86,7.94-9.46,8.36-15.38,2.12-36.61,4.21-73.23,6.11-109.86,16.16-3.53,32.31-7.02,48.5-10.34.94-.2,1.89-.39,2.83-.59-.95,32.82-1.35,65.43-1.99,96.88-.29,11.39-.63,22.77-.94,34.15-.09,3.6-.22,7.2-.3,10.8.19,9.87,5.95,20.93,15.47,24.61,12.41,2.44,8.05-15.21,9.2-22.63,1.38-44.71,2.71-89.42,3.57-134.14.07-4.98.19-9.97.33-14.96,22.5-4.63,45.04-9.12,67.59-13.57-3.12,41.23-6.36,82.46-9.51,123.69-.11,10.07-3.31,20.54-.44,30.38,2.54,7.72,7.32,15.81,15.16,18.98,12.45,3.34,8.51-16.15,10.17-23.47,3.76-51.57,7.49-103.14,10.81-154.74,26.57-5.23,53.14-10.46,79.66-15.87,33.62-6.28-5.96-31.6-32.93-22.73-14.97,2.89-29.93,5.84-44.87,8.84.52-8.57,1.03-17.15,1.52-25.73.75-17.03,1-34.2-1.25-51.13-.03-3.96-3.25-7.19-6.32-9.28-7.07-4.71-10.95-2.32-11.35,5.63-2.53,28.6-5.93,57.11-8.35,85.73-22.97,4.7-45.92,9.52-68.84,14.42,1.68-39.85,3.95-79.72,1.86-119.55-.84-5.09-.53-18.08-8.35-16.55-1.3,1.1-1.04,3.07-1.36,4.64-.76,6.84-5.86,6.08-6.81,12.89-6,39.9-9.01,81.91-10.74,124.03-16.97,3.68-33.94,7.39-50.89,11.13,1.62-33.46,3.05-66.93,4.12-100.4-.31-11.91.58-24.29-2.01-35.92-2.37-4.05-9.29-9.44-13.68-5.64-5.26,38.65-8.6,77.96-11.7,116.96-.78,10.2-1.47,20.41-2.12,30.63-18.69,4.16-37.37,8.34-56.05,12.53,4.48-49.48,10.13-98.99,9.89-148.6,1.14-8.06-15.6-20.23-22.08-13.89-7.53,49.22-12.08,99.25-17.39,148.86-.64,6.89-1.24,13.79-1.82,20.69-27.1,6.1-54.2,12.21-81.31,18.27-18.42,2.28-6.28,14.12,4.03,16.67,8.88,3.09,18.63.66,27.96.06,15.77-2.34,31.48-5.04,47.14-7.96-1.16,14.76-2.29,29.53-3.51,44.28Z"/>
  <path d="M45.17,511.15c-14.5,1.43-23.19,1.38-25.7-6.75-2.28-7.38,3.81-15.04,14.41-18.17,11.68-3.46,20.33.52,27.49,7.9,2.26,2.36,5.32,5.04,8.68,4.12,2.96-.81,4.73-4.95,3.37-10.01-2.56-9.48-11.99-20.9-18.99-18.95-2.88.8-4.06,3.45-3.96,5.87-5.47-1.08-12.86-.91-20.59.9l-1.3-3.21c-1.23-2.95-4.64-4.35-7.59-3.12l-1.31.55c-2.95,1.23-4.35,4.64-3.12,7.59l1.29,3.02c-12.02,7.24-20.96,20.71-16.81,34.16,5.46,17.67,27.34,19.56,43.56,17.58,14.65-1.79,23.43-.93,25.7,7.14,2.2,7.81-3.6,15.55-14.08,18.64-11.39,3.36-23.31-.07-30.46-6.86-4.88-4.64-7.62-7.75-10.89-6.7-3.01.96-4.61,4.93-2.59,11.15,3.64,11.21,13.85,22.2,20.51,20.1,2.69-.85,3.9-3.28,3.52-6.32,5.63,1.06,12.99,1.35,20.32-.19h0s1.45,3.56,1.45,3.56c1.23,2.95,4.64,4.35,7.59,3.12l1.31-.55c2.95-1.23,4.35-4.64,3.12-7.59l-1.31-3.09c12.64-6.99,23.42-20.5,19.67-35.29-4.55-17.94-28.28-20.07-43.27-18.59Z"/>
  <path d="M158.1,442.43c-2.64.55-3.9,2.15-4.16,4.35-20.18,4.24-40.26,8.95-60.26,13.97-1.2-1.86-3.04-2.74-5.66-2.07-6.48,1.66-9.06,16.42-6.02,27.94,1.61,6.08,4.8,8.89,8.17,8.01,3.37-.88,4.5-4.27,4.99-11.42.24-3.58.78-6.57,1.75-9.09.98-2.54,5.94-4.74,12.51-6.34.99-.24,1.48-.36,2.47-.6,2.6-.63,4.43,4.59,6.75,14.27,3.47,14.51,6.95,29.03,10.42,43.54,1.46,6.11,2.05,11.51-.5,12.37-5.85,1.99-8.42,4.08-7.63,7.26,1.1,4.45,9.25,3.99,24.08.55,14.83-3.44,22.33-6.6,21.37-11.08-.69-3.2-3.89-4-10.06-3.29-2.55.29-4.49-4.63-5.86-10.77-3.26-14.56-6.53-29.13-9.8-43.69-2.18-9.71-2.97-15.17-.35-15.75,1.05-.23,1.57-.35,2.61-.58,6.6-1.45,12-1.79,14,.19,2,1.99,3.77,4.29,5.56,7.39,3.58,6.21,6.09,8.76,9.49,8.07,3.4-.69,5.02-4.62,3.79-10.78-2.33-11.68-11.13-23.81-17.66-22.45Z"/>
  <path d="M228.75,430.7c-27.4,4.48-49.71,28.7-43.99,57.49,5.36,26.96,31.85,43.17,58.37,38.85,26.84-4.37,47.99-27.82,44.44-55.79-3.65-28.78-31.42-45.03-58.82-40.55ZM246.52,514.43c-20.83,3.08-36.72-20.75-40.1-38.59-2.63-13.88,3.65-29.73,18.84-32.49,21.58-3.93,37.33,21.42,40.25,39.22,2.25,13.72-3.93,29.64-18.98,31.86Z"/>
  <path d="M348.27,513.73c9.89-.88,17.75-4.28,23.71-8.53.82,2.04,2.76,3.08,5.02,2.92,6.5-.46,12.88-15.68,12.26-25.62-.28-4.44-2.06-6.96-5.04-6.76-3.39.22-4.68,5.3-6.96,9.39-4.46,7.79-12.62,11.8-21.41,12.69-20.53,2.08-35.64-19.91-37.7-37.28-1.86-15.65,6.75-31.15,23.59-32.71,11.01-1.02,23.65,4.89,28.78,14.74,3.41,6.55,5.3,10.25,9.57,9.96,3.16-.21,6.53-3.7,5.96-12.85-.64-10.19-5.84-23.39-12.59-22.92-2.67.19-4.36,2.28-4.85,5.2-7.03-3.69-17.05-6.31-28.29-5.31-27.46,2.44-48.13,26.25-44.65,53.98,3.21,25.58,26.79,45.39,52.62,43.1Z"/>
  <path d="M460.66,497.94c4.77,6.6,11.14,8.48,20.03,8.46,12.07-.03,18.33-2.15,18.37-6.21.03-2.88-2.59-4.54-9.71-5.3-2.25-.24-5.6-2.9-10.05-8.38-9.82-12.22-19.62-24.46-29.44-36.68,1.46-1.45,2.19-2.17,3.65-3.61,8.46-8.48,17.54-19.65,28.4-22.42,7.16-1.83,10.24-3.65,10.25-6,.02-3.8-7.73-6.49-20.42-6.39-13.97.11-23.08,2.57-22.99,6.76.06,2.62,2.21,4.16,5.42,4.47,2.37.23,2.29,2.83-4.79,11.36-6.24,7.51-13.62,15.01-20.53,21.68-.28-7.95-.42-11.93-.71-19.89-.23-6.41.15-11.94,2.37-12.27,4.99-.72,8.07-2.09,7.97-5.36-.13-4.58-8.64-5.95-22.59-5.35-13.96.6-22.32,2.68-22.06,7.26.19,3.27,3.38,4.36,8.4,4.66,2.24.13,3.09,5.61,3.41,12.02.8,16.08,1.6,32.17,2.41,48.25.31,6.28.04,11.81-2.07,12.17-4.74.8-7.64,2.25-7.45,5.52.26,4.58,8.3,5.66,21.42,5.1,13.13-.56,21.04-2.32,20.91-6.9-.09-3.27-3.1-4.47-7.9-4.86-2.13-.17-2.88-5.67-3.1-11.95-.19-5.39-.29-8.09-.48-13.48,1.57-1.76,3.41-3.79,5.52-5.95,9.19,10.53,17.69,21.9,25.76,33.31Z"/>
  <path d="M619.88,506.38c.29-3.26-2.55-4.81-7.27-5.76-2.1-.43-2.19-5.97-1.66-12.23,1.34-16.05,2.68-32.09,4.02-48.14.53-6.39,1.56-11.84,3.81-11.9,5.04-.12,8.55-1.09,8.84-4.35.41-4.56-7.6-6.89-19.7-7.83-10.41-.81-15.8,1.21-19.18,7.68-8.33,15.96-16.95,31.77-25.9,47.4-7.11-17.06-14.31-34.08-22.27-50.76-3.4-7.06-6.9-8.4-19.45-8.69-10.01-.23-18.78,1.24-18.83,5.83-.04,3.27,3.04,4.36,8.48,5.23,2.79.44,3.39,5.82,3.27,12.24-.31,16.1-.62,32.2-.92,48.3-.12,6.28-.75,11.38-3.16,11.6-6.03.55-8.85,1.97-8.88,5.24-.05,4.58,7.89,6.36,17.84,6.59,11.14.26,19.16-1.14,19.32-5.71.12-3.27-2.8-4.8-8.76-5.66-3.32-.48-3.86-5.48-3.69-11.76.3-10.84.45-16.25.74-27.09.18-6.41.32-11.78.58-16.09,6.98,15.99,13.97,31.99,21.41,47.78,2.59,5.48,4.73,8.33,8.87,8.53,4.01.19,6.16-2.71,9.4-7.91,9.08-14.72,17.26-29.99,25.37-45.26-.04,2.62-.25,5.63-.52,9.54-.93,13.43-1.39,20.14-2.32,33.57-.43,6.27-1.49,11.72-3.9,11.81-5.22.19-8.25,1.3-8.46,4.57-.28,4.57,7.57,6.59,21.34,7.64,13.1,1,21.18.19,21.59-4.37Z"/>
  <path d="M723.84,514.28c-2.31-.75-3.84-3-6.48-13.35-5.79-22.41-12.59-44.76-20.59-66.48-2.48-6.81-6.06-10.06-11.67-10.77-6.31-.8-11.43,2.83-12.65,8.2-.58,2.56-1.52,5.62-3.17,8.85-8.63,16.18-18.03,31.98-27.29,47.81-5.13,8.81-8.5,13.09-12.02,13.4-5.01.44-7.69,1.77-7.93,4.38-.35,3.78,6.82,7.04,17.92,8.2,11.49,1.2,20.63-.21,21.12-4.37.31-2.6-2.3-4.61-7.69-5.63-3.29-.62-3.66-3.57.22-11.57,1.19-2.4,1.79-3.59,2.99-5.99,6.27.05,11.53.55,17.99,1.36,6.05.76,12.09,1.68,18.33,3.07.13.65.19.98.32,1.63,2.03,10.06,1.77,16.4-.36,16.34-6.4-.17-9.95.63-10.38,3.87-.52,3.89,6.04,7.06,22.88,9.57,15.52,2.31,23.87,1.63,24.55-2.5.43-2.58-1.97-4.69-6.07-6.03ZM675.91,477.67c-4.74-.59-8.94-1.1-13.58-1.38,5.22-9.41,11.37-20.14,16.83-28.96,3.93,10.12,7.82,21.85,10.8,32.43-4.97-.93-9.85-1.56-14.05-2.09Z"/>
  <path d="M836.31,450.71c-11.63-2.63-20.31-2.72-21.26,1.77-.68,3.2,2.09,5.23,8.1,7.24,3.35,1.12,2.96,6.15,1.6,12.28-2.38,10.74-3.57,16.1-5.95,26.84-.99,4.47-1.92,8.02-2.65,10.68-11.06-20.28-21.64-40.8-33.48-60.65-5.01-8.29-9.27-11.09-18.47-12.73-9.9-1.76-19.09-1.69-19.84,2.83-.54,3.23,2.76,5.07,8.54,6.89,2.69.85,2.52,6.02,1.42,12.34-2.77,15.86-5.53,31.73-8.3,47.59-1.08,6.19-2.49,11.13-4.91,10.97-6.06-.38-9.34.54-9.87,3.77-.75,4.52,7.11,7.54,16.94,9.3,11.01,1.97,19.18,1.82,20.05-2.68.62-3.22-2.04-5.18-7.83-6.94-3.22-.98-2.99-6.01-1.86-12.19,1.95-10.66,2.93-15.99,4.88-26.66,1.18-6.44,2.24-12.23,3.36-16.82,14.12,21.29,25.76,44.45,37,67.33,3.24,6.6,6.04,10.57,10.59,11.59,4.43,1,7.96-1.27,9.17-6.5,1.62-7.02,3.65-17.03,5.21-23.79,2.94-12.76,5.88-25.51,8.83-38.27,1.41-6.12,3.11-10.97,5.64-10.65,6.33.8,9.82.16,10.58-3.02,1.07-4.46-7.1-8.17-17.48-10.52Z"/>
  <path d="M874.92,459.68c-7.17-1.81-13.76,1.85-15.22,7.82-1.18,4.83,1.09,9.15,6.16,12.04,1.75,1.11,3.42,1.94,2.81,4.35-.86,3.43-4.1,5.4-6.41,6.63-1.91,1.01-3.46,1.84-3.78,3.11-.47,1.91.59,3.38,2.88,3.95,5.65,1.41,19.67-6.18,23.05-19.1,2.42-9.25-1.49-16.78-9.48-18.8Z"/>
  <path d="M961.18,483.37c-2.86-.9-5.29.68-6.53,2.77-3.53-3.43-8.84-6.84-15.15-9.45l.7.19.92-3.35c.81-3.09-1.05-6.28-4.13-7.09l-1.38-.36c-3.09-.81-6.28,1.05-7.09,4.13l-.83,3.23c-14.96-1.77-32.01,4.57-36.17,19.25-5.04,17.78,12.22,31.28,26.9,38.45,13.26,6.47,20.18,11.98,17.69,19.98-2.41,7.75-11.5,11.08-21.98,7.97-11.38-3.38-19.5-12.74-21.79-22.33-1.56-6.55-2.16-10.65-5.47-11.55-3.04-.83-6.53,1.63-8.22,7.95-3.05,11.38-.49,26.16,6.21,28.02,2.71.75,5.04-.63,6.37-3.39,3.39,3.23,8.04,6.66,13.44,9.28l-.99,3.66c-.81,3.09,1.05,6.28,4.13,7.09l1.38.36c3.09.81,6.28-1.05,7.09-4.13l.77-3.02c15.24,2.42,34.4-2.59,39.78-18.42,5.96-17.54-12.87-32.25-26.25-39.18-12.94-6.7-20.19-11.46-17.87-19.65,2.1-7.43,11.37-10.54,21.96-7.4,11.68,3.46,16.79,11.51,18.79,21.6.61,3.21,1.73,7.13,5.06,8.19,2.93.93,6.68-1.57,8.29-6.56,3.01-9.35,1.3-24.07-5.65-26.24Z"/>
</svg>