<?xml version="1.0" encoding="utf-8"?>
<!-- Generator: Adobe Illustrator 30.1.0, SVG Export Plug-In . SVG Version: 9.03 Build 0)  -->
<svg version="1.1" id="Layer_1" xmlns="http://www.w3.org/2000/svg" xmlns:xlink="http://www.w3.org/1999/xlink" x="0px" y="0px"
	 viewBox="0 0 1024 1024" style="enable-background:new 0 0 1024 1024;" xml:space="preserve">
<g>
	<path d="M848.3579102,457.5137939l-0.0343628-0.1784668c-125.7960205-57.356781-212.9570312-180.4661255-213.4260254-323.3319702
		c0-0.0521851,0.0020142-0.1039734,0.0020142-0.1561584c0-67.8746567-55.019165-122.8987045-122.8917847-122.9071808v-0.0001688
		c-0.0025024,0-0.005188,0.0001125-0.0076904,0.0001125c-0.0027161,0-0.005188-0.0001125-0.0079041-0.0001125v0.0001688
		c-67.8726196,0.0084715-122.8918152,55.0325241-122.8918152,122.9071808c0,0.0521851,0.0020447,0.1039734,0.0020447,0.1561584
		c-0.4689941,142.8658295-87.6298828,265.9751587-213.4259644,323.3319702l-0.0344543,0.1784668
		c-40.5588837,20.424408-68.3085022,62.8253784-68.3085022,111.2676392v306.6528931
		c0,50.5780029,41.0015564,91.5794067,91.5794067,91.5794067h170.6867371c0,25.4307861,20.6155701,46.0463867,46.0463867,46.0463867
		h62.5131836h25.3004761h8.5325012h0.0155945h8.5324707h25.3004761h62.5131836
		c25.4307861,0,46.0463867-20.6156006,46.0463867-46.0463867h170.6867676c50.5778198,0,91.5794678-41.0014038,91.5794678-91.5794067
		V568.7814331C916.6665039,520.3391724,888.9168091,477.9382019,848.3579102,457.5137939z M512.000061,169.4873657
		c-19.985321,0-36.1865845-16.2012634-36.1865845-36.1865082S492.01474,97.1143417,512.000061,97.1143417
		c19.9852905,0,36.1864624,16.2012558,36.1864624,36.1865158S531.9853516,169.4873657,512.000061,169.4873657z"/>
</g>
</svg>
