<?xml version="1.0" encoding="utf-8"?>
<!-- Generator: Adobe Illustrator 30.0.0, SVG Export Plug-In . SVG Version: 9.03 Build 0)  -->
<svg version="1.1" id="Layer_1" xmlns="http://www.w3.org/2000/svg" xmlns:xlink="http://www.w3.org/1999/xlink" x="0px" y="0px"
	 viewBox="0 0 44 44" style="enable-background:new 0 0 44 44;" xml:space="preserve">
<g>
	<defs>
		<rect id="SVGID_1_" x="0.4925839" y="0.4925839" width="43.0148315" height="43.0148315"/>
	</defs>
	<clipPath id="SVGID_00000090973150140239195370000003754653774774809770_">
		<use xlink:href="#SVGID_1_"  style="overflow:visible;"/>
	</clipPath>
	<g style="clip-path:url(#SVGID_00000090973150140239195370000003754653774774809770_);">
		<path style="fill:#4285F4;" d="M42.6471214,22.4888649c0-1.5250931-0.1367912-2.9914703-0.3910065-4.3993416H22v8.3194962
			h11.5748596c-0.4985428,2.688427-2.0137386,4.9662781-4.2915878,6.4913673v5.3964272h6.9507675
			C40.3008766,34.5525856,42.6471214,29.0387306,42.6471214,22.4888649z"/>
		<path style="fill:#34A853;" d="M22,43.5074158c5.8070049,0,10.6754227-1.9259911,14.2338219-5.2106018l-6.9507675-5.3964272
			C27.3572826,34.190834,24.8936081,34.95327,22,34.95327c-5.6018238,0-10.3431301-3.7833691-12.0344763-8.8668613H2.7801118
			v5.5723572C6.3191576,38.6878204,13.5925369,43.5074158,22,43.5074158z"/>
		<path style="fill:#FBBC04;" d="M9.9655237,26.0864086C9.5353775,24.7959633,9.2910538,23.4175529,9.2910538,22
			s0.2443237-2.7959633,0.6744699-4.0864086v-5.5723572H2.7801118C1.3236309,15.2447367,0.4925839,18.5295639,0.4925839,22
			s0.831047,6.7552643,2.2875278,9.6587658L9.9655237,26.0864086z"/>
		<path style="fill:#E94235;" d="M22,9.0467281c3.1575031,0,5.9926128,1.0850496,8.2216415,3.2162199l6.1687584-6.1687579
			C32.6657448,2.6237538,27.7971096,0.4925839,22,0.4925839c-8.4074631,0-15.6808424,4.8195972-19.2198887,11.84865
			l7.1854119,5.5723572C11.6568699,12.8300991,16.3981762,9.0467281,22,9.0467281z"/>
	</g>
</g>
</svg>
