<?xml version="1.0" encoding="UTF-8"?>
<svg id="Layer_1" data-name="Layer 1" xmlns="http://www.w3.org/2000/svg" viewBox="0 0 228.75 188.12">
  <defs>
    <style>
      .cls-1 {
        fill: #010101;
      }
    </style>
  </defs>
  <g>
    <path d="M13.35,11.99c-.24-.06-.5.07-.92-.07-.5-.15-.74-.72-1.18-1.73-.57-1.33-1.12-2.43-2.43-2.8,1.59-.55,2.67-1.77,2.67-3.41,0-2.05-1.59-3.56-4.81-3.56-1.09,0-2.27.07-2.93.07-.46,0-.9-.02-1.36-.02C.92.46,0,.63,0,1.27c0,.46.42.65,1.2.74.3.04.37.79.37,1.68v6.77c0,.88-.07,1.66-.37,1.7-.72.09-1.16.26-1.16.72,0,.65,1.11.87,3.02.87,2.05,0,3.25-.22,3.25-.87,0-.46-.5-.66-1.38-.72-.3-.02-.37-.81-.37-1.7v-2.29h1.62c1.2,0,1.62,1.05,2.01,2.36.48,1.6,1.07,3.25,3.15,3.25,1.36,0,2.29-.81,2.29-1.36,0-.24-.09-.37-.28-.42ZM5.92,6.71c-.48,0-.92-.02-1.36-.07v-3.01c0-.83.04-1.44.24-1.51.31-.11.77-.18,1.27-.18,1.83,0,2.32,1.22,2.32,2.42,0,1.46-.74,2.36-2.47,2.36Z"/>
    <path d="M25.73,9.13c-.46,0-.76.48-.96,1.14-.2.68-.33,1.07-.57,1.31-.29.3-1.22.5-2.86.5h-1.44c-.52,0-.59-.63-.59-2.01v-2.36c1.6,0,2.99.04,3.01.42.06.81.15,1.2.65,1.2.63,0,.92-1.14.9-2.4,0-1.27-.28-2.42-.9-2.42-.5,0-.59.42-.65,1.25-.02.42-1.4.44-3.01.44v-2.27c0-1.33.11-1.94.63-1.94h1.4c1.42,0,2.34.13,2.62.41.18.18.33.53.5,1.12.18.63.44,1,.87,1s.76-.44.76-1.31c0-1.4-.7-3.23-1.49-3.23-.31,0-.53.18-.65.48h-4.44c-.72,0-1.42-.02-1.99-.02-1.79,0-2.71.17-2.71.81,0,.46.42.65,1.16.74.3.04.37.79.37,1.68v6.73c0,.87-.07,1.62-.37,1.66-.74.09-1.16.28-1.16.76,0,.65.92.79,2.71.79.5,0,1.36-.02,1.99-.02h4.63c.11.3.33.48.68.48.89,0,1.7-2.12,1.7-3.65,0-.87-.31-1.31-.77-1.31Z"/>
    <path d="M34.59.41c-.79,0-1.9.07-2.53.07-.54,0-1.01-.02-1.36-.02-1.38,0-2.3.17-2.3.81,0,.46.42.65,1.12.74.3.04.37.79.37,1.68v6.77c0,.88-.07,1.66-.37,1.7-.72.09-1.16.26-1.16.72,0,.65,1.11.87,3.02.87,2.05,0,3.25-.22,3.25-.87,0-.46-.5-.66-1.38-.72-.3-.02-.37-.81-.37-1.7v-1.66c.61.07,1.24.11,1.7.11,3.01,0,5.27-1.66,5.27-4.43,0-2.36-1.59-4.08-5.26-4.08ZM34.24,7.36c-.42,0-.9-.02-1.36-.13v-3.54c0-.83.02-1.46.28-1.57.28-.11.65-.18,1.11-.18,1.97,0,2.43,1.27,2.43,2.77,0,1.73-.77,2.66-2.45,2.66Z"/>
    <path d="M48.61.18c-3.93,0-7.06,2.88-7.06,6.88s2.9,6.84,6.9,6.84,7.1-2.88,7.1-6.88S52.66.18,48.61.18ZM49.18,12.23c-2.8,0-4.48-3.47-4.48-6.31,0-2.53,1.33-4.06,3.19-4.06,2.82,0,4.5,3.48,4.5,6.32,0,2.53-1.35,4.04-3.21,4.04Z"/>
    <path d="M70.48,11.99c-.24-.06-.5.07-.92-.07-.5-.15-.74-.72-1.18-1.73-.57-1.33-1.12-2.43-2.43-2.8,1.59-.55,2.67-1.77,2.67-3.41,0-2.05-1.59-3.56-4.81-3.56-1.09,0-2.27.07-2.93.07-.46,0-.9-.02-1.36-.02-1.46,0-2.38.17-2.38.81,0,.46.42.65,1.2.74.3.04.37.79.37,1.68v6.77c0,.88-.07,1.66-.37,1.7-.72.09-1.16.26-1.16.72,0,.65,1.11.87,3.02.87,2.05,0,3.25-.22,3.25-.87,0-.46-.5-.66-1.38-.72-.3-.02-.37-.81-.37-1.7v-2.29h1.62c1.2,0,1.62,1.05,2.01,2.36.48,1.6,1.07,3.25,3.15,3.25,1.36,0,2.29-.81,2.29-1.36,0-.24-.09-.37-.28-.42ZM63.05,6.71c-.48,0-.92-.02-1.36-.07v-3.01c0-.83.04-1.44.24-1.51.31-.11.77-.18,1.27-.18,1.83,0,2.32,1.22,2.32,2.42,0,1.46-.74,2.36-2.47,2.36Z"/>
    <path d="M81.89,0c-.35,0-.55.18-.65.48h-8.04c-.09-.29-.3-.48-.65-.48-.87,0-1.68,1.92-1.68,3.6,0,.88.31,1.38.77,1.38s.72-.42,1.01-1.38c.15-.48.3-.87.52-1.18.2-.33.9-.44,1.79-.44h.33c.35,0,.42.77.42,2.18v6.31c0,.88-.09,1.64-.46,1.68-.85.07-1.25.28-1.25.74,0,.65,1.11.87,3.21.87s3.21-.22,3.21-.87c0-.46-.41-.66-1.25-.76-.35-.04-.46-.77-.46-1.66v-6.31c0-1.4.06-2.18.41-2.18h.35c.89,0,1.59.11,1.79.44.2.33.37.7.52,1.18.29.96.55,1.38,1.01,1.38s.77-.5.77-1.38c0-1.68-.81-3.6-1.68-3.6Z"/>
    <path d="M95.83.41c-.79,0-1.9.07-2.53.07-.54,0-1.01-.02-1.36-.02-1.38,0-2.3.17-2.3.81,0,.46.42.65,1.12.74.3.04.37.79.37,1.68v6.77c0,.88-.07,1.66-.37,1.7-.72.09-1.16.26-1.16.72,0,.65,1.11.87,3.02.87,2.05,0,3.25-.22,3.25-.87,0-.46-.5-.66-1.38-.72-.3-.02-.37-.81-.37-1.7v-1.66c.61.07,1.24.11,1.7.11,3.01,0,5.27-1.66,5.27-4.43,0-2.36-1.59-4.08-5.26-4.08ZM95.48,7.36c-.42,0-.9-.02-1.36-.13v-3.54c0-.83.02-1.46.28-1.57.28-.11.65-.18,1.11-.18,1.97,0,2.43,1.27,2.43,2.77,0,1.73-.77,2.66-2.45,2.66Z"/>
    <path d="M109.85.18c-3.93,0-7.06,2.88-7.06,6.88s2.9,6.84,6.9,6.84,7.1-2.88,7.1-6.88S113.91.18,109.85.18ZM110.43,12.23c-2.8,0-4.48-3.47-4.48-6.31,0-2.53,1.33-4.06,3.19-4.06,2.82,0,4.5,3.48,4.5,6.32,0,2.53-1.35,4.04-3.21,4.04Z"/>
    <path d="M135.82.35c-1.81,0-2.78.31-2.78.89,0,.41.35.65,1.2.7.37.02.48.39.15,1.62-.42,1.6-1.35,4.41-2.18,6.66-.81-1.92-1.7-4.28-2.1-5.92-.37-1.4-.39-2.27-.06-2.31.85-.11,1.2-.29,1.2-.74,0-.55-.94-.9-3.12-.9-2.05,0-3.06.35-3.06.98,0,.37.31.57.72.66.28.06.46.26.96,1.66l.31.9c-.54,1.64-1.38,3.96-2.08,5.77-.85-1.92-1.73-4.3-2.29-6.05-.44-1.4-.46-2.21-.18-2.27.63-.13.99-.29.99-.76,0-.55-.87-.9-2.97-.9s-3.1.35-3.1.98c0,.37.28.63.79.68.31.04.57.28,1.09,1.64.98,2.58,2.82,7.32,3.56,8.91.39.81.74,1.24,1.44,1.24s.94-.48,1.31-1.29c.39-.87,1.36-3.39,2.25-5.73.79,2.14,1.75,4.57,2.25,5.73.39.87.74,1.29,1.42,1.29.79,0,1.03-.48,1.35-1.29.52-1.31,2.01-5.46,3.08-8.48.46-1.31.85-1.92,1.38-2.05.61-.15.88-.41.88-.74,0-.52-.92-.89-2.42-.89Z"/>
    <path d="M150.29,9.13c-.46,0-.76.48-.96,1.14-.2.68-.33,1.07-.57,1.31-.3.3-1.22.5-2.86.5h-1.44c-.52,0-.59-.63-.59-2.01v-2.36c1.6,0,2.99.04,3.01.42.06.81.15,1.2.65,1.2.63,0,.92-1.14.9-2.4,0-1.27-.28-2.42-.9-2.42-.5,0-.59.42-.65,1.25-.02.42-1.4.44-3.01.44v-2.27c0-1.33.11-1.94.63-1.94h1.4c1.42,0,2.34.13,2.62.41.18.18.33.53.5,1.12.18.63.44,1,.87,1s.76-.44.76-1.31c0-1.4-.7-3.23-1.49-3.23-.31,0-.53.18-.65.48h-4.44c-.72,0-1.42-.02-1.99-.02-1.79,0-2.71.17-2.71.81,0,.46.42.65,1.16.74.29.04.37.79.37,1.68v6.73c0,.87-.07,1.62-.37,1.66-.74.09-1.16.28-1.16.76,0,.65.92.79,2.71.79.5,0,1.36-.02,1.99-.02h4.63c.11.3.33.48.68.48.88,0,1.7-2.12,1.7-3.65,0-.87-.31-1.31-.77-1.31Z"/>
    <path d="M166.23,11.99c-.24-.06-.5.07-.92-.07-.5-.15-.74-.72-1.18-1.73-.57-1.33-1.13-2.43-2.43-2.8,1.59-.55,2.67-1.77,2.67-3.41,0-2.05-1.59-3.56-4.81-3.56-1.09,0-2.27.07-2.93.07-.46,0-.9-.02-1.36-.02-1.46,0-2.38.17-2.38.81,0,.46.42.65,1.2.74.29.04.37.79.37,1.68v6.77c0,.88-.07,1.66-.37,1.7-.72.09-1.16.26-1.16.72,0,.65,1.11.87,3.02.87,2.05,0,3.25-.22,3.25-.87,0-.46-.5-.66-1.38-.72-.3-.02-.37-.81-.37-1.7v-2.29h1.62c1.2,0,1.62,1.05,2.01,2.36.48,1.6,1.07,3.25,3.15,3.25,1.36,0,2.29-.81,2.29-1.36,0-.24-.09-.37-.28-.42ZM158.8,6.71c-.48,0-.92-.02-1.37-.07v-3.01c0-.83.04-1.44.24-1.51.31-.11.77-.18,1.27-.18,1.83,0,2.32,1.22,2.32,2.42,0,1.46-.74,2.36-2.47,2.36Z"/>
    <path d="M178.61,9.13c-.46,0-.76.48-.96,1.14-.2.68-.33,1.07-.57,1.31-.3.3-1.22.5-2.86.5h-1.44c-.52,0-.59-.63-.59-2.01v-2.36c1.6,0,2.99.04,3.01.42.06.81.15,1.2.65,1.2.63,0,.92-1.14.9-2.4,0-1.27-.28-2.42-.9-2.42-.5,0-.59.42-.65,1.25-.02.42-1.4.44-3.01.44v-2.27c0-1.33.11-1.94.63-1.94h1.4c1.42,0,2.34.13,2.62.41.18.18.33.53.5,1.12.18.63.44,1,.87,1s.76-.44.76-1.31c0-1.4-.7-3.23-1.49-3.23-.31,0-.53.18-.65.48h-4.44c-.72,0-1.42-.02-1.99-.02-1.79,0-2.71.17-2.71.81,0,.46.42.65,1.16.74.29.04.37.79.37,1.68v6.73c0,.87-.07,1.62-.37,1.66-.74.09-1.16.28-1.16.76,0,.65.92.79,2.71.79.5,0,1.36-.02,1.99-.02h4.63c.11.3.33.48.68.48.88,0,1.7-2.12,1.7-3.65,0-.87-.31-1.31-.77-1.31Z"/>
    <path d="M187.7.37c-1.11,0-2.01.11-2.93.11-.5,0-.96-.02-1.4-.02-1.25,0-2.12.17-2.12.81,0,.46.42.65,1.14.74.29.04.37.79.37,1.68v6.73c0,.87-.07,1.62-.37,1.66-.72.09-1.14.28-1.14.76,0,.65.92.79,2.18.79.42,0,.85-.02,1.35-.02.88,0,1.88.11,2.93.11,3.98,0,7.06-2.8,7.06-6.88,0-3.78-2.88-6.47-7.06-6.47ZM187.52,12.17c-.65,0-1.13-.06-1.51-.18-.26-.09-.26-.89-.26-1.62V3.71c0-.83,0-1.57.28-1.64.35-.09.83-.15,1.33-.15,2.73,0,4.09,2.27,4.09,5.18,0,2.53-1.09,5.07-3.93,5.07Z"/>
    <path d="M211.04,6.55c.9-.42,1.96-1.27,1.96-2.86,0-1.92-1.62-3.32-4.57-3.32-.81,0-2.31.11-3.15.11-.5,0-1.01-.02-1.46-.02-1.27,0-2.14.17-2.14.81,0,.46.42.65,1.16.74.3.04.37.79.37,1.68v6.73c0,.87-.07,1.62-.37,1.66-.74.09-1.16.28-1.16.76,0,.65.92.79,2.19.79.42,0,.85-.02,1.35-.02.72,0,1.97.07,3.45.07,2.75,0,5.09-1.38,5.09-3.84,0-1.94-1.44-3.02-2.71-3.3ZM206.17,3.56c0-.79-.02-1.38.19-1.49.31-.17.85-.22,1.31-.22,1.92,0,2.4,1.09,2.4,2.19,0,1.36-.79,2.12-2.14,2.12-.59,0-1.18-.02-1.75-.07v-2.53ZM207.89,12.21c-.66,0-1.22-.07-1.55-.26-.17-.09-.17-.77-.17-1.57v-2.73c.55-.06,1.18-.07,1.64-.07,1.83,0,2.82.85,2.82,2.38,0,1.42-.85,2.25-2.75,2.25Z"/>
    <path d="M226.24.35c-1.81,0-2.93.31-2.93.89,0,.41.39.59,1.11.7.37.06.31.33.11.74-.48,1-1.44,2.53-2.16,3.48-.74-.85-1.9-2.53-2.25-3.23-.31-.65-.33-.88-.07-.92.63-.09,1.01-.29,1.01-.76,0-.55-.88-.9-3.17-.9s-3.32.35-3.32.98c0,.37.37.61.98.68.52.06,1.2.9,3.61,4.39.48.7.76,1.16,1,1.72v2.34c0,.88-.09,1.64-.46,1.68-.85.09-1.25.28-1.25.74,0,.65,1.11.87,3.21.87s3.21-.22,3.21-.87c0-.46-.41-.66-1.25-.76-.35-.04-.46-.77-.46-1.66v-2.47c.2-.42.41-.83.81-1.44,1.99-2.97,2.86-4.41,3.63-4.57.81-.17,1.16-.41,1.16-.74,0-.52-.92-.89-2.51-.89Z"/>
  </g>
  <g>
    <path class="cls-1" d="M92.15,175.7c.62-.15.91-.42.91-.76,0-.53-.95-.91-2.48-.91-1.85,0-2.86.32-2.86.91,0,.42.36.66,1.23.72.38.02.49.4.15,1.66-.43,1.65-1.38,4.52-2.23,6.83-.83-1.97-1.74-4.39-2.16-6.07-.38-1.44-.4-2.33-.06-2.36.87-.11,1.23-.3,1.23-.76,0-.57-.96-.93-3.2-.93-2.1,0-3.14.36-3.14,1,0,.38.32.59.74.68.28.06.47.26.98,1.7l.32.93c-.55,1.68-1.42,4.07-2.14,5.92-.87-1.97-1.78-4.41-2.35-6.2-.45-1.44-.47-2.27-.19-2.33.64-.13,1.02-.3,1.02-.78,0-.57-.89-.93-3.04-.93s-3.18.36-3.18,1c0,.38.28.64.81.7.32.04.59.28,1.12,1.68,1,2.65,2.89,7.51,3.65,9.13.4.83.76,1.27,1.48,1.27s.96-.49,1.34-1.32c.4-.89,1.4-3.48,2.31-5.88.81,2.19,1.8,4.69,2.31,5.88.4.89.76,1.32,1.46,1.32.81,0,1.06-.49,1.38-1.32.53-1.34,2.06-5.6,3.16-8.7.47-1.34.87-1.97,1.42-2.1Z"/>
    <path class="cls-1" d="M104.99,186.14c-.34-.06-.61-.34-1.19-1.76-.95-2.29-3.14-7.15-4.1-9.08-.45-.93-.98-1.32-1.74-1.32-.85,0-1.48.61-1.55,1.4-.04.38-.11.83-.28,1.32-.36,1.06-2.02,5.07-3.01,7.3-.59,1.34-1,2-1.49,2.1-.7.13-1.06.36-1.06.74,0,.55,1.06.93,2.65.93s2.91-.36,2.91-.96c0-.38-.4-.62-1.17-.68-.47-.04-.57-.45-.15-1.66l.32-.91c.87-.09,1.61-.11,2.52-.11.85,0,1.7.02,2.59.09l.08.23c.47,1.4.57,2.31.26,2.34-.91.09-1.38.28-1.38.76,0,.57.98.91,3.4.91,2.23,0,3.39-.3,3.39-.91,0-.38-.38-.62-.98-.72ZM97.64,181.88c-.66,0-1.25,0-1.89.04.57-1.44,1.23-3.08,1.82-4.44.7,1.38,1.44,2.99,2.04,4.44-.7-.04-1.38-.04-1.97-.04Z"/>
    <path class="cls-1" d="M116.83,182.68c-.49,0-.76.53-1.04,1.51-.15.51-.34,1.1-.57,1.38-.28.34-1.44.47-2.76.47h-.91c-.61,0-.72-.62-.72-2.06v-6.56c0-.93.08-1.72.38-1.76.68-.08,1.1-.26,1.1-.74,0-.66-1.13-.89-3.01-.89s-3.01.23-3.01.89c0,.47.42.66,1.1.74.3.04.38.83.38,1.76v6.94c0,.89-.08,1.66-.38,1.7-.76.09-1.19.28-1.19.78,0,.66.95.81,2.78.81.57,0,1.46-.02,2.46-.02h3.69c.11.28.36.47.7.47,1,0,1.85-2.21,1.85-3.88,0-1-.38-1.55-.85-1.55Z"/>
    <path class="cls-1" d="M128.92,182.68c-.49,0-.76.53-1.04,1.51-.15.51-.34,1.1-.57,1.38-.28.34-1.44.47-2.76.47h-.91c-.61,0-.72-.62-.72-2.06v-6.56c0-.93.08-1.72.38-1.76.68-.08,1.1-.26,1.1-.74,0-.66-1.13-.89-3.01-.89s-3.01.23-3.01.89c0,.47.42.66,1.1.74.3.04.38.83.38,1.76v6.94c0,.89-.08,1.66-.38,1.7-.76.09-1.19.28-1.19.78,0,.66.95.81,2.78.81.57,0,1.46-.02,2.46-.02h3.69c.11.28.36.47.7.47,1,0,1.85-2.21,1.85-3.88,0-1-.38-1.55-.85-1.55Z"/>
    <path class="cls-1" d="M141.61,183.04c-.47,0-.78.49-.98,1.17-.21.7-.34,1.1-.59,1.34-.3.3-1.25.51-2.93.51h-1.48c-.53,0-.61-.64-.61-2.06v-2.42c1.65,0,3.06.04,3.08.43.06.83.15,1.23.66,1.23.64,0,.95-1.17.93-2.46,0-1.3-.28-2.48-.93-2.48-.51,0-.61.43-.66,1.29-.02.43-1.44.45-3.08.45v-2.33c0-1.36.11-1.99.64-1.99h1.44c1.46,0,2.4.13,2.69.42.19.19.34.55.51,1.15.19.64.45,1.02.89,1.02s.78-.45.78-1.34c0-1.44-.72-3.31-1.53-3.31-.32,0-.55.19-.66.49h-4.56c-.74,0-1.46-.02-2.04-.02-1.83,0-2.78.17-2.78.83,0,.47.44.66,1.19.76.3.04.38.81.38,1.72v6.9c0,.89-.08,1.66-.38,1.7-.76.09-1.19.28-1.19.78,0,.66.95.81,2.78.81.51,0,1.4-.02,2.04-.02h4.75c.11.3.34.49.7.49.91,0,1.74-2.17,1.74-3.74,0-.89-.32-1.34-.79-1.34Z"/>
    <path class="cls-1" d="M154.3,173.68c-.36,0-.57.19-.66.49h-8.25c-.09-.3-.3-.49-.66-.49-.89,0-1.72,1.97-1.72,3.69,0,.91.32,1.42.79,1.42s.74-.43,1.04-1.42c.15-.49.3-.89.53-1.21.21-.34.93-.45,1.83-.45h.34c.36,0,.43.79.43,2.23v6.47c0,.91-.09,1.68-.47,1.72-.87.08-1.29.28-1.29.76,0,.66,1.13.89,3.29.89s3.29-.23,3.29-.89c0-.47-.42-.68-1.29-.78-.36-.04-.47-.79-.47-1.7v-6.47c0-1.44.06-2.23.42-2.23h.36c.91,0,1.63.11,1.83.45s.38.72.53,1.21c.3.98.57,1.42,1.04,1.42s.79-.51.79-1.42c0-1.72-.83-3.69-1.72-3.69Z"/>
    <path class="cls-1" d="M79.2,96.01c-.07,1.79-.45,3.58-.3,5.37.56,2.46,2.45,4.97,4.97,5.63,1.64.32,1.81-1.38,1.82-2.58.46-5.77.95-11.55,1.46-17.32.07-.98.14-1.96.21-2.94,4.45-.91,8.9-1.87,13.34-2.84-.33,5.84-.61,11.69-.93,17.54-.08,1.75-.23,3.5-.28,5.24.17,2.22,1.65,4.64,3.83,5.34,2.14.44,1.87-2.22,1.96-3.62.5-8.61.99-17.21,1.44-25.83,3.8-.83,7.6-1.65,11.4-2.43.22-.05.44-.09.67-.14-.22,7.71-.32,15.38-.47,22.77-.07,2.68-.15,5.35-.22,8.03-.02.85-.05,1.69-.07,2.54.05,2.32,1.4,4.92,3.64,5.78,2.92.57,1.89-3.58,2.16-5.32.32-10.51.64-21.02.84-31.53.02-1.17.05-2.34.08-3.52,5.29-1.09,10.59-2.14,15.89-3.19-.73,9.69-1.5,19.38-2.24,29.08-.02,2.37-.78,4.83-.1,7.14.6,1.82,1.72,3.72,3.56,4.46,2.93.79,2-3.8,2.39-5.52.88-12.12,1.76-24.25,2.54-36.38,6.25-1.23,12.49-2.46,18.73-3.73,7.9-1.48-1.4-7.43-7.74-5.34-3.52.68-7.03,1.37-10.55,2.08.12-2.02.24-4.03.36-6.05.18-4,.24-8.04-.29-12.02,0-.93-.76-1.69-1.49-2.18-1.66-1.11-2.57-.55-2.67,1.32-.59,6.72-1.39,13.43-1.96,20.15-5.4,1.11-10.79,2.24-16.18,3.39.4-9.37.93-18.74.44-28.1-.2-1.2-.13-4.25-1.96-3.89-.3.26-.24.72-.32,1.09-.18,1.61-1.38,1.43-1.6,3.03-1.41,9.38-2.12,19.26-2.52,29.16-3.99.86-7.98,1.74-11.96,2.62.38-7.87.72-15.73.97-23.6-.07-2.8.14-5.71-.47-8.44-.56-.95-2.18-2.22-3.22-1.33-1.24,9.09-2.02,18.33-2.75,27.49-.18,2.4-.35,4.8-.5,7.2-4.39.98-8.78,1.96-13.18,2.95,1.05-11.63,2.38-23.27,2.33-34.93.27-1.89-3.67-4.75-5.19-3.27-1.77,11.57-2.84,23.33-4.09,34.99-.15,1.62-.29,3.24-.43,4.86-6.37,1.43-12.74,2.87-19.11,4.29-4.33.54-1.48,3.32.95,3.92,2.09.73,4.38.15,6.57.01,3.71-.55,7.4-1.18,11.08-1.87-.27,3.47-.54,6.94-.83,10.41Z"/>
    <path class="cls-1" d="M10.76,157.55c-3.41.34-5.45.32-6.04-1.59-.54-1.73.9-3.53,3.39-4.27,2.75-.81,4.78.12,6.46,1.86.53.55,1.25,1.18,2.04.97.7-.19,1.11-1.16.79-2.35-.6-2.23-2.82-4.91-4.46-4.45-.68.19-.95.81-.93,1.38-1.29-.25-3.02-.21-4.84.21l-.31-.75c-.29-.69-1.09-1.02-1.78-.73l-.31.13c-.69.29-1.02,1.09-.73,1.78l.3.71c-2.83,1.7-4.93,4.87-3.95,8.03,1.28,4.15,6.43,4.6,10.24,4.13,3.44-.42,5.51-.22,6.04,1.68.52,1.84-.85,3.65-3.31,4.38-2.68.79-5.48-.02-7.16-1.61-1.15-1.09-1.79-1.82-2.56-1.58-.71.23-1.08,1.16-.61,2.62.86,2.63,3.26,5.22,4.82,4.73.63-.2.92-.77.83-1.48,1.32.25,3.05.32,4.78-.04h0s.34.84.34.84c.29.69,1.09,1.02,1.78.73l.31-.13c.69-.29,1.02-1.09.73-1.78l-.31-.73c2.97-1.64,5.51-4.82,4.62-8.3-1.07-4.22-6.65-4.72-10.17-4.37Z"/>
    <path class="cls-1" d="M37.31,141.4c-.62.13-.92.51-.98,1.02-4.74,1-9.46,2.1-14.17,3.28-.28-.44-.72-.65-1.33-.49-1.52.39-2.13,3.86-1.42,6.57.38,1.43,1.13,2.09,1.92,1.88.79-.21,1.06-1,1.17-2.69.06-.84.18-1.54.41-2.14.23-.6,1.4-1.11,2.94-1.49.23-.06.35-.08.58-.14.61-.15,1.04,1.08,1.59,3.35.82,3.41,1.63,6.82,2.45,10.24.34,1.44.48,2.71-.12,2.91-1.37.47-1.98.96-1.79,1.71.26,1.05,2.18.94,5.66.13,3.49-.81,5.25-1.55,5.02-2.61-.16-.75-.91-.94-2.37-.77-.6.07-1.05-1.09-1.38-2.53-.77-3.42-1.54-6.85-2.3-10.27-.51-2.28-.7-3.57-.08-3.7.25-.05.37-.08.61-.14,1.55-.34,2.82-.42,3.29.05.47.47.89,1.01,1.31,1.74.84,1.46,1.43,2.06,2.23,1.9.8-.16,1.18-1.09.89-2.53-.55-2.75-2.62-5.6-4.15-5.28Z"/>
    <path class="cls-1" d="M53.91,138.64c-6.44,1.05-11.69,6.75-10.34,13.51,1.26,6.34,7.49,10.15,13.72,9.13,6.31-1.03,11.28-6.54,10.45-13.11-.86-6.77-7.39-10.59-13.83-9.53ZM58.09,158.32c-4.9.72-8.63-4.88-9.43-9.07-.62-3.26.86-6.99,4.43-7.64,5.07-.92,8.78,5.04,9.46,9.22.53,3.23-.92,6.97-4.46,7.49Z"/>
    <path class="cls-1" d="M82.01,158.16c2.33-.21,4.17-1.01,5.57-2,.19.48.65.72,1.18.69,1.53-.11,3.03-3.69,2.88-6.02-.06-1.04-.49-1.64-1.19-1.59-.8.05-1.1,1.24-1.64,2.21-1.05,1.83-2.97,2.77-5.03,2.98-4.83.49-8.38-4.68-8.86-8.76-.44-3.68,1.59-7.32,5.55-7.69,2.59-.24,5.56,1.15,6.76,3.46.8,1.54,1.25,2.41,2.25,2.34.74-.05,1.54-.87,1.4-3.02-.15-2.4-1.37-5.5-2.96-5.39-.63.04-1.02.54-1.14,1.22-1.65-.87-4.01-1.48-6.65-1.25-6.45.57-11.31,6.17-10.5,12.69.75,6.01,6.3,10.67,12.37,10.13Z"/>
    <path class="cls-1" d="M108.43,154.44c1.12,1.55,2.62,1.99,4.71,1.99,2.84,0,4.31-.51,4.32-1.46,0-.68-.61-1.07-2.28-1.25-.53-.06-1.32-.68-2.36-1.97-2.31-2.87-4.61-5.75-6.92-8.62.34-.34.51-.51.86-.85,1.99-1.99,4.12-4.62,6.68-5.27,1.68-.43,2.41-.86,2.41-1.41,0-.89-1.82-1.52-4.8-1.5-3.28.03-5.43.6-5.4,1.59.01.62.52.98,1.28,1.05.56.05.54.67-1.13,2.67-1.47,1.77-3.2,3.53-4.83,5.1-.07-1.87-.1-2.8-.17-4.67-.05-1.51.03-2.81.56-2.88,1.17-.17,1.9-.49,1.87-1.26-.03-1.08-2.03-1.4-5.31-1.26-3.28.14-5.25.63-5.19,1.71.04.77.79,1.03,1.98,1.09.53.03.73,1.32.8,2.83.19,3.78.38,7.56.57,11.34.07,1.48,0,2.78-.49,2.86-1.11.19-1.8.53-1.75,1.3.06,1.08,1.95,1.33,5.04,1.2,3.09-.13,4.95-.55,4.91-1.62-.02-.77-.73-1.05-1.86-1.14-.5-.04-.68-1.33-.73-2.81-.05-1.27-.07-1.9-.11-3.17.37-.41.8-.89,1.3-1.4,2.16,2.48,4.16,5.15,6.05,7.83Z"/>
    <path class="cls-1" d="M145.86,156.43c.07-.77-.6-1.13-1.71-1.35-.49-.1-.51-1.4-.39-2.87.32-3.77.63-7.54.95-11.32.13-1.5.37-2.78.9-2.8,1.18-.03,2.01-.26,2.08-1.02.1-1.07-1.79-1.62-4.63-1.84-2.45-.19-3.71.28-4.51,1.8-1.96,3.75-3.98,7.47-6.09,11.14-1.67-4.01-3.36-8.01-5.24-11.93-.8-1.66-1.62-1.97-4.57-2.04-2.35-.05-4.41.29-4.43,1.37,0,.77.72,1.02,1.99,1.23.66.1.8,1.37.77,2.88-.07,3.78-.14,7.57-.22,11.35-.03,1.48-.18,2.67-.74,2.73-1.42.13-2.08.46-2.09,1.23-.01,1.08,1.85,1.5,4.19,1.55,2.62.06,4.5-.27,4.54-1.34.03-.77-.66-1.13-2.06-1.33-.78-.11-.91-1.29-.87-2.77.07-2.55.1-3.82.17-6.37.04-1.51.08-2.77.14-3.78,1.64,3.76,3.28,7.52,5.03,11.23.61,1.29,1.11,1.96,2.09,2,.94.05,1.45-.64,2.21-1.86,2.13-3.46,4.06-7.05,5.96-10.64-.01.62-.06,1.32-.12,2.24-.22,3.16-.33,4.73-.55,7.89-.1,1.47-.35,2.75-.92,2.78-1.23.05-1.94.31-1.99,1.07-.07,1.08,1.78,1.55,5.02,1.8,3.08.24,4.98.04,5.08-1.03Z"/>
    <path class="cls-1" d="M170.29,158.28c-.54-.18-.9-.71-1.52-3.14-1.36-5.27-2.96-10.52-4.84-15.63-.58-1.6-1.42-2.36-2.74-2.53-1.48-.19-2.69.66-2.97,1.93-.14.6-.36,1.32-.74,2.08-2.03,3.8-4.24,7.52-6.42,11.24-1.21,2.07-2,3.08-2.83,3.15-1.18.1-1.81.42-1.86,1.03-.08.89,1.6,1.66,4.21,1.93,2.7.28,4.85-.05,4.96-1.03.07-.61-.54-1.08-1.81-1.32-.77-.15-.86-.84.05-2.72.28-.56.42-.84.7-1.41,1.47.01,2.71.13,4.23.32,1.42.18,2.84.4,4.31.72.03.15.05.23.08.38.48,2.36.42,3.85-.09,3.84-1.5-.04-2.34.15-2.44.91-.12.92,1.42,1.66,5.38,2.25,3.65.54,5.61.38,5.77-.59.1-.61-.46-1.1-1.43-1.42ZM159.03,149.68c-1.11-.14-2.1-.26-3.19-.32,1.23-2.21,2.67-4.73,3.96-6.81.92,2.38,1.84,5.14,2.54,7.62-1.17-.22-2.31-.37-3.3-.49Z"/>
    <path class="cls-1" d="M196.73,143.34c-2.73-.62-4.77-.64-5,.41-.16.75.49,1.23,1.91,1.7.79.26.7,1.45.38,2.89-.56,2.52-.84,3.79-1.4,6.31-.23,1.05-.45,1.89-.62,2.51-2.6-4.77-5.09-9.59-7.87-14.26-1.18-1.95-2.18-2.61-4.34-2.99-2.33-.41-4.49-.4-4.66.66-.13.76.65,1.19,2.01,1.62.63.2.59,1.41.33,2.9-.65,3.73-1.3,7.46-1.95,11.19-.25,1.46-.58,2.62-1.15,2.58-1.42-.09-2.19.13-2.32.89-.18,1.06,1.67,1.77,3.98,2.19,2.59.46,4.51.43,4.71-.63.15-.76-.48-1.22-1.84-1.63-.76-.23-.7-1.41-.44-2.87.46-2.51.69-3.76,1.15-6.27.28-1.51.53-2.88.79-3.95,3.32,5,6.06,10.45,8.7,15.83.76,1.55,1.42,2.48,2.49,2.73,1.04.23,1.87-.3,2.16-1.53.38-1.65.86-4,1.22-5.59.69-3,1.38-6,2.07-9,.33-1.44.73-2.58,1.33-2.5,1.49.19,2.31.04,2.49-.71.25-1.05-1.67-1.92-4.11-2.47Z"/>
    <path class="cls-1" d="M205.81,145.45c-1.68-.43-3.23.43-3.58,1.84-.28,1.14.26,2.15,1.45,2.83.41.26.8.46.66,1.02-.2.81-.96,1.27-1.51,1.56-.45.24-.81.43-.89.73-.11.45.14.79.68.93,1.33.33,4.62-1.45,5.42-4.49.57-2.17-.35-3.94-2.23-4.42Z"/>
    <path class="cls-1" d="M226.08,151.02c-.67-.21-1.24.16-1.54.65-.83-.81-2.08-1.61-3.56-2.22l.17.05.22-.79c.19-.73-.25-1.48-.97-1.67l-.32-.09c-.73-.19-1.48.25-1.67.97l-.19.76c-3.52-.42-7.52,1.08-8.5,4.53-1.18,4.18,2.87,7.35,6.32,9.04,3.12,1.52,4.74,2.82,4.16,4.7-.57,1.82-2.7,2.6-5.17,1.87-2.68-.79-4.58-3-5.12-5.25-.37-1.54-.51-2.5-1.28-2.71-.71-.19-1.54.38-1.93,1.87-.72,2.68-.12,6.15,1.46,6.59.64.18,1.19-.15,1.5-.8.8.76,1.89,1.57,3.16,2.18l-.23.86c-.19.73.25,1.48.97,1.67l.32.09c.73.19,1.48-.25,1.67-.97l.18-.71c3.58.57,8.09-.61,9.35-4.33,1.4-4.12-3.03-7.58-6.17-9.21-3.04-1.57-4.75-2.69-4.2-4.62.49-1.75,2.67-2.48,5.16-1.74,2.75.81,3.95,2.7,4.42,5.08.14.75.41,1.68,1.19,1.92.69.22,1.57-.37,1.95-1.54.71-2.2.31-5.66-1.33-6.17Z"/>
  </g>
</svg>