<svg id="Capa_1" enable-background="new 0 0 512 512" height="512" viewBox="0 0 512 512" width="512" xmlns="http://www.w3.org/2000/svg"><path d="m510.841 191.181c-.58-3.937-2.699-7.48-5.893-9.854l-240.001-178.367c-5.311-3.947-12.584-3.947-17.895 0l-240 178.368c-3.193 2.373-5.313 5.917-5.893 9.854-.58 3.936.428 7.94 2.801 11.134l35.792 48.156c4.943 6.647 14.339 8.032 20.986 3.091l.262-.196v243.633c0 8.284 6.716 15 15 15h360c8.284 0 15-6.716 15-15v-243.633l.262.195c2.688 1.998 5.825 2.962 8.936 2.962 4.582 0 9.107-2.093 12.051-6.053l35.792-48.156c2.372-3.193 3.38-7.198 2.8-11.134zm-277.141 205.819-72.7 66.091v-132.183zm22.3 20.272 71.2 64.728h-142.401zm22.299-20.272 72.701-66.092v132.183zm-22.299-20.273-71.201-64.727h142.401zm165 105.273h-40v-185c0-8.284-6.716-15-15-15h-220c-8.284 0-15 6.716-15 15v185h-40v-250.929l165-122.628 165 122.628zm36.118-261.463-192.171-142.822c-2.655-1.974-5.802-2.961-8.947-2.961s-6.292.987-8.947 2.961l-192.171 142.822-17.896-24.078 219.014-162.771 219.014 162.771z"/><path d="m211 207c0 24.813 20.187 45 45 45s45-20.187 45-45-20.187-45-45-45-45 20.186-45 45zm60 0c0 8.271-6.729 15-15 15s-15-6.729-15-15 6.729-15 15-15 15 6.728 15 15z"/></svg>