<?xml version="1.0" encoding="utf-8"?>
<!-- Generator: Adobe Illustrator 30.0.0, SVG Export Plug-In . SVG Version: 9.03 Build 0)  -->
<svg version="1.1" id="Layer_1" xmlns="http://www.w3.org/2000/svg" xmlns:xlink="http://www.w3.org/1999/xlink" x="0px" y="0px"
	 viewBox="0 0 1024 1024" style="enable-background:new 0 0 1024 1024;" xml:space="preserve">
<g>
	<path d="M883.2781372,562.8814697c0.7423096-179.3112183-88.9992676-367.4941711-235.2401123-471.5665283
		c-16.9017944-12.031311-37.3070068-27.6838417-58.9435425-25.4024887l-0.0089722,0.0090103
		c-26.3259277,2.7702408-42.2409668,24.7868881-43.644165,49.990242
		c0.9777222,158.8244019-2.0821533,317.9204102,1.5751953,476.5909119
		C576.6286621,819.5860596,882.3185425,794.9077759,883.2781372,562.8814697z"/>
	<path d="M425.8794556,65.8853149c-37.922699,4.9519196-116.3300171,81.883606-142.2757263,111.7129822
		c-85.3418121,98.070282-136.2735443,232.2888489-141.2345886,362.5241394
		c-3.322403,87.1705933,29.5216064,175.6900024,119.5890808,202.6495972
		c114.70047,34.3286743,210.1816101-48.7227783,216.8355408-162.798645l-0.0815125-469.737854
		C476.5124207,84.2084122,452.467865,62.4180298,425.8794556,65.8853149z"/>
	<path d="M228.0007324,815.0142822c-24.1712494-17.0918579-48.2158051-24.3795166-72.1427155-45.6357422
		c-12.2757416-10.8997803-35.9129105-42.8112183-49.9630585-45.1016235c-3.2590256-0.5250854-6.0020828-0.588501-9.2701797,0
		v-0.0090942c-23.3927078,4.218689-32.5814438,57.6036987-33.658741,77.0222778
		c-3.0236435,54.7339478,24.4519386,115.1802368,72.4685974,143.1899414
		C232.1560516,1000.9250488,308.7347107,872.0747681,228.0007324,815.0142822z"/>
	<path d="M955.1221313,763.3674316c-4.8161621-17.5264893-12.8189087-42.0598755-35.4060059-39.0633545l0.0090942,0.0001221
		c-13.8600464,1.8377075-31.6218262,27.1587524-42.2228394,37.2617798
		c-8.102356,7.7130127-18.8391113,16.6211548-27.9553833,23.130188
		c-33.9666138,24.2527466-80.6434326,32.7625122-85.5772705,83.2868652
		c-7.1427612,73.1022949,64.7555542,111.9483643,126.7136841,75.6280518
		C951.392334,908.0239868,973.1464233,829.0010986,955.1221313,763.3674316z"/>
</g>
</svg>
