<?xml version="1.0" encoding="UTF-8"?>
<svg id="Layer_1" data-name="Layer 1" xmlns="http://www.w3.org/2000/svg" viewBox="0 0 1010.15 319.89">
  <defs>
    <style>
      .cls-1 {
        fill: #e57c44;
      }
    </style>
  </defs>
  <path class="cls-1" d="M51.23,105.68c-18.07-3.07-26.92-5.31-29.33-13.14-1.9-6.19,1.37-12.03,9.73-14.53,10.76-3.21,20.99,3,27.92,8.22,4.52,3.51,6.87,5.09,9.38,4.4,3.41-.94,3.82-3.93,2.39-8.12-1.93-5.67-4.58-11.44-7.28-16.5-2.98-5.58-5.46-6.25-8.18-5.49-3.32.93-3.49,3.22-7.4,4.34-3.16.9-10.43.81-18.06,3.02C13.23,72.84-4.62,89.22,1.09,108.31c4.67,15.62,18.3,17.44,37.21,20.58,13.64,2.27,26.89,4.47,29.21,12.96,1.46,5.34-.6,11.83-9.41,14.44-15.91,4.72-27.96-3.5-34.34-9.17-4.44-3.57-6.02-5.03-8.9-4.1-2.87.93-2.95,3.71-1.41,7.87,2.23,6.04,5.41,12.32,9.16,19.56,2.88,5.56,5.33,6.44,7.86,5.63,3.09-.99,2.55-4.14,7.2-5.59,3.52-1.1,11.34-.44,21.75-3.48,17.54-5.13,35.07-20.86,29.98-40.67-3.85-15-18.32-17.28-38.18-20.65Z"/>
  <path class="cls-1" d="M173.22,40.1c-2.17-4.18-5.12-5.58-14.28-3.63-20.88,4.44-41.67,9.29-62.36,14.53-8.94,2.27-11.06,4.78-11.23,9.58-.16,4.34.45,10.3,2.31,18.58.98,4.35,2.54,6.62,5.8,5.77,2.38-.62,3.54-2.85,4.35-6.48,2.94-11.45,4.82-17.43,13.87-19.65,4.22-1.03,6.66.45,7.57,4.23,4.53,18.79,9.06,37.57,13.59,56.36,4.11,17.06-6.82,15.29-4.95,22.83.83,3.35,3.39,3.89,9.52,2.41,10.44-2.53,15.68-3.75,26.15-6.09,6.44-1.44,8.2-2.99,7.47-6.36-1.66-7.59-10.38-1.24-14.23-18.36-4.24-18.86-8.48-37.71-12.71-56.57-.85-3.79.79-6.37,4.73-7.24,9.08-2.01,13.59,2.64,21.12,11.64,2.48,2.86,4.36,4.38,6.75,3.89,3.3-.68,3.65-3.54,2.64-7.74-1.99-8.26-4.15-13.88-6.12-17.69Z"/>
  <path class="cls-1" d="M247.03,123.67c28.83-4.25,50.65-32.86,46.92-61.86-3.53-27.49-30.59-46.46-57.6-41.36-28.68,5.41-52.52,35.28-46.64,64.91,5.02,25.32,32.45,41.98,57.32,38.32ZM211.12,66.74c-3.13-15.71,3.03-31.65,19.15-33.62,22.2-2.7,38.83,23.75,41.52,44.13,2.11,16.01-2.83,30.62-18.74,32.45-22.56,2.59-37.94-22.97-41.93-42.96Z"/>
  <path class="cls-1" d="M363.96,108.57c14.58-1.02,34.26-11.36,39.95-26.04,2.06-4.89-2.67-8.91-6.24-4.63-7.71,9.03-16.2,14.5-26.84,15.19-23.46,1.53-36.96-20.71-39.77-41.96-2.24-16.93,7.46-33.83,25.55-35.35,12.09-1.02,21.93,6.52,29.8,15.75,3.85,4.48,5.39,6.8,8.85,6.3,3.9-.57,4.56-3.24,3.62-7.59-1.82-8.45-4.06-14.74-6.28-20.2-2.44-6.01-4.38-7.2-7.17-7-4.03.29-4.78,2.8-8.8,3.11-3.4.26-9.19-1.88-19.1-1-28.79,2.54-54.05,30.19-50.61,59.35,3.24,27.48,30.53,45.92,57.05,44.07Z"/>
  <path class="cls-1" d="M457,96.85c-.24-7.76-9.92-3.12-10.57-20.66-.21-5.69-.32-8.54-.53-14.23,7.63-7.37,11.48-11.03,19.29-18.3,7.44,14.67,11.08,22.02,18.2,36.77,4.26,9.15-4.26,10.28-4.17,15.89.06,3.45,2.41,4.55,8.68,4.48,10.2-.12,15.31-.13,25.51-.08,6.27.03,8.32-1.09,8.36-4.54.07-7.19-6.94-4.53-13.13-17.49-8.26-17.3-16.67-34.49-25.24-51.64,3.86-3.45,5.8-5.17,9.71-8.59,11.58-10.3,18.13-7.09,18.16-13.85.01-3.45-3.09-4.62-9.29-4.61-8.69.02-13.03.06-21.72.19-4.81.07-6.96,1.27-6.9,4.72.11,5.47,11.94,5.69,3.03,13.76-12.63,11.33-18.84,17.06-31.03,28.63-.31-8.22-.46-12.34-.77-20.56-.65-17.54,10.13-13.59,9.89-21.35-.11-3.45-2.62-4.54-9.29-4.29-11.35.41-17.03.67-28.37,1.27-6.98.37-9.08,1.66-8.87,5.11.46,7.75,10.54,2.87,11.46,20.4.87,16.47,1.73,32.95,2.6,49.42.92,17.53-9.43,13.78-8.97,21.54.2,3.45,2.6,4.45,8.86,4.11,10.66-.57,15.99-.81,26.66-1.2,6.56-.24,8.56-1.44,8.46-4.89Z"/>
  <path class="cls-1" d="M651.01,102.85c.81-8.74-9.52-5.33-8.94-19,.96-19.31,1.91-38.63,2.84-57.94.43-10.5,9.95-7.79,10.56-14.53.31-3.44-2.06-4.82-7.79-5.31-7.86-.67-11.79-.99-19.66-1.57-3.25-.24-5.36.91-7.1,3.67-10.92,18.35-21.55,36.88-31.89,55.57-7.63-19.66-15.56-39.21-23.77-58.65-1.29-2.78-3.42-4.15-6.68-4.26-8.31-.26-12.47-.37-20.79-.53-5.74-.11-8.09,1.01-8.14,4.47-.1,6.76,9.64,5.2,8.97,15.55-1.49,20.74-2.94,41.48-4.35,62.22-.61,9.05-8.97,9.22-9.03,13.96-.04,3.16,1.7,4.18,7.09,4.28,5.77.1,8.66.16,14.43.31,4.52.12,6.73-.53,6.83-3.83.16-5.18-7.47-5.39-6.94-14.44.99-17.53,2.01-35.06,3.04-52.59,8.76,21.04,17.18,42.21,25.27,63.52.78,2.19,2.62,3.57,6.02,3.01,3.4-.56,4.77-1.64,6.23-4.3,10.83-20.06,22-39.95,33.49-59.64-.85,16.38-1.71,32.76-2.58,49.14-.77,12.92-9.22,9.46-9.75,17.5-.23,3.44,2.03,4.74,8.14,5.17,10.24.73,15.36,1.13,25.6,2.03,6.4.56,8.54-.39,8.86-3.82Z"/>
  <path class="cls-1" d="M723.09,92.5c.35,1.38.52,2.08.87,3.46,2.98,11.89-6.81,8.36-7.62,14.35-.46,3.42,1.7,4.87,6.91,5.6,10.59,1.49,15.89,2.28,26.46,3.95,5.92.94,8.13.14,8.68-3.27.95-5.82-5.21-4.35-8.37-16.78-6.34-26.96-13.26-53.78-20.57-80.49-1-3.04-2.83-4.59-6.07-5.02-7.65-1.01-11.47-1.49-19.13-2.41-3.09-.37-5.4.66-5.75,3.66-.68,5.86,8.55,6.52,3.26,15.74-11.33,19.44-22.37,39.06-33.11,58.83-5.15,9.59-13.36,7.78-13.89,13.36-.31,3.29,2.8,4.45,7.88,4.97,5.46.55,8.19.84,13.65,1.44,4.06.45,7.34.1,7.73-3.33.64-5.58-7.91-4.8-2.15-15.01,1.04-1.85,1.56-2.78,2.61-4.63,2.06-3.68,2.07-3.77,19.62-1.57,17.7,2.22,17.7,2.32,18.98,7.15ZM705.57,74.95c-13.51-1.7-13.52-1.64-11.03-6.13,6.05-10.76,9.11-16.12,15.32-26.83,3.32,12.25,4.94,18.38,8.09,30.64.98,4.05.98,3.99-12.39,2.31Z"/>
  <path class="cls-1" d="M883.02,43.46c-6.02-1.4-9.04-2.09-15.07-3.43-4.87-1.09-7.32-.88-8.02,2.36-1.1,5.06,7.23,6.9,5.25,15.75-3.43,15.33-5.14,23-8.57,38.33-14.66-21.64-29.68-42.95-45.13-64.04-2.3-2.92-4.16-4.87-7.99-5.57-6.01-1.09-9.02-1.62-15.03-2.66-6.44-1.11-9.09-.38-9.66,3.03-1.42,8.51,10.02,4.04,6.63,23.6-3.16,18.24-6.32,36.48-9.48,54.71-1.55,8.93-9.43,7.88-10.22,12.56-.52,3.12,1.04,4.4,6.38,5.32,5.65.98,8.48,1.48,14.12,2.51,4.61.84,6.9.54,7.51-2.71.95-5.09-7.01-6.56-5.4-15.48,3.13-17.51,6.26-35.03,9.38-52.54,16.54,22.25,32.6,44.89,47.91,68.01,2.58,4.1,3.48,6.82,2.66,10.46-.57,2.53.79,5.18,5.08,6.16,4.29.98,6.4-.3,7.53-5.21,5.69-24.52,11.38-49.05,17.07-73.57,2.05-8.83,10.43-7.16,11.53-11.78.76-3.22-1.01-4.54-6.48-5.81Z"/>
  <path class="cls-1" d="M912.85,50.4c-6.22-1.57-13.45,1.7-15.26,9.11-2.25,9.22,6.82,12.36,5.39,18.08-1.4,5.58-8.8,6.86-9.46,9.51-.34,1.4.75,2.7,2.52,3.14,7.54,1.87,22.66-6.55,26.65-21.87,2.69-10.3-2.27-16.06-9.85-17.97Z"/>
  <path class="cls-1" d="M1006.18,75.64c-3.3-1.04-4.69.79-8.58-.42-3.15-.97-9.19-5.03-16.79-7.35-17.11-5.22-40.95-1.24-46.59,17.86-4.62,15.64,5.75,24.59,19.86,37.56,10.17,9.35,20.08,18.44,17.38,26.82-1.7,5.27-6.98,9.57-15.78,6.94-15.91-4.75-21.48-18.21-23.7-26.44-1.76-5.42-2.29-7.5-5.19-8.29-2.9-.79-4.48,1.49-5.47,5.82-1.43,6.28-2.21,13.27-3.03,21.39-.63,6.23.94,8.31,3.49,9.01,3.12.86,4.39-2.07,9.07-.75,3.55,1,9.72,5.83,20.09,8.96,17.5,5.29,40.83,1.73,47.4-17.65,4.97-14.66-5.95-24.5-20.76-38.19-13.47-12.45-19.63-19.15-17.37-27.03,1.79-6.22,7.71-9.33,16.08-6.85,10.77,3.19,15.95,13.99,18.91,22.15,1.87,5.41,2.98,8.02,5.48,8.82,3.38,1.07,5.36-1.2,6.45-5.49,1.48-5.81,2.42-12.08,2.92-17.8.55-6.31-1.17-8.23-3.87-9.07Z"/>
  <path class="cls-1" d="M361.69,222.5c0-3.31-3.16-4.17-8.2-4.17h-13.52c-4.03,0-7.19.72-7.19,4.17,0,5.61,7.91,3.74,4.17,14.96l-17.84,53.66-16.4-53.23c-3.16-10.5,4.32-9.64,4.32-15.25,0-3.31-2.59-4.32-7.05-4.32h-26.18c-4.32,0-6.76.72-6.76,4.32,0,5.61,6.9,4.32,10.36,15.25l1.87,6.33-16.97,47.76-17.69-54.09c-3.45-10.5,4.03-9.64,4.03-15.25,0-3.31-2.59-4.32-7.05-4.32h-26.18c-4.17,0-6.76.72-6.76,4.32,0,5.61,6.91,4.32,10.65,15.1l27.62,78.83c1.15,3.17,3.45,3.74,10.5,2.73,6.76-1.01,8.34-3.02,9.06-5.18l18.12-53.95,18.99,56.39c1.01,3.17,3.31,4.03,10.93,2.73,6.76-1.01,8.34-3.16,9.06-5.32l26.18-76.53c3.6-10.36,11.94-9.35,11.94-14.96Z"/>
  <path class="cls-1" d="M437.07,299.18l-30.35-76.67c-1.29-2.88-3.16-4.17-6.19-4.17h-17.84c-2.88,0-4.89,1.29-4.89,4.32,0,5.9,8.63,5.47,4.75,15.25l-25.17,62.14c-4.03,10.07-12.23,9.06-12.23,14.67,0,3.31,3.17,4.17,8.2,4.17h13.52c4.03,0,7.19-.72,7.19-4.17,0-5.61-8.2-3.88-3.74-14.67l2.01-4.89q1.58-3.88,18.7-3.88t19.13,4.6l1.29,3.31c4.46,11.37-5.47,9.21-5.47,15.25,0,3.45,2.3,4.6,7.48,4.6h26.33c5.9,0,7.91-1.15,7.91-4.6,0-5.9-5.75-3.45-10.65-15.25ZM391.18,280.76q-13.09,0-11.22-4.75l11.37-28.48,11.36,29.35q1.44,3.88-11.51,3.88Z"/>
  <path class="cls-1" d="M526.83,286.52c-2.59-.58-4.6.58-7.05,5.47-5.04,10.5-8.34,16.54-17.12,16.54l-5.18.14c-8.49,0-10.5-2.01-10.5-6.47v-58.26c0-17.55,9.93-13.24,9.93-21,0-3.45-2.3-4.6-8.49-4.6h-26.32c-6.47,0-8.49,1.15-8.49,4.6,0,7.77,9.64,3.45,9.64,21v48.33c0,19.85-9.92,13.52-9.92,22.15,0,3.45,2.3,4.6,8.49,4.6h53.95c8.63,0,11.08-1.87,12.23-6.47,1.15-4.17,2.01-10.07,2.3-18.56.14-4.46-.14-6.62-3.45-7.48Z"/>
  <path class="cls-1" d="M610.99,286.52c-2.59-.58-4.6.58-7.05,5.47-5.04,10.5-8.34,16.54-17.12,16.54l-5.18.14c-8.49,0-10.5-2.01-10.5-6.47v-58.26c0-17.55,9.93-13.24,9.93-21,0-3.45-2.3-4.6-8.49-4.6h-26.32c-6.47,0-8.49,1.15-8.49,4.6,0,7.77,9.64,3.45,9.64,21v48.33c0,19.85-9.92,13.52-9.92,22.15,0,3.45,2.3,4.6,8.49,4.6h53.95c8.63,0,11.08-1.87,12.23-6.47,1.15-4.17,2.01-10.07,2.3-18.56.14-4.46-.14-6.62-3.45-7.48Z"/>
  <path class="cls-1" d="M700.46,286.52c-2.45-.58-4.46.58-6.91,5.47-5.18,10.5-8.34,16.54-17.12,16.54l-8.92.14c-10.21,0-12.23-2.01-12.23-6.62v-28.91c0-5.9,3.17-7.05,9.06-7.05h.29c12.51,0,13.52,15.97,21.15,14.39,3.02-.72,4.03-2.01,2.88-7.05l-3.74-18.41c-.58-2.3-1.44-4.17-4.6-4.17-5.32,0-5.18,5.03-15.68,5.03h-.29c-5.9,0-9.06-1.29-9.06-7.05v-13.52c0-4.6,2.01-6.62,11.08-6.62h6.19c9.06,0,15.1,4.6,21.15,13.67,2.45,3.74,4.46,4.89,7.34,3.88,2.73-.86,3.16-3.6,2.3-7.91-1.15-5.9-2.45-10.79-3.88-14.67-1.58-4.46-4.17-5.32-12.66-5.32h-56.68c-6.19,0-8.49,1.15-8.49,4.6,0,8.63,9.93,2.3,9.93,22.15v47.18c0,19.85-9.93,13.52-9.93,22.15,0,3.45,2.3,4.6,8.49,4.6h59.41c8.49,0,10.93-1.87,12.23-6.47,1.15-4.17,2.01-10.07,2.3-18.56.14-4.46-.14-6.62-3.6-7.48Z"/>
  <path class="cls-1" d="M797.71,224.8c-1.15-4.6-3.6-6.47-12.23-6.47h-58.98c-8.49,0-10.93,1.87-12.23,6.47-1.15,4.17-2.01,10.07-2.3,18.56-.14,4.46.72,7.05,3.88,7.05,2.3,0,3.88-1.87,5.47-5.18,5.32-10.36,8.34-15.68,16.97-15.68,4.03,0,5.9,2.01,5.9,5.9v57.97c0,17.55-9.92,13.23-9.92,21,0,3.45,2.3,4.6,8.49,4.6h26.33c6.47,0,8.49-1.15,8.49-4.6,0-7.77-9.64-3.45-9.64-21v-57.97c0-3.88,2.01-6.04,5.75-6.04,8.63,0,11.8,5.47,16.97,15.82,1.73,3.31,3.17,5.18,5.47,5.18,3.17,0,4.03-2.73,3.88-7.05-.29-8.49-1.15-14.38-2.3-18.56Z"/>
</svg>