<?xml version="1.0" encoding="utf-8"?>
<!-- Generator: Adobe Illustrator 30.1.0, SVG Export Plug-In . SVG Version: 9.03 Build 0)  -->
<svg version="1.1" id="Layer_1" xmlns="http://www.w3.org/2000/svg" xmlns:xlink="http://www.w3.org/1999/xlink" x="0px" y="0px"
	 viewBox="0 0 1024 1024" style="enable-background:new 0 0 1024 1024;" xml:space="preserve">
<g>
	<g>
		<g>
			<path d="M56.1155472,896.8039551c-4.4899254,1.4052124-3.9741211,4.4514771-6.9577446,5.4031372
				c-2.441658,0.7788696-4.8118858-0.0680542-7.5931473-5.4420776c-3.6207809-6.9960938-6.6900177-13.0603027-8.8473358-18.8945923
				c-1.4853401-4.0169067-1.4111385-6.7014771,1.3619804-7.5952759c2.7731438-0.8937988,4.3026123,0.5127563,8.5917892,3.9614868
				c6.1522331,5.4818115,17.7933807,13.4170532,33.1597061,8.8608398c8.506424-2.5221558,10.5004196-8.7838745,9.0905685-13.9441528
				c-2.2398911-8.1983032-15.0383606-10.3284302-28.209053-12.5181885
				c-18.2621346-3.0363159-31.4296589-4.7861938-35.9416885-19.8751221
				c-5.5139875-18.4396973,11.7254753-34.2487183,28.3197823-39.0552979
				c7.3696251-2.1346436,14.3871918-2.0420532,17.4411583-2.9142456c3.7801743-1.0795288,3.9417191-3.2886353,7.1483002-4.1871338
				c2.6241226-0.7352905,5.0221634-0.0916138,7.9006271,5.3004761c2.6085968,4.8865967,5.1625519,10.453125,7.0265503,15.9341431
				c1.3776245,4.0507812,0.9780731,6.9311523-2.3104553,7.8429565c-2.4309158,0.6740112-4.6995926-0.8560181-9.0638046-4.2441406
				c-6.6892319-5.0391235-16.5662193-11.039917-26.9584007-7.9372559c-8.0831833,2.413208-11.2391205,8.050354-9.4014549,14.0267334
				c2.3274803,7.569397,10.8695946,9.730896,28.3216858,12.6948242
				c19.1863022,3.2584839,33.1553116,5.4639893,36.8770218,19.9464111
				c4.9158401,19.1294556-12.013916,34.3203125-28.9534225,39.2727661
				C67.0717468,896.3774414,59.5171127,895.7393799,56.1155472,896.8039551z"/>
			<path d="M171.1679688,842.0654907c3.7171173,16.5377197,12.1402283,10.4033203,13.7394714,17.7333984
				c0.710495,3.2564697-0.9914703,4.7536011-7.2108307,6.1466675c-10.1174316,2.2660522-15.1690063,3.4431152-25.2559662,5.8849487
				c-5.9249115,1.4343262-8.3927612,0.911377-9.1948395-2.3237305c-1.8055115-7.2820435,8.7503662-5.5724487,4.7778778-22.0507202
				c-4.3740387-18.1439209-8.7480774-36.2879028-13.1220856-54.4318237
				c-0.8787384-3.6452026-3.2301636-5.0838013-7.3066025-4.0844727
				c-8.7364044,2.1419067-10.5587463,7.9192505-13.3947296,18.9749756c-0.788414,3.5015259-1.9110565,5.6578369-4.2044067,6.2559204
				c-3.1540298,0.8223267-4.6554565-1.3691406-5.6043015-5.5697021c-1.8056641-7.9938965-2.3917618-13.7514038-2.236824-17.9417114
				c0.1712799-4.6327515,2.2128143-7.0632324,10.8488846-9.2510986
				c19.9816437-5.0620117,40.0605469-9.7399292,60.2220306-14.0302124
				c8.8416443-1.8814087,11.6942596-0.5258179,13.7870331,3.5106812c1.9098663,3.6835938,3.9971008,9.1123047,5.9154205,17.0842896
				c0.9754791,4.053772,0.6298523,6.8163452-2.5532837,7.4706421c-2.3145905,0.4758301-4.1255951-0.9934692-6.5209198-3.7566528
				c-7.2713623-8.6972046-11.6259003-13.1818237-20.3977509-11.244751c-3.801651,0.8395386-5.388916,3.3364868-4.5666504,6.9949341
				C162.9823151,805.6464844,167.0751495,823.855957,171.1679688,842.0654907z"/>
			<path d="M202.9362946,814.5852661c-5.6758728-28.6100464,17.34198-57.4572754,45.0435638-62.6831665
				c26.0813599-4.920105,52.2133179,13.3947144,55.6226807,39.9460449
				c3.5958557,28.0043945-17.4735107,55.6338501-45.3136597,59.7415161
				C234.2802429,855.1320801,207.7883301,839.0424194,202.9362946,814.5852661z M282.2045593,806.758606
				c-2.5932922-19.6766968-18.6541138-45.2261963-40.0963593-42.6143188
				c-15.570816,1.8966064-21.5220184,17.2982178-18.4944611,32.4658203
				c3.8524475,19.300415,18.7042084,43.9921875,40.4908752,41.4869385
				C279.469696,836.3301392,284.2427673,822.2237549,282.2045593,806.758606z"/>
			<path d="M316.1223145,794.4472046c-3.3235168-28.1646118,21.0725708-54.8595581,48.8748474-57.3175049
				c9.5638123-0.8455811,15.1564636,1.2264404,18.443634,0.9710083c3.8851013-0.3019409,4.6053467-2.7245483,8.497345-3.0057983
				c2.6939697-0.1947632,4.5753174,0.9481201,6.9284058,6.7544556c2.1383667,5.2765503,4.3040771,11.3441162,6.0635986,19.5075073
				c0.9057617,4.2023926,0.2748718,6.7816162-3.4953613,7.3324585c-3.3370667,0.4876099-4.8262939-1.7573853-8.5431824-6.0829468
				c-7.6016846-8.918457-17.1043701-16.1972656-28.776825-15.21521
				c-17.4689331,1.4696655-26.8361511,17.7897949-24.6745605,34.1395874
				c2.7138062,20.5266724,15.7547607,41.9974976,38.4105225,40.5244751
				c10.2793579-0.668396,18.4725037-5.9498901,25.9200134-14.6713257c3.4526367-4.1343994,8.0157166-0.2478027,6.0299683,4.4736938
				c-5.4960327,14.1801758-24.5039673,24.1679077-38.582489,25.1487427
				C345.604187,838.7908325,319.2540283,820.9862671,316.1223145,794.4472046z"/>
			<path d="M486.5639954,758.2802734c8.2829895,16.560791,16.399231,33.1640625,24.3782654,49.8734741
				c5.9735718,12.5167236,12.7478027,9.9423828,12.6762085,16.8900757
				c-0.0342407,3.3329468-2.0170898,4.4137573-8.0700684,4.3835449c-9.8557434-0.0491333-14.7840271-0.0335693-24.6393433,0.0779419
				c-6.0544434,0.0684814-8.3251648-0.9951172-8.3811951-4.3276367c-0.0911255-5.4186401,8.1394043-6.5126953,4.0216064-15.3477173
				c-6.8760071-14.2427368-10.3920288-21.3452759-17.5794983-35.5083618
				c-7.5351562,7.0251465-11.2603455,10.5606689-18.6252441,17.6748047c0.2047424,5.49823,0.3070984,8.2473145,0.5118408,13.7455444
				c0.6306763,16.9386597,9.9792786,12.4495239,10.2115784,19.9484863c0.1032104,3.3314209-1.833313,4.4920654-8.1658325,4.7230835
				c-10.3011475,0.3758545-15.4506226,0.607605-25.7457581,1.1591797c-6.0481567,0.3239136-8.3627014-0.6428833-8.5593262-3.9700317
				c-0.4425354-7.489502,9.5567932-3.8737183,8.6657715-20.8005981c-0.8375244-15.9091797-1.6749878-31.8182983-2.5124512-47.727417
				c-0.8910828-16.9267578-10.625885-12.2080078-11.0670166-19.6973877
				c-0.1960754-3.3287354,1.8326721-4.5751343,8.5696716-4.9346924c10.9576721-0.5848999,16.4385681-0.8306274,27.4026489-1.2286377
				c6.4402771-0.2337036,8.8721313,0.8151245,8.974762,4.1481323c0.2309265,7.4987793-10.1831055,3.6811523-9.5523987,20.6196289
				c0.2956848,7.9417114,0.4435425,11.9125977,0.7392578,19.8544312
				c11.7753601-11.171814,17.7693787-16.703186,29.9672546-27.6470337
				c8.6073303-7.7957764-2.8243408-8.0073853-2.9268188-13.2846069c-0.0647278-3.3340454,2.0115356-4.4918823,6.6571045-4.5626221
				c8.391449-0.1278687,12.5874634-0.1642456,20.9795837-0.1826782c5.9941406-0.0130615,8.9874573,1.1175537,8.9760437,4.4520264
				c-0.0222168,6.5297241-6.3448486,3.4237671-17.5332031,13.3733521
				C492.1685181,753.291748,490.2937317,754.9508057,486.5639954,758.2802734z"/>
			<path d="M639.809082,813.1317749c-0.5661011,13.1994019,9.4157715,9.9116211,8.6306152,18.3504028
				c-0.3088379,3.3187866-2.3760986,4.2317505-8.5516968,3.6907959c-9.883667-0.8656616-14.8283081-1.2579346-24.7216797-1.9609985
				c-5.9030762-0.4196167-8.0794067-1.6670532-7.8610229-4.9929199c0.5097656-7.7645874,8.6722412-4.4212036,9.4174194-16.9034424
				c0.8389893-15.8192139,1.6680298-31.638916,2.4874878-47.4591064
				c-11.1048584,19.0144653-21.8907471,38.21521-32.3488159,57.5928955c-1.4105835,2.571106-2.7369995,3.612915-6.019165,4.1514282
				c-3.2788696,0.5369873-5.0550537-0.7914429-5.8132324-2.9100342
				c-7.8119507-20.5732422-15.9486694-41.0230103-24.4039307-61.340332
				c-0.9985962,16.9285889-1.9781494,33.8584595-2.9384766,50.7893066c-0.5112305,8.7420654,6.852478,8.949707,6.6993408,13.9501343
				c-0.0978394,3.1937256-2.2310791,3.817749-6.593811,3.7028809c-5.5748291-0.1467285-8.3626709-0.2073364-13.9384155-0.3026733
				c-5.2093506-0.0890503-6.8862305-1.0747681-6.8479004-4.1303711c0.0574951-4.5841064,8.1311035-4.7404785,8.7168579-13.4837036
				c1.3607178-20.0321045,2.760498-40.0615845,4.1995239-60.0882568c0.6447754-9.9928589-8.7614746-8.4883423-8.6668091-15.017334
				c0.0483398-3.3342285,2.3113403-4.4215698,7.8552856-4.3144531c8.0311279,0.1553345,12.0463867,0.2579956,20.0755615,0.5136108
				c3.1462402,0.1000977,5.2018433,1.4240723,6.4512329,4.1113892
				c7.9276733,18.7645874,15.5806885,37.6453247,22.9534302,56.6348877
				c9.9823608-18.0480347,20.2505493-35.9379272,30.796814-53.6622314c1.6865845-2.6679077,3.7214966-3.7786255,6.8607178-3.5472412
				c7.5977783,0.5598145,11.3953247,0.8623657,18.9875488,1.5123291c5.52771,0.4732666,7.8184204,1.8052368,7.5174561,5.1261597
				c-0.5891724,6.5031128-9.7844238,3.8828125-10.1987915,14.0273438
				C641.6553345,775.826355,640.7402344,794.479248,639.809082,813.1317749z"/>
			<path d="M678.2565308,820.5717773c-5.5568848,9.8633423,2.6915894,9.1129761,2.0754395,14.4972534
				c-0.3792114,3.3130493-3.5413208,3.647583-7.4651489,3.217041c-5.2711182-0.5783081-7.9076538-0.855896-13.1824341-1.3878784
				c-4.9084473-0.4949951-7.9160156-1.6143799-7.6123047-4.795166c0.5151978-5.3948975,8.4379883-3.6450806,13.4138184-12.9071045
				c10.3696289-19.0999146,21.0299683-38.0419312,31.9741211-56.8185425
				c5.1028442-8.9014893-3.8126831-9.5442505-3.151123-15.2022705c0.3387451-2.8981934,2.5715942-3.8970337,5.5523682-3.5389404
				c7.3931885,0.8880615,11.0880127,1.3535767,18.4730225,2.3274536c3.1252441,0.4121704,4.8947144,1.9137573,5.855835,4.8485718
				c7.0637207,25.7943726,13.7489014,51.6994019,19.8690796,77.7349243
				c3.046814,12.0067139,8.99646,10.5817261,8.0789185,16.2039185c-0.5368042,3.2895508-2.666626,4.0588379-8.3859253,3.1557007
				c-10.2108765-1.6124268-15.3217163-2.3747559-25.5522461-3.8115234
				c-5.0292358-0.7062378-7.1192017-2.1046753-6.6716309-5.4075928c0.7836304-5.7832031,10.2339478-2.3734131,7.3579102-13.8557739
				c-0.333374-1.336853-0.5004883-2.0050659-0.8358765-3.3417358c-1.2349854-4.659668-1.2310791-4.7553711-18.3258057-6.902771
				c-16.9517822-2.1293335-16.9642334-2.0360718-18.9502563,1.5141602
				C679.7647705,817.8887939,679.2612305,818.7827759,678.2565308,820.5717773z M713.0944824,802.3093872
				c-3.0410156-11.8424072-4.6036377-17.7608643-7.8137207-29.5907593
				c-5.9979858,10.3355103-8.9577026,15.5171509-14.7977295,25.9063721
				c-2.4092407,4.3313599-2.3986816,4.2776489,10.6478271,5.9176025
				C714.0366821,806.164978,714.0349731,806.2192383,713.0944824,802.3093872z"/>
			<path d="M872.4961548,774.1362915c5.2873535,1.2301636,7.0011597,2.5018921,6.2628174,5.6105957
				c-1.0594482,4.4603271-9.1539307,2.8461914-11.1325073,11.3719482
				c-5.4963989,23.68396-10.9926758,47.3678589-16.4890747,71.0518188c-1.0994263,4.7374268-3.1325684,5.9711914-7.276123,5.0266724
				c-4.1451416-0.9447632-5.4574585-3.5108032-4.911438-5.9518433c0.7884521-3.5247803-0.0787964-6.1421509-2.5725098-10.1065063
				c-14.7782593-22.3347168-30.2896729-44.1901855-46.2644043-65.682312
				c-3.0181885,16.9144287-6.0380859,33.8285522-9.0597534,50.7424927
				c-1.5628662,8.6116943,6.1283569,10.0280151,5.2098389,14.9456787c-0.586792,3.1408691-2.7975464,3.4283447-7.2487793,2.6171265
				c-5.4512939-0.9934692-8.1786499-1.4777222-13.6367798-2.4208374c-5.1521606-0.8903198-6.664856-2.1226807-6.1583252-5.1362305
				c0.7599487-4.5210571,8.3719482-3.5046997,9.866272-12.1286621c3.0521851-17.6134033,6.104248-35.2268677,9.1563721-52.8403931
				c3.2735596-18.8911743-7.7713013-14.5681152-6.4003296-22.7902222c0.5485229-3.2891846,3.1069336-4.0007935,9.3306274-2.9283447
				c5.8098145,1.0011597,8.7129517,1.5151978,14.5155029,2.5699463c3.699646,0.6724243,5.4961548,2.5612793,7.7179565,5.3804321
				c14.918335,20.3666382,29.4240723,40.9457397,43.5811768,61.8486328
				c3.3118286-14.8056641,4.9677734-22.2084961,8.2796631-37.0142212
				c1.9105835-8.5412598-6.1376343-10.3198242-5.0708008-15.2073975c0.6814575-3.1216431,3.0379028-3.3233032,7.746582-2.2736816
				C863.7683716,772.1196899,866.6792603,772.7827759,872.4961548,774.1362915z"/>
			<path d="M882.6464844,816.276062c0.6298828-2.5629883,7.7838135-3.795105,9.1328125-9.1860352
				c1.3828735-5.526123-7.3814087-8.5506592-5.2073975-17.4581299c1.7462158-7.1546631,8.7312622-10.3129272,14.7346802-8.7991943
				c7.3206787,1.8459473,12.1150513,7.4121704,9.517395,17.3596802
				c-3.8616943,14.7877197-18.4604492,22.9223022-25.7420044,21.1174927
				C883.3677368,818.8850708,882.3149414,817.6251221,882.6464844,816.276062z"/>
			<path d="M918.6881714,884.5452271c-4.5184937-1.2744751-5.7497559,1.55896-8.7605591,0.727478
				c-2.4616089-0.6798706-3.9776001-2.6826782-3.3665771-8.7024536c0.7954712-7.8370972,1.543335-14.5906372,2.9273071-20.6557617
				c0.9529419-4.1762085,2.4771729-6.3842773,5.2785645-5.6196899c2.8013916,0.7644653,3.3104248,2.7775269,5.010498,8.0078125
				c2.1445923,7.9499512,7.5299072,20.9498291,22.8911743,25.53302c8.5024414,2.5368042,13.6026001-1.6151733,15.2423706-6.706543
				c2.6051636-8.0888062-6.9663696-16.8740234-16.7874146-25.9019165
				c-13.6191406-12.5192871-23.6419678-21.1620483-19.1776733-36.2710571
				c5.4512939-18.449585,28.4760132-22.2918701,44.9942627-17.2476807
				c7.3379517,2.2408447,13.1740723,6.1556396,16.2131958,7.0958252c3.7616577,1.1636963,5.1050415-0.5976562,8.2897949,0.4050293
				c2.6055298,0.8202515,4.2667236,2.6715088,3.7350464,8.7617798c-0.4818115,5.5192871-1.3823853,11.5778809-2.8167114,17.1865845
				c-1.0601196,4.1452637-2.9729614,6.3377686-6.2325439,5.3016968c-2.4124146-0.7667847-3.4795532-3.2893066-5.289978-8.5139771
				c-2.8562622-7.87854-7.8622437-18.3060913-18.2583008-21.3866577
				c-8.0877686-2.3964844-13.8023071,0.6021118-15.5294189,6.6113892c-2.187561,7.6109619,3.7644653,14.0837402,16.772644,26.107666
				c14.3014526,13.2192383,24.8503418,22.7250977,20.0480957,36.8796387
				c-6.3480835,18.7106323-28.8796387,22.1529541-45.7785034,17.0431519
				C928.0735474,890.1707764,922.1123047,885.5108643,918.6881714,884.5452271z"/>
		</g>
	</g>
	<g>
		<path d="M361.1050415,915.0910645c4.8630371,0,7.9186401,0.8331909,7.9186401,4.0281982
			c0,5.4190674-8.0580139,4.4464111-11.5302429,14.4481201l-25.2845459,73.9083862
			c-0.6954041,2.0845947-2.2224121,4.1676025-8.7518616,5.1401978c-7.3641968,1.2514038-9.5866394,0.4182129-10.5592346-2.6390381
			l-18.338501-54.4594727l-17.5036926,52.0976562c-0.6954041,2.0846558-2.2224121,4.0282593-8.7518311,5.0008545
			c-6.8082275,0.9725952-9.0306702,0.4182129-10.1426697-2.6390381l-26.6737213-76.1307983
			c-3.6116333-10.4198608-10.2804565-9.1700439-10.2804565-14.5874634c0-3.4738159,2.5012054-4.1676025,6.5294342-4.1676025
			h25.2845306c4.3070221,0,6.8082123,0.9725952,6.8082123,4.1676025c0,5.4174194-7.224823,4.5842285-3.8903961,14.7252808
			l17.0870819,52.2370605l16.39328-46.1242065l-1.8057861-6.112854
			c-3.3344116-10.5576782-10.0016785-9.3078613-10.0016785-14.7252808c0-3.4738159,2.3618164-4.1676025,6.5294495-4.1676025
			h25.2845154c4.3054504,0,6.8066406,0.9725952,6.8066406,4.1676025c0,5.4174194-7.2232361,4.5842285-4.1676025,14.7252808
			l15.8372803,51.4038696l17.2264709-51.8204346c3.6132202-10.8364868-4.0282288-9.0290527-4.0282288-14.4481201
			c0-3.3344116,3.0556335-4.0281982,6.9460449-4.0281982H361.1050415z"/>
		<path d="M377.3605347,994.0002441c-4.3070374,10.4198608,3.6116028,8.7518921,3.6116028,14.1708984
			c0,3.3344116-3.055603,4.0281982-6.9460449,4.0281982h-13.0588684c-4.8614197,0-7.9186401-0.8331909-7.9186401-4.0281982
			c0-5.4190063,7.9186401-4.4464111,11.809082-14.1708984l24.3119202-60.0162964
			c3.7510071-9.4456177-4.5842285-9.0290527-4.5842285-14.7252808c0-2.9177856,1.9451904-4.1676025,4.7236328-4.1676025h17.2264709
			c2.9178162,0,4.7236328,1.2498169,5.9734497,4.0281982l29.3127441,74.0477905
			c4.7236328,11.3924561,10.2804565,9.0306396,10.2804565,14.7268677c0,3.3328247-1.943634,4.4448242-7.6398621,4.4448242
			h-25.4239197c-5.000824,0-7.2232361-1.1119995-7.2232361-4.4448242c0-5.8356323,9.5850525-3.7510376,5.2780457-14.7268677
			l-1.2498169-3.1950073c-1.8058167-4.4464111-1.8058167-4.4464111-18.4779053-4.4464111
			c-16.5310974,0-16.5310974,0-18.0596924,3.7510376L377.3605347,994.0002441z M408.6184998,971.6335449l-10.9742737-28.3401489
			l-10.9758606,27.506958c-1.8058167,4.5842285-1.8058167,4.5842285,10.8364563,4.5842285
			C410.0076904,975.3845825,410.0076904,975.3845825,408.6184998,971.6335449z"/>
		<path d="M531.8469238,988.1662598c-0.2788086,8.1958008-1.1119995,13.8920288-2.223999,17.9202881
			c-1.1119995,4.4464111-3.472229,6.2521973-11.8074951,6.2521973H465.71698c-5.9734192,0-8.1958313-1.1119995-8.1958313-4.4448242
			c0-8.336792,9.5850525-2.223999,9.5850525-21.3956909v-46.6786499c0-16.9492798-9.3078613-12.7816772-9.3078613-20.2836914
			c0-3.3344116,1.9452209-4.4448242,8.1974487-4.4448242h25.4223328c5.9750061,0,8.1974182,1.1104126,8.1974182,4.4448242
			c0,7.5020142-9.5866394,3.3344116-9.5866394,20.2836914v56.2653198c0,4.3070068,1.9452209,6.2506104,10.1426392,6.2506104
			l5.0008545-0.1378174c8.4746399,0,11.6704407-5.8356323,16.5334778-15.9766846
			c2.3602295-4.7236328,4.3054199-5.8356323,6.8050537-5.2796021
			C531.7075195,981.7745972,531.9863281,983.8591919,531.8469238,988.1662598z"/>
		<path d="M613.1179199,988.1662598c-0.2787476,8.1958008-1.1119995,13.8920288-2.223999,17.9202881
			c-1.1119995,4.4464111-3.472229,6.2521973-11.8074341,6.2521973h-52.0992432
			c-5.9718628,0-8.1958618-1.1119995-8.1958618-4.4448242c0-8.336792,9.5866089-2.223999,9.5866089-21.3956909v-46.6786499
			c0-16.9492798-9.3078003-12.7816772-9.3078003-20.2836914c0-3.3344116,1.9451904-4.4448242,8.1958008-4.4448242h25.4239502
			c5.9750366,0,8.1958618,1.1104126,8.1958618,4.4448242c0,7.5020142-9.5866699,3.3344116-9.5866699,20.2836914v56.2653198
			c0,4.3070068,1.9451904,6.2506104,10.1442261,6.2506104l4.9992676-0.1378174
			c8.4746094,0,11.6712646-5.8356323,16.5342407-15.9766846c2.3602295-4.7236328,4.305481-5.8356323,6.8050537-5.2796021
			C612.9785156,981.7745972,613.2573242,983.8591919,613.1179199,988.1662598z"/>
		<path d="M699.6669922,988.1662598c-0.2787476,8.1958008-1.1119995,13.8920288-2.2208252,17.9202881
			c-1.2514038,4.4464111-3.6148071,6.2521973-11.8106079,6.2521973h-57.3773193
			c-5.9718628,0-8.1958618-1.1119995-8.1958618-4.4448242c0-8.336792,9.5866699-2.223999,9.5866699-21.3956909v-45.5666504
			c0-19.1716919-9.5866699-13.0604248-9.5866699-21.3956909c0-3.3344116,2.223999-4.4448242,8.1958618-4.4448242h54.7382812
			c8.1958618,0,10.6986084,0.8331909,12.225647,5.1401978c1.3876343,3.7510376,2.6390381,8.4746704,3.7510376,14.1708984
			c0.8331909,4.1676025,0.4150391,6.8066406-2.223999,7.6398315c-2.7784424,0.9725952-4.7236328-0.1378174-7.0838623-3.7510376
			c-5.8356323-8.7518311-11.6712646-13.1982422-20.4215088-13.1982422h-5.9750366
			c-8.753418,0-10.6986084,1.9451904-10.6986084,6.3916016v13.0588989c0,5.5568237,3.0571899,6.8066406,8.753418,6.8066406
			h0.2788086c10.1410522,0,10.0016479-4.8614502,15.1434326-4.8614502c3.0540771,0,3.8872681,1.8058472,4.4448242,4.0282593
			l3.6116333,17.7824707c1.1119995,4.8630371,0.1394043,6.112854-2.7783813,6.8082275
			c-7.3626709,1.5270386-8.3352661-13.8936768-20.4215088-13.8936768h-0.2788086c-5.696228,0-8.753418,1.1119995-8.753418,6.8082275
			v27.923584c0,4.4464111,1.9451904,6.3900146,11.8106079,6.3900146l8.6140747-0.1378174
			c8.4746094,0,11.5286865-5.8356323,16.5310669-15.9766846c2.3602295-4.7236328,4.3054199-5.8356323,6.6688232-5.2796021
			C699.5275879,981.7745972,699.8063965,983.8591919,699.6669922,988.1662598z"/>
		<path d="M761.3497314,987.6102295c0,16.9492798,9.3078613,12.7816772,9.3078613,20.2836914
			c0,3.3328247-1.9420776,4.4448242-8.1958618,4.4448242h-25.4239502c-5.9718018,0-8.1958008-1.1119995-8.1958008-4.4448242
			c0-7.5020142,9.5866089-3.3344116,9.5866089-20.2836914v-55.9880981c0-3.7509766-1.8057861-5.6946411-5.696228-5.6946411
			c-8.3352661,0-11.2530518,5.1402588-16.3948364,15.1419067c-1.5270386,3.1950073-3.0540771,5.0024414-5.2780762,5.0024414
			c-3.0571899,0-3.8903809-2.5012207-3.7510376-6.8082275c0.2788086-8.1958618,1.1120605-13.8920898,2.2240601-17.921936
			c1.2481689-4.4448242,3.6115723-6.2506104,11.8074341-6.2506104h56.9591064
			c8.3352661,0,10.6986694,1.8057861,11.8106689,6.2506104c1.1088257,4.0298462,1.9451904,9.7260742,2.2208252,17.921936
			c0.1394043,4.1676025-0.6938477,6.8082275-3.7510376,6.8082275c-2.2208252,0-3.6116333-1.8074341-5.2780151-5.0024414
			c-5.0024414-10.0016479-8.0564575-15.281311-16.3948975-15.281311c-3.6116333,0-5.5568237,2.0830688-5.5568237,5.8340454
			V987.6102295z"/>
	</g>
</g>
<path d="M588.9360962,604.6984253l1.0825195-0.2843628c1.5481567-0.4066162,2.8299561-1.4778442,3.4958496-2.9334717
	c1.2954102-2.8317261,4.4135132-11.5437622,4.8183594-14.5808105c0,0,0.9054565-5.7333374,1.2070312-7.2425537
	c0.6037598-3.6207886,1.5087891-6.9399414,2.7160034-10.2600708c1.810791-5.1300049,3.6212769-10.5616455,5.1298828-15.9923706
	c1.1468506-3.8815918,8.6420898-22.543335,18.7036743-47.163147c5.4605103-13.3612366,11.6768188-28.4772644,18.0444946-43.9379883
	c3.6911621-8.9621277,7.4331665-18.0400391,11.1082764-26.959137c2.6769409-6.4966125,5.3184204-12.9089661,7.8788452-19.1308899
	c5.2262573-12.6997375,46.4094849-119.0233154,50.5739136-129.2337036
	c7.7141113-18.9137878,12.9425659-32.0079803,13.225708-33.5451508c1.1647949-6.3230438,13.1598511,2.9288483,26.9060669,2.6282806
	c8.4295044-0.1843109,17.5175171-3.9607697,25.1704102-17.1237335c1.3253784-2.2797089,3.2212524-7.7846222-12.0795898-15.8377075
	c-5.8344116-3.070694-8.2261353-1.5285187-9.6636353,0.2684631c-4.2949829,5.3686676-11.9439697,4.4118958-14.4115601,3.0688324
	c-9.668457-5.262558-16.9333496-7.6483765-22.3848267-8.1222839c-2.3951416-0.689209-14.3207397-3.2489624-18.1071777,3.5434875
	c-1.257019,2.2549438-1.6777344-1.1408539-9.0997314,21.4093628c-3.2067871,9.7432251-8.8237305,16.9612122-12.1066895,25.365509
	c-0.3463745,0-44.9098511,117.73349-55.4523315,142.9443054c-4.2778931,10.230072-8.9321289,19.3087463-13.4570312,30.1915588
	c-4.7843018,11.5067139-9.4295044,24.7965088-13.5393066,34.7104797
	c-7.4494629,17.9700012-12.9882202,31.3626404-13.7069092,33.069458c-2.213501,5.312561-6.6591187,8.2300415-11.7888184,9.2437134
	c-8.8557739,1.75-19.7501831-2.1739502-24.7183838-9.2437134c-2.7156372-3.9228516-14.6296997-17.4483032-16.2403564-34.6281738
	c-1.6105957-17.1798706-1.0401611-37.6131897-1.0401611-37.6131897c0-1.8556824,1.2307739-3.5193176,3.0300293-3.9733887
	c1.4558716-0.3674316,2.850708-0.8154602,4.1634521-1.3624573c14.4155273-6.0068665,30.5390015-20.2224731,41.1938477-36.0602417
	l2.5125732-4.6665039c5.7438965-7.1792908,8.6154175-15.43573,9.6920776-24.7688599l1.4359741-7.1792603
	c0-0.3589172,0-1.0772095,0-1.7949524c0-10.0509033-2.87146-23.3327637-3.5899048-24.7688904l-5.743042-13.6407776
	c-2.8716431-11.486969-15.0769043-13.6401978-22.973938-20.4605713
	c-10.0509644-6.8204041-25.1278687-16.8718262-36.2557983-21.1795349
	c-5.7432251-2.1538086-10.409668-8.6147766-16.1536255-11.1280212l-8.2558289-5.3843384
	c0.7176819,0.7177734-20.8199463-11.8458099-20.8199463-25.4865723c0-2.8716736-1.7951355-0.7177734-1.7951355-5.0254974
	c0-5.3848572,3.5893555-15.076828,8.256012-21.8972168c8.9742737-10.0509033,26.5636902-12.2047272,26.2048645-12.2047272
	c22.2462769,0,31.786438,11.4816589,41.104187,18.4585114c3.3935547,3.7786865,8.6282959,8.3522644,17.2108154,4.6057892
	c3.2488403-0.9228516,6.6691895-2.8944855,8.8114624-6.0027771c2.2367554-2.0081787,4.6309204-4.4749146,7.2105103-7.5249481
	c2.6464233-3.1290131,10.6987915-14.47966,11.4399414-16.5626373c1.8084106-5.0833435-9.029541-15.7866211-13.5748901-16.5096741
	c-6.9911499-1.1121063-12.203125,6.3487854-14.4717407,8.0059509l-0.0297852,0.0217743
	c-1.6707153,1.2195892-3.9299316,1.1755524-5.5889893-0.0598145c-5.7478638-4.280014-11.661438-7.2715454-15.4967041-8.1238403
	c-7.1792603-1.4360657-15.4191895-4.3999023-15.4191895-10.8614349c0-0.5688324-0.3933105-14.2829742-0.7647705-27.3057251
	c-0.0452881-1.5888214,1.251709-2.8878174,2.840332-2.8362427c1.7060547,0.0553741,3.5300903,0.0870361,5.5279541,0.0870361
	c0.5291748-0.5291748,1.5869141-0.5291748,2.6452637-0.5291748c11.3768921,0,28.9711914,1.4552155,46.7639771,4.1009979
	s35.7840576,6.482132,47.9546509,11.2443695l12.1703491,3.7042084c1.8243408,0.5212555,12.4119263,3.5664825,27.6901855,6.9385071
	c3.9152832,0.8641357,8.1385498,1.7497101,12.6013184,2.6197968c12.8562622,2.5064697,28.989624,6.0652771,44.1824341,7.4302673
	c12.1550293,1.0920715,23.2440186,0.3547974,35.0067749-0.3022919c9.1690063-0.512207,19.7836914-3.2703705,27.8070679-5.3348389
	c10.3634033-2.6665955,17.0099487-6.6053162,24.5257568-13.6184845
	c5.8227539-5.4333496,12.4295044-12.7967529,17.5515137-19.3990784c5.7103882-7.3607407,9.1572876-15.5798569,12.84198-25.4304352
	c2.0718994-5.538826,4.7538452-11.7630157,6.0827026-17.4521103c1.0344849-4.4287415,6.7033081-27.2684212,7.2477417-31.5411606
	c1.2930298-10.1470871,1.2078857-23.1650429,2.147522-31.675375c1.2523193-11.3429794-22.1459351-12.0795927-22.9512329-6.4424496
	c-1.7269897,12.0887814-3.5988159,29.7153549-8.7241821,41.3390503c-2.6219482,5.9463234-10,23.9437752-13.0385742,29.6721992
	c-6.449646,12.1590118-14.2592163,23.3334045-25.2178345,31.4271698c-5.2085571,3.8469391-6.2505493,5.7262039-12.7462769,8.0898514
	c-8.6157227,3.1350403-23.2061768,6.1225128-34.4346313,5.9055328c-10.9325562-0.2112579-15.1865845-2.3029175-21.8026123-3.5567322
	c-7.6054077-1.4412994-17.0881348-2.147728-22.6828003-3.8251953c-5.9249878-1.7765198-11.8467407-2.4366226-20.0529175-4.4092865
	c-12.0184326-2.8890991-20.6485596-4.7488785-28.5565186-6.7585144c-7.0252686-1.7853165-13.4805298-3.6889038-21.2352295-6.5375137
	c-10.5773926-2.1155472-16.6912231-3.2913513-30.3945312-6.188591c-6.8627319-1.4509506-15.6289062-3.3336487-27.812561-5.9823456
	c-2.1166382-0.5291672-26.9865112-3.703598-27.515686-3.1744308c-5.291748-0.5291672-10.0536499-1.5875168-14.8162231-1.5875168
	l-8.4667358-1.058342h-29.1032104c-5.2917175,0.5291748-16.403717,0.5291748-30.1615906,3.7036057l-17.4620361,2.6458588
	c-2.3686523,0-19.8520813,4.6704636-41.6890869,10.7010422c-10.9958191,3.036644-23.0954895,6.4181442-34.9251099,9.7218552
	c-6.6651306,1.8614044-13.2445068,3.6981125-19.4924316,5.4345322
	c-31.032074,8.6244125-27.9910889,10.2075119-47.2110901,10.7374039c-5.1575623,0.1421967-20.373291-0.0163116-28.1610718,0.1341705
	c-15.6279602,0.3019867-27.6934814-0.1696777-38.4109039-6.0397491
	c-8.4207153-4.6121368-16.3304443-13.660141-22.3100281-20.8241806
	c-5.6468201-6.7653656-10.3209534-14.4217453-14.2411499-22.5028915
	c-3.7357178-7.7008438-6.7867737-15.7874146-9.3424683-23.8562279c-4.4994202-14.2055359-6.9425201-30.4446507-9.4040375-42.3383408
	c-1.6882782-8.157465-23.2262115-7.7350149-24.1591949,0.3355427c-0.4408417,3.8135395,0.0844116,10.1674728,0.4026642,16.5087776
	c0.3393707,6.7621765,1.8020782,12.3498001,3.2212219,20.9379578c1.4798279,8.9554405,4.74823,21.4665031,7.6504059,31.205616
	c4.3233185,14.5081635,11.9366913,28.760025,20.1165466,41.6177368c3.3312073,5.2362747,7.016983,10.1675034,11.0855865,14.6567001
	c4.6438599,5.1239471,8.4799957,11.0924072,14.1634521,14.8609314c4.6403656,3.0769043,10.9477692,4.2137299,16.3320923,6.1404266
	c5.1567841,1.8452606,11.0296783,3.2341156,17.426651,4.2113342c7.9302216,1.211441,23.6381073,3.0384369,32.8132172,3.0700073
	c9.7599792,0.0335999,13.0450439-1.8002014,23.3592529-2.90242c9.0429077-0.9663391,12.6358643-0.7750397,21.4694519-2.4662781
	c6.1842346-1.1840057,17.7381287-4.0833893,23.5724792-5.5650024c7.2380676-1.8380585,14.12854-3.8868713,20.4769287-6.1010742
	c10.6909485-4.1923828,22.6275024-7.6374664,33.2107849-10.2693939c16.132019-4.0118256,29.1197205-6.1343079,29.7588196-6.1343079
	h5.820282l8.4667358-2.1166992c6.7282715-1.7363892,13.634613-2.9386139,20.2442932-3.7527618
	c9.5048828-1.1707458,18.3963013-1.5389404,25.2626343-1.5389404h0.0579529
	c2.9562683-0.0000458,5.3610535,2.3835144,5.3829956,5.3397064c0.0810547,10.9198761,0.3989563,21.9662628,0.6018066,26.4292908
	c0,5.0254059-11.5714417,7.6741638-19.8280334,11.9818115c-11.486969,6.1026306-10.7691345,11.1281128-22.9738464,22.6150665
	c-5.0254822,9.6919708-10.7691956,17.5895691-10.7691956,30.5119934c0,21.1789246,6.4614868,27.2815552,8.9742126,32.6658783
	c6.8204041,10.0514221,16.8712158,24.4099731,27.9993286,27.6404724c3.5898132,3.9487915,18.307251,11.846405,20.4612427,12.2052612
	c29.0763855,20.8200684,56.3579407,32.3070374,56.3579407,53.8448181c0,19.384552-7.897583,35.5380554-30.871521,43.0761414
	c-5.743042,1.0766907-16.8711548,3.5894165-17.9478149,3.5894165c-14.0002136,0-30.1536865-6.4609985-36.9741211-16.1535034
	c-2.871521-3.5893555-6.4610291-16.5123596-10.7686768-20.4611816l-2.5126648-2.871582
	c-0.1420898-0.2289734-0.2852783-0.4516907-0.4294434-0.6684265c-0.9400635-1.4132996-1.3084412-3.0936584-1.3243103-4.7909546
	c-0.0122681-1.3088684-0.387207-2.6916504-1.2971802-4.1156616c-3.4886169-5.4593506-9.417572-22.2851562-36.1878357-0.6839905
	c-3.18927,2.5735168-13.2387695,12.2009277-14.3595276,14.10672c-2.7350464,4.6508179,5.8886719,17.2067261,10.2159424,18.7743835
	c6.6557312,2.4113159,13.1818542-3.9321594,15.7224121-5.1315308c0.617157-0.2913513,1.219635-0.5817261,1.8083191-0.8712158
	c1.6329956,4.188385,3.8003235,7.9436646,5.0316162,9.5855408l6.4609375,12.5636597
	c2.5127563,5.0253906,20.5804749,21.5445557,35.8812561,27.9869995c4.1656494,1.7539673,8.9434814,3.3768311,13.9785156,4.6964111
	c1.8074951,0.4736633,3.0671082,2.1097412,3.0671082,3.9783325c0,0,2.6508484,11.5585938-0.5704041,37.3283691
	c-1.0474548,8.3797302-3.3890686,15.3292847-6.3530579,21.1454773
	c-6.1510315,12.0701599-14.9825134,19.2592773-20.4904785,24.2200928
	c-7.6000671,6.8450928-14.6313477,5.7789307-20.6720581,1.2283936
	c-10.0678711-7.5841675-17.3840942-24.8469849-19.9958801-31.2931519
	c-3.6511841-9.0113831-9.1080627-26.8573608-19.1931458-50.532959
	c-4.0181274-9.4328918-10.5925293-20.9526367-15.2972107-31.4333496
	c-3.8884888-8.6625061-7.9789124-17.5583191-12.2174072-26.4815674
	c-5.8720093-12.3623047-44.53302-110.6716919-48.1199646-120.1534424
	c-3.9143982-10.3473511-8.5705261-18.8414459-11.3455811-25.2168884
	c-3.3631592-7.7264862-6.4958191-12.3286438-10.8674316-13.3035736c-5.0878601-1.1346741-10.355835-0.0210419-22.7499084,5.0331573
	c-5.8175964,2.3723907-17.9639587,6.1843109-19.9984436,6.7108765c-11.4085083,2.9527893-9.4624023-8.3214874-14.6297302-6.1740112
	c-8.9855347,3.7341766-24.8086243,5.5891418-22.8070831,10.3683167
	c2.7325134,6.5245514,11.5953522,17.2149811,17.3712769,21.6426086c2.8800812,2.2078247,11.3314362,3.590271,19.7871246,0.973053
	c10.9187317-3.3795776,20.982666-8.7108765,22.4815063-2.4159241c0.1748657,0.734314,38.2518311,92.9146118,41.7405701,100.8204956
	c2.9402771,6.6630859,6.8643799,15.4540405,11.4466248,25.6663818c5.815033,12.9597473,12.6900024,28.2085266,19.9595032,44.3024902
	c7.6720581,16.9851379,15.7835693,34.9116211,23.5523071,52.0821838
	c10.3641968,22.907074,20.1183777,44.4687805,27.4052734,60.6551819
	c7.4332275,16.5114136,12.2991028,27.4295044,12.6263123,28.4766235c1.2070923,3.6217041,2.1120605,7.2425537,2.7158813,11.1647949
	c0.3015747,1.2078247,3.4411621,10.5927734,3.4411621,10.5927734c0.9814453,2.8357544,3.0127258,7.4942017,4.2408752,11.1034546
	c0.8970032,2.6360474,3.4711914,4.3267212,6.2503357,4.1546021l18.6350403-1.1542358
	c2.7384033-0.1696167,4.9962769-2.1260986,5.6587524-4.7885132c0.4154968-1.6699829,1.0506287-3.2879639,1.8634033-4.8237915
	c1.0595398-2.0021362,1.8465881-4.166626,2.1560669-6.3335571c0.6037292,0,3.6212463-12.6729736,4.5265808-15.0872192
	c2.4137878-5.4317627,4.2247009-11.164917,6.3366394-16.8982544c3.0177917-8.2984009,7.2139893-21.0757446,14.5780945-28.1658325
	c4.418457-4.2540283,9.977356-6.4606934,17.1063843-4.4240112c6.1106567,1.6975098,10.6087036,5.3468018,14.098938,9.977356
	c5.8170166,7.7176514,8.8345337,18.1609497,11.8522339,26.8364258c0.6035156,1.961731,4.1947632,10.7467651,7.7232056,19.6704712
	c2.6437378,6.6861572,4.1696777,17.3583984,5.4597168,21.3886108c0.5709839,1.7836304,2.2814941,2.9512329,4.1521606,2.8612671
	L588.9360962,604.6984253z"/>
</svg>
