<?xml version="1.0" encoding="utf-8"?>
<!-- Generator: Adobe Illustrator 30.1.0, SVG Export Plug-In . SVG Version: 9.03 Build 0)  -->
<svg version="1.1" id="Layer_1" xmlns="http://www.w3.org/2000/svg" xmlns:xlink="http://www.w3.org/1999/xlink" x="0px" y="0px"
	 viewBox="0 0 1024 1024" style="enable-background:new 0 0 1024 1024;" xml:space="preserve">
<g>
	<g>
		<path style="fill:#CCC2B8;" d="M79.7927399,812.4391479c-4.3974609,0-4.796875,2.9316406-7.7285156,2.9316406
			c-2.3989258,0-4.2641602-1.4648438-5.1972656-7.1953125c-1.1992188-7.4628906-2.1318359-13.859375-2.3984375-19.8554688
			c-0.1333008-4.1308594,0.6665039-6.5292969,3.331543-6.5292969s3.5976562,1.7324219,6.3959961,6.1289062
			c3.8642578,6.796875,11.9931641,17.4570312,26.9174805,17.4570312c8.2617188,0,11.5932617-5.1972656,11.7265625-10.3945312
			c0-8.2617188-10.6606445-13.4589844-21.5874023-19.1875c-15.190918-7.8632812-25.5849609-13.0585938-25.5849609-28.5175781
			c0-15.5898438,14.9248047-27.7167969,34.246582-27.7167969c6.7958984,0,12.6591797,2,15.4575195,2
			c3.4648438,0,4.1308594-2,7.0625-2c2.3989258,0,4.2641602,1.1992188,5.4633789,6.9296875
			c1.0664062,5.1972656,1.9990234,10.9257812,2.265625,16.5234375c0.2666016,4.1308594-0.7998047,6.6621094-3.8642578,6.6621094
			c-2.265625,0-3.8647461-1.9980469-6.7963867-6.2617188c-4.5302734-6.3964844-11.4599609-14.5253906-21.0541992-14.5253906
			c-7.4624023,0-11.5932617,4.2636719-11.5932617,10.2597656c0,7.5957031,6.6630859,11.9941406,21.0541992,19.4570312
			c15.8574219,8.1269531,27.4506836,13.4570312,27.4506836,27.9824219
			c0.1333008,18.2558594-17.5893555,28.6503906-35.8457031,28.6503906
			C89.6535797,815.2379761,83.1242828,812.4391479,79.7927399,812.4391479z"/>
		<path style="fill:#CCC2B8;" d="M196.391861,790.3180542c0,16.2578125,8.9277344,12.2597656,8.9277344,19.4570312
			c0,3.1972656-1.8652344,4.2636719-7.8618164,4.2636719h-24.3857422c-5.7299805,0-7.8623047-1.0664062-7.8623047-4.2636719
			c0-7.1972656,9.1948242-3.1992188,9.1948242-19.4570312v-53.7011719c0-3.5976562-1.7324219-5.4628906-5.4633789-5.4628906
			c-7.9951172,0-10.7939453,4.9296875-15.7241211,14.5253906c-1.4658203,3.0644531-2.9316406,4.796875-5.0639648,4.796875
			c-2.9311523,0-3.730957-2.3984375-3.5976562-6.5292969c0.2666016-7.8632812,1.065918-13.3261719,2.1323242-17.1914062
			c1.1992188-4.2636719,3.4643555-5.9960938,11.3266602-5.9960938h54.6342773
			c7.9956055,0,10.2607422,1.7324219,11.3266602,5.9960938c1.065918,3.8652344,1.8657227,9.328125,2.1323242,17.1914062
			c0.1333008,3.9960938-0.6665039,6.5292969-3.5981445,6.5292969c-2.1318359,0-3.4643555-1.7324219-5.0634766-4.796875
			c-4.7973633-9.5957031-7.7290039-14.6582031-15.7241211-14.6582031c-3.4648438,0-5.3300781,1.9980469-5.3300781,5.5957031
			V790.3180542z"/>
		<path style="fill:#CCC2B8;" d="M230.2385406,770.8629761c0-28.3828125,21.4541016-51.4355469,49.9706879-51.4355469
			c26.7841797,0,44.2407227,19.8554688,44.2407227,45.7070312c0,28.515625-21.0541992,50.2363281-49.8374023,50.2363281
			C249.6941071,815.3707886,230.2385406,797.1149292,230.2385406,770.8629761z M303.1291504,776.4606323
			c0-21.7207031-11.4599609-46.3730469-29.8491211-46.3730469c-14.6582031,0-21.4540863,12.5253906-21.4540863,27.5839844
			c0,21.453125,11.3266449,45.8398438,30.2490082,45.8398438
			C297.2658691,803.5114136,303.1291504,791.6520386,303.1291504,776.4606323z"/>
		<path style="fill:#CCC2B8;" d="M335.5109863,769.1305542c0-27.3164062,21.4541016-49.703125,49.3046875-49.703125
			c8.5283203,0,13.3251953,2.3984375,16.2568359,2.3984375c3.4648438,0,4.2641602-2.265625,7.7290039-2.265625
			c2.3984375,0,3.9975586,1.1992188,5.7299805,6.9296875c1.5991211,5.1972656,3.0649414,11.0605469,4.2641602,19.0546875
			c0.5327148,4.1308594-0.1333008,6.5292969-3.5981445,6.796875c-3.0649414,0.265625-4.2641602-2-7.3291016-6.3964844
			c-6.2626953-9.0605469-14.125-16.7910156-24.6518555-16.7910156c-15.7241211,0-25.1855469,12.6601562-25.1855469,30.25
			c0,22.2539062,11.1938477,42.2421875,31.7148438,42.2421875c9.8608398,0,17.7231445-4.265625,25.1850586-12.1269531
			c3.4648438-3.7304688,7.4624023,0.2675781,5.3305664,4.6640625c-5.4638672,12.2597656-20.5214844,21.1875-37.9780273,21.1875
			C355.3659668,815.3707886,335.5109863,797.9137573,335.5109863,769.1305542z"/>
		<path style="fill:#CCC2B8;" d="M492.6179199,745.6793823l22.1201172,47.9707031
			c5.5966797,11.9921875,11.9931641,9.4609375,11.9931641,16.125c0,3.1972656-1.8652344,4.2636719-7.5957031,4.2636719h-23.3193359
			c-5.7299805,0-7.8623047-1.0664062-7.8623047-4.2636719c0-5.1972656,7.7290039-6.1308594,3.9975586-14.6582031
			l-15.5908203-34.3808594l-17.5893555,16.390625v13.1914062c0,16.2578125,8.9282227,12.2597656,8.9282227,19.4570312
			c0,3.1972656-1.8657227,4.2636719-7.8623047,4.2636719H435.451416c-5.7299805,0-7.8618164-1.0664062-7.8618164-4.2636719
			c0-7.1972656,9.1943359-3.1992188,9.1943359-19.4570312v-45.8398438c0-16.2558594-8.9277344-12.2578125-8.9277344-19.4550781
			c0-3.1972656,1.8652344-4.2636719,7.8618164-4.2636719h24.3857422c5.7299805,0,7.8618164,1.0664062,7.8618164,4.2636719
			c0,7.1972656-9.1943359,3.1992188-9.1943359,19.4550781v19.0566406l27.8500977-25.71875
			c7.8623047-7.328125-2.3984375-7.7285156-2.3984375-12.7929688c0-3.1972656,1.8657227-4.2636719,5.996582-4.2636719h18.6557617
			c5.3295898,0,7.9946289,1.0664062,7.9946289,4.2636719c0,6.2636719-5.5961914,3.3320312-15.7236328,12.7929688
			L492.6179199,745.6793823z"/>
		<path style="fill:#CCC2B8;" d="M635.0681152,792.9840698c0.5332031,12.6582031,9.5947266,8.6621094,9.5947266,16.7910156
			c0,3.1972656-1.8662109,4.2636719-7.7285156,4.2636719h-23.453125c-5.5966797,0-7.7285156-1.0664062-7.7285156-4.2636719
			c0-7.4628906,7.8613281-4.7988281,7.7285156-16.7910156l-0.7998047-45.5742188l-26.5175781,57.0332031
			c-1.1992188,2.5332031-2.3984375,3.5996094-5.4638672,4.265625c-3.0644531,0.6660156-4.796875-0.5332031-5.5966797-2.5332031
			l-24.5185547-57.9648438l-1.4658203,48.7714844c-0.2666016,8.3945312,6.6630859,8.3945312,6.6630859,13.1914062
			c0,3.0644531-1.9990234,3.7324219-6.1298828,3.7324219h-13.1923828c-4.9306641,0-6.5292969-0.9335938-6.5292969-3.8652344
			c0-4.3984375,7.5957031-4.6640625,7.9951172-13.0585938l2.7978516-57.6992188
			c0.4003906-9.5957031-7.9951172-7.9960938-7.9951172-14.2597656c0-3.1972656,1.9990234-4.2636719,6.9296875-4.2636719h17.8554688
			c2.7988281,0,4.6640625,1.1992188,5.8632812,3.7324219l23.0537109,53.3007812l24.9189453-53.1679688
			c1.3320312-2.6660156,3.0644531-3.8652344,5.8623047-3.8652344h16.9238281c4.9306641,0,7.0625,1.0664062,7.0625,4.2636719
			c0,6.2636719-8.3955078,4.53125-7.9951172,14.2597656L635.0681152,792.9840698z"/>
		<path style="fill:#CCC2B8;" d="M671.4470215,796.4489136c-4.1308594,9.9941406,3.4638672,8.3945312,3.4638672,13.5917969
			c0,3.1972656-2.9316406,3.8652344-6.6621094,3.8652344h-12.5263672c-4.6640625,0-7.5957031-0.8007812-7.5957031-3.8652344
			c0-5.1972656,7.5957031-4.2636719,11.3271484-13.5917969l23.3193359-57.5664062
			c3.5976562-9.0605469-4.3974609-8.6621094-4.3974609-14.125c0-2.7988281,1.8662109-3.9980469,4.53125-3.9980469h16.5234375
			c2.7978516,0,4.5302734,1.1992188,5.7294922,3.8652344l28.1171875,71.0234375
			c4.5302734,10.9277344,9.8603516,8.6621094,9.8603516,14.1269531c0,3.1972656-1.8652344,4.2636719-7.328125,4.2636719H711.423584
			c-4.7978516,0-6.9296875-1.0664062-6.9296875-4.2636719c0-5.5976562,9.1943359-3.5996094,5.0634766-14.1269531
			l-1.1992188-3.0644531c-1.7324219-4.2636719-1.7324219-4.2636719-17.7226562-4.2636719
			c-15.8574219,0-15.8574219,0-17.3232422,3.5976562L671.4470215,796.4489136z M701.4294434,774.9938354l-10.5273438-27.1835938
			l-10.5273438,26.3847656c-1.7324219,4.3964844-1.7324219,4.3964844,10.3935547,4.3964844
			C702.7614746,778.5914917,702.7614746,778.5914917,701.4294434,774.9938354z"/>
		<path style="fill:#CCC2B8;" d="M838.2819824,720.8922729c4.796875,0,6.5292969,0.8007812,6.5292969,3.8652344
			c0,4.3964844-7.3291016,4.6640625-7.3291016,13.0585938v69.9589844c0,4.6640625-1.5986328,6.2636719-5.5966797,6.2636719
			s-5.7294922-2.1328125-5.7294922-4.53125c0-3.4648438-1.3330078-5.7304688-4.3974609-8.9277344l-53.4355469-53.0351562
			l0.1328125,49.4375c0,8.3945312,7.3291016,8.3945312,7.3291016,13.1914062c0,3.0644531-1.9990234,3.7324219-6.2626953,3.7324219
			H756.463623c-4.9306641,0-6.5302734-0.9335938-6.5302734-3.8652344c0-4.3984375,7.1962891-4.6640625,7.1962891-13.0585938
			v-51.4375c0-18.3886719-9.0615234-12.5253906-9.0615234-20.5214844c0-3.1972656,2.1318359-4.2636719,7.7285156-4.2636719
			h13.0595703c3.3310547,0,5.1962891,1.4667969,7.5947266,3.7324219l49.7050781,49.703125v-36.3789062
			c0-8.3945312-7.3291016-8.3945312-7.3291016-13.1914062c0-3.0644531,1.9980469-3.7324219,6.2626953-3.7324219H838.2819824z"/>
		<path style="fill:#CCC2B8;" d="M855.8728027,757.9371948c0-2.53125,5.9960938-5.3300781,5.9960938-10.6601562
			c0-5.4628906-8.2617188-6.2617188-8.2617188-15.0566406c0-7.0625,5.3310547-11.59375,10.7939453-11.59375
			c6.6630859,0,11.9931641,3.9980469,11.9931641,13.8574219c0,14.6582031-10.9267578,25.71875-17.7226562,25.71875
			C857.0720215,760.2028198,855.8728027,759.2711792,855.8728027,757.9371948z"/>
		<path style="fill:#CCC2B8;" d="M903.9772949,812.4391479c-4.3974609,0-4.796875,2.9316406-7.7285156,2.9316406
			c-2.3984375,0-4.2646484-1.4648438-5.1972656-7.1953125c-1.1992188-7.4628906-2.1318359-13.859375-2.3984375-19.8554688
			c-0.1328125-4.1308594,0.6660156-6.5292969,3.3310547-6.5292969s3.5986328,1.7324219,6.3964844,6.1289062
			c3.8642578,6.796875,11.9931641,17.4570312,26.9179688,17.4570312c8.2617188,0,11.5927734-5.1972656,11.7265625-10.3945312
			c0-8.2617188-10.6611328-13.4589844-21.5878906-19.1875c-15.1914062-7.8632812-25.5849609-13.0585938-25.5849609-28.5175781
			c0-15.5898438,14.9248047-27.7167969,34.2470703-27.7167969c6.7958984,0,12.6591797,2,15.4570312,2
			c3.4648438,0,4.1308594-2,7.0625-2c2.3984375,0,4.2646484,1.1992188,5.4638672,6.9296875
			c1.0654297,5.1972656,1.9990234,10.9257812,2.2646484,16.5234375c0.2666016,4.1308594-0.7988281,6.6621094-3.8642578,6.6621094
			c-2.2646484,0-3.8642578-1.9980469-6.7958984-6.2617188c-4.5302734-6.3964844-11.4599609-14.5253906-21.0537109-14.5253906
			c-7.4628906,0-11.59375,4.2636719-11.59375,10.2597656c0,7.5957031,6.6630859,11.9941406,21.0546875,19.4570312
			c15.8574219,8.1269531,27.4501953,13.4570312,27.4501953,27.9824219
			c0.1337891,18.2558594-17.5898438,28.6503906-35.8457031,28.6503906
			C913.838623,815.2379761,907.3083496,812.4391479,903.9772949,812.4391479z"/>
		<path style="fill:#CCC2B8;" d="M371.4211426,880.6676636c4.6640625,0,7.5957031,0.8007812,7.5957031,3.8652344
			c0,5.1972656-7.7290039,4.2636719-11.0600586,13.8574219l-24.2524414,70.8925781
			c-0.6665039,1.9980469-2.1323242,3.9980469-8.3950195,4.9296875c-7.0625,1.1992188-9.1948242,0.4003906-10.1274414-2.53125
			l-17.5898438-52.2363281l-16.7900391,49.9707031c-0.6660156,1.9980469-2.1318359,3.8652344-8.3950195,4.796875
			c-6.5292969,0.9335938-8.6616211,0.4003906-9.7275391-2.53125l-25.5849457-73.0234375
			c-3.4648438-9.9941406-9.8608398-8.7949219-9.8608398-13.9921875c0-3.3320312,2.3984375-3.9980469,6.2626953-3.9980469h24.2524261
			c4.1308594,0,6.5297852,0.9335938,6.5297852,3.9980469c0,5.1972656-6.9291992,4.3964844-3.7314453,14.125l16.390625,50.1035156
			l15.7241211-44.2402344l-1.7324219-5.8632812c-3.1982422-10.1269531-9.5942383-8.9277344-9.5942383-14.125
			c0-3.3320312,2.2651367-3.9980469,6.2626953-3.9980469h24.2524414c4.1308594,0,6.5297852,0.9335938,6.5297852,3.9980469
			c0,5.1972656-6.9291992,4.3964844-3.9980469,14.125l15.1914062,49.3046875l16.5234375-49.7050781
			c3.4648438-10.3925781-3.8642578-8.6601562-3.8642578-13.8574219c0-3.1992188,2.9316406-3.8652344,6.6625977-3.8652344
			H371.4211426z"/>
		<path style="fill:#CCC2B8;" d="M387.013916,956.3571167c-4.1308594,9.9941406,3.4648438,8.3945312,3.4648438,13.5917969
			c0,3.1972656-2.9316406,3.8652344-6.6625977,3.8652344h-12.5263672c-4.6635742,0-7.5952148-0.8007812-7.5952148-3.8652344
			c0-5.1972656,7.5952148-4.2636719,11.3266602-13.5917969l23.3193359-57.5664062
			c3.5981445-9.0605469-4.3974609-8.6621094-4.3974609-14.125c0-2.7988281,1.8657227-3.9980469,4.5307617-3.9980469h16.5239258
			c2.7983398,0,4.5302734,1.1992188,5.7299805,3.8652344l28.1166992,71.0234375
			c4.5307617,10.9277344,9.8608398,8.6621094,9.8608398,14.1269531c0,3.1972656-1.8657227,4.2636719-7.3291016,4.2636719
			h-24.3857422c-4.796875,0-6.9291992-1.0664062-6.9291992-4.2636719c0-5.5976562,9.1948242-3.5996094,5.0634766-14.1269531
			l-1.1992188-3.0644531c-1.7319336-4.2636719-1.7319336-4.2636719-17.7226562-4.2636719
			c-15.8574219,0-15.8574219,0-17.3232422,3.5976562L387.013916,956.3571167z M416.9963379,934.9020386l-10.5268555-27.1835938
			l-10.5273438,26.3847656c-1.7324219,4.3964844-1.7324219,4.3964844,10.394043,4.3964844
			C418.3288574,938.4996948,418.3288574,938.4996948,416.9963379,934.9020386z"/>
		<path style="fill:#CCC2B8;" d="M535.1931152,950.7594604c-0.2666016,7.8632812-1.0654297,13.3261719-2.1318359,17.1914062
			c-1.0664062,4.2636719-3.3310547,5.9960938-11.3261719,5.9960938H471.763916
			c-5.7299805,0-7.8618164-1.0664062-7.8618164-4.2636719c0-7.9960938,9.1943359-2.1328125,9.1943359-20.5214844v-44.7753906
			c0-16.2558594-8.9277344-12.2578125-8.9277344-19.4550781c0-3.1972656,1.8652344-4.2636719,7.8618164-4.2636719h24.3857422
			c5.7299805,0,7.8618164,1.0664062,7.8618164,4.2636719c0,7.1972656-9.1943359,3.1992188-9.1943359,19.4550781v53.96875
			c0,4.1308594,1.8652344,5.9960938,9.7275391,5.9960938l4.7973633-0.1328125
			c8.128418,0,11.1928711-5.5957031,15.8569336-15.3242188c2.265625-4.53125,4.1308594-5.5957031,6.5292969-5.0625
			C535.0603027,944.6305542,535.3269043,946.6286011,535.1931152,950.7594604z"/>
		<path style="fill:#CCC2B8;" d="M613.1472168,950.7594604c-0.2666016,7.8632812-1.0654297,13.3261719-2.1318359,17.1914062
			c-1.0664062,4.2636719-3.3310547,5.9960938-11.3261719,5.9960938h-49.9707031
			c-5.7304688,0-7.8623047-1.0664062-7.8623047-4.2636719c0-7.9960938,9.1943359-2.1328125,9.1943359-20.5214844v-44.7753906
			c0-16.2558594-8.9277344-12.2578125-8.9277344-19.4550781c0-3.1972656,1.8652344-4.2636719,7.8623047-4.2636719h24.3847656
			c5.7304688,0,7.8623047,1.0664062,7.8623047,4.2636719c0,7.1972656-9.1943359,3.1992188-9.1943359,19.4550781v53.96875
			c0,4.1308594,1.8652344,5.9960938,9.7275391,5.9960938l4.796875-0.1328125
			c8.1289062,0,11.1933594-5.5957031,15.8574219-15.3242188c2.265625-4.53125,4.1308594-5.5957031,6.5292969-5.0625
			C613.0144043,944.6305542,613.2810059,946.6286011,613.1472168,950.7594604z"/>
		<path style="fill:#CCC2B8;" d="M696.1657715,950.7594604c-0.2666016,7.8632812-1.0664062,13.3261719-2.1328125,17.1914062
			c-1.1992188,4.2636719-3.4648438,5.9960938-11.3261719,5.9960938h-55.0341797
			c-5.7304688,0-7.8623047-1.0664062-7.8623047-4.2636719c0-7.9960938,9.1943359-2.1328125,9.1943359-20.5214844v-43.7089844
			c0-18.3886719-9.1943359-12.5253906-9.1943359-20.5214844c0-3.1972656,2.1318359-4.2636719,7.8623047-4.2636719h52.5019531
			c7.8623047,0,10.2607422,0.8007812,11.7265625,4.9316406c1.3330078,3.5976562,2.5322266,8.1269531,3.5976562,13.5917969
			c0.7998047,3.9960938,0.4003906,6.5292969-2.1318359,7.328125c-2.6650391,0.9335938-4.5302734-0.1328125-6.7958984-3.5976562
			c-5.5966797-8.3945312-11.1933594-12.6601562-19.5888672-12.6601562h-5.7294922
			c-8.3955078,0-10.2607422,1.8671875-10.2607422,6.1308594v12.5253906c0,5.3300781,2.9316406,6.5292969,8.3945312,6.5292969
			h0.2666016c9.7275391,0,9.5947266-4.6640625,14.5253906-4.6640625c2.9316406,0,3.7304688,1.7324219,4.2636719,3.8652344
			l3.4648438,17.0566406c1.0664062,4.6640625,0.1328125,5.8632812-2.6650391,6.5292969
			c-7.0625,1.4667969-7.9951172-13.3261719-19.5888672-13.3261719h-0.2666016c-5.4628906,0-8.3945312,1.0664062-8.3945312,6.5292969
			v26.7851562c0,4.2636719,1.8652344,6.1289062,11.3261719,6.1289062l8.2626953-0.1328125
			c8.1279297,0,11.0595703-5.5957031,15.8564453-15.3242188c2.265625-4.53125,4.1308594-5.5957031,6.3964844-5.0625
			C696.0319824,944.6305542,696.298584,946.6286011,696.1657715,950.7594604z"/>
		<path style="fill:#CCC2B8;" d="M755.3317871,950.2262573c0,16.2578125,8.9277344,12.2597656,8.9277344,19.4570312
			c0,3.1972656-1.8652344,4.2636719-7.8623047,4.2636719h-24.3857422c-5.7294922,0-7.8613281-1.0664062-7.8613281-4.2636719
			c0-7.1972656,9.1943359-3.1992188,9.1943359-19.4570312v-53.7011719c0-3.5976562-1.7324219-5.4628906-5.4638672-5.4628906
			c-7.9951172,0-10.7929688,4.9296875-15.7236328,14.5253906c-1.4658203,3.0644531-2.9316406,4.796875-5.0634766,4.796875
			c-2.9316406,0-3.7314453-2.3984375-3.5976562-6.5292969c0.265625-7.8632812,1.0654297-13.3261719,2.1318359-17.1914062
			c1.1992188-4.2636719,3.4648438-5.9960938,11.3261719-5.9960938h54.6347656
			c7.9951172,0,10.2607422,1.7324219,11.3271484,5.9960938c1.0654297,3.8652344,1.8652344,9.328125,2.1318359,17.1914062
			c0.1328125,3.9960938-0.6660156,6.5292969-3.5976562,6.5292969c-2.1328125,0-3.4648438-1.7324219-5.0644531-4.796875
			c-4.796875-9.5957031-7.7285156-14.6582031-15.7236328-14.6582031c-3.4648438,0-5.3300781,1.9980469-5.3300781,5.5957031
			V950.2262573z"/>
	</g>
	<path style="fill:#FF7900;" d="M702.8551636,302.9254456l-0.0194702-0.1013794
		c-71.4578857-32.5812378-120.9692993-102.5129547-121.2357178-183.6672363c0-0.0296402,0.0011597-0.0590591,0.0011597-0.088707
		c0-38.5558853-31.253418-69.8120422-69.808136-69.8168564v-0.0000992c-0.0014038,0-0.0029602,0.0000648-0.004364,0.0000648
		c-0.0015564,0-0.0029602-0.0000648-0.0044861-0.0000648v0.0000992
		c-38.5547485,0.0048103-69.808136,31.2609711-69.808136,69.8168564c0,0.0296478,0.0011597,0.0590668,0.0011597,0.088707
		c-0.2664185,81.1542816-49.777771,151.0859985-121.2356567,183.6672363l-0.0195618,0.1013794
		c-23.0393066,11.6019897-38.8023376,35.6876831-38.8023376,63.2050781v174.1927795
		c0,28.7305908,23.290741,52.0213013,52.0212708,52.0213013h96.9578247c0,14.4458008,11.7105713,26.1564331,26.1564331,26.1564331
		h35.5103455h14.3717957h4.8468628h0.0088501h4.8468323h14.3718262h35.5103149
		c14.4458618,0,26.1564331-11.7106323,26.1564331-26.1564331h96.9578247c28.7305298,0,52.0213623-23.2907104,52.0213623-52.0213013
		V366.1305237C741.6575928,338.6131287,725.8944702,314.5274353,702.8551636,302.9254456z M511.7886353,139.3133545
		c-11.3525696,0-20.5556335-9.2030487-20.5556335-20.5555878s9.203064-20.5555801,20.5556335-20.5555801
		c11.3525391,0,20.555542,9.2030487,20.555542,20.5555801S523.1411743,139.3133545,511.7886353,139.3133545z"/>
	<path d="M574.8894043,429.1642456c-8.5234375-8.6132812-21.4931641-14.7524414-38.9042969-18.4208984l-29.96875-6.5986328
		c-9.1679688-2.0151367-15.6289062-4.6269531-19.3837891-7.8359375c-3.7587891-3.2045898-5.6362305-7.3759766-5.6362305-12.5097656
		c0-6.9638672,3.0673828-12.6474609,9.2104492-17.0463867c6.1391602-4.3994141,14.7094727-6.5986328,25.7070312-6.5986328
		c10.4482422,0,20.1611328,1.512207,29.1445312,4.5366211c2.9928589,1.0081482,5.8639526,2.1742859,8.6131592,3.49823
		c8.5216675,4.1038208,18.7232056,0.2713318,22.1289673-8.5525818l0.7497559-1.9424744
		c2.776123-7.1925659,0.0916748-15.3897705-6.4696655-19.4381104c-4.359375-2.6897278-9.2179565-4.9674377-14.5749512-6.8331299
		c-4.0609741-1.4136658-8.1650391-2.6013794-12.3115845-3.5669556c-7.2821655-1.6957092-12.4335327-8.1833496-12.4335327-15.6603394
		v-1.1126404c0-8.8861084-7.2036133-16.0897522-16.0897217-16.0897522h-0.538269
		c-8.8861389,0-16.0897827,7.2036438-16.0897827,16.0897522v2.2970886c0,7.2348633-4.8522949,13.5032349-11.8048401,15.5045471
		c-5.495697,1.5820007-10.5903625,3.6621399-15.2767029,6.2502136
		c-9.6230469,5.3183594-17.1411133,12.2817383-22.5454102,20.8955078
		c-5.4086914,8.6176758-8.1108398,18.4208984-8.1108398,29.418457c0,14.2973633,4.1240234,25.8920898,12.3725586,34.7802734
		c8.2480469,8.8925781,20.8007812,15.1689453,37.6669922,18.8334961l30.2431641,6.5986328
		c9.5292969,2.199707,16.2216797,4.8588867,20.0712891,7.9731445c3.8486328,3.1191406,5.7734375,7.1484375,5.7734375,12.0976562
		c0,5.8681641-2.7490234,10.8603516-8.2480469,14.984375s-14.5722656,6.1860352-27.2192383,6.1860352
		c-11.7324219,0-22.9145508-1.7397461-33.5429688-5.2236328c-4.5333557-1.4837646-8.8668213-3.2018127-13.000061-5.1534729
		c-8.6372986-4.0784302-18.9040833,0.0348206-22.1447144,9.0200806l-1.1828308,3.2796021
		c-2.7483521,7.6203308,0.6244507,16.0384827,7.8057556,19.7870483c5.5713806,2.9081726,11.6877136,5.3860168,18.348999,7.4344177
		c5.6219788,1.7312622,11.4309387,3.0869141,17.4235535,4.0760498c7.7310181,1.276001,13.3699036,8.0166016,13.3699036,15.8522339
		v0.000061c0,8.8861084,7.2036438,16.0897217,16.0897827,16.0897217h0.538269
		c8.8861084,0,16.0897217-7.2036133,16.0897217-16.0897217v-2.5245972c0-7.1578369,4.7491455-13.3927612,11.6057739-15.4472656
		c5.5100708-1.651001,10.6251221-3.7672119,15.338562-6.355896c9.3486328-5.1293945,16.6777344-11.8652344,21.9960938-20.2080078
		c5.3134766-8.3383789,7.9726562-17.9140625,7.9726562-28.7314453
		C587.673584,448.960144,583.4118652,437.7819214,574.8894043,429.1642456z"/>
</g>
</svg>
