<?xml version="1.0" encoding="utf-8"?>
<!-- Generator: Adobe Illustrator 30.1.0, SVG Export Plug-In . SVG Version: 9.03 Build 0)  -->
<svg version="1.1" id="Capa_1" xmlns="http://www.w3.org/2000/svg" xmlns:xlink="http://www.w3.org/1999/xlink" x="0px" y="0px"
	 viewBox="0 0 25 25" style="enable-background:new 0 0 25 25;" xml:space="preserve">
<g>
	<path d="M20.5012932,10.2693367h2.1821709c0.4073868,0,0.7273903-0.3201008,0.7273903-0.7273903V4.8429561
		c0-2.1384788-1.3674946-4.0442414-3.4042339-4.7134404c-0.1454296-0.0581912-0.3200035-0.0581912-0.4654331,0
		c-2.0367413,0.6691991-3.4042339,2.5749617-3.4042339,4.7134404v4.6989903c0,0.4072895,0.3200035,0.7273903,0.7273903,0.7273903
		h2.1821709"/>
	<path d="M2.3165359,0.0858723c-0.402053,0-0.7273904,0.3253374-0.7273904,0.7273903v4.3643417
		c0,1.2032976,0.9788734,2.1821709,2.1821709,2.1821709H7.408268v16.0995712H6.6808777
		c-0.4020529,0-0.7273903,0.3253384-0.7273903,0.7273903s0.3253374,0.7273903,0.7273903,0.7273903h2.9095612
		c0.4020529,0,0.7273903-0.3253384,0.7273903-0.7273903s-0.3253374-0.7273903-0.7273903-0.7273903H8.8630486V7.3597751H12.5
		c1.2032976,0,2.1821709-0.9788733,2.1821709-2.1821709V0.8132626c0-0.4020529-0.3253384-0.7273903-0.7273903-0.7273903
		s-0.7273903,0.3253374-0.7273903,0.7273903v2.1821709h-1.4547806V0.8132626c0-0.4020529-0.3253374-0.7273903-0.7273903-0.7273903
		s-0.7273903,0.3253374-0.7273903,0.7273903v2.1821709H8.8630486V0.8132626c0-0.4020529-0.3253374-0.7273903-0.7273903-0.7273903
		S7.408268,0.4112097,7.408268,0.8132626v2.1821709H5.9534874V0.8132626c0-0.4020529-0.3253374-0.7273903-0.7273903-0.7273903
		S4.4987068,0.4112097,4.4987068,0.8132626v2.1821709H3.0439262V0.8132626
		C3.0439262,0.4112097,2.7185888,0.0858723,2.3165359,0.0858723z"/>
	<path d="M16.1369514,24.1867371c0,0.4020538,0.3253384,0.7273903,0.7273903,0.7273903h5.8191223
		c0.4020538,0,0.7273903-0.3253384,0.7273903-0.7273903c0-1.7562103-1.2511597-3.2253933-2.9095612-3.5633392V10.2693367h-1.4547806
		v10.3540611C17.3881607,20.9613438,16.1369514,22.4305267,16.1369514,24.1867371z M19.7739029,22.0045662
		c0.9490032,0,1.7573738,0.6080494,2.0571575,1.4547806h-4.1143131
		C18.0165291,22.6126652,18.8249016,22.0045662,19.7739029,22.0045662z"/>
</g>
</svg>
