<?xml version="1.0" encoding="utf-8"?>
<!-- Generator: Adobe Illustrator 30.2.0, SVG Export Plug-In . SVG Version: 9.03 Build 0)  -->
<svg version="1.1" xmlns="http://www.w3.org/2000/svg" xmlns:xlink="http://www.w3.org/1999/xlink" x="0px" y="0px"
	 viewBox="0 0 1024 1024" style="enable-background:new 0 0 1024 1024;" xml:space="preserve">
<g>
</g>
<g id="_x31___x2013__Layer">
	<path style="fill:#D07321;" d="M189.6591492,580.4205933c13.6627197,4.7581177,28.6713104,1.008606,43.0245819,0.0864868
		c24.2743073-3.602356,48.4441071-7.7563477,72.5483246-12.2488403
		c-1.7818909,22.7174072-3.5207825,45.4380493-5.4022827,68.1472778
		c-0.4639282,11.6869507-2.9622192,23.4677734-1.9548645,35.1342163
		c3.6629944,16.123291,16.065918,32.5383911,32.5138245,36.8329468
		c10.7189331,2.1151123,11.8644104-9.0558472,11.9398193-16.8917236
		c3.0281982-37.7976685,6.216217-75.5880127,9.5484924-113.3598633c0.4307251-6.4129028,0.8987427-12.8254395,1.3905334-19.2379761
		c29.1573486-5.9407959,58.2430115-12.2422485,87.3114319-18.5990601
		c-2.1282349,38.2648926-3.982666,76.5465698-6.0785217,114.8135376
		c-0.5114441,11.4398193-1.4737244,22.8833618-1.8220825,34.3178711
		c1.1343994,14.5618896,10.7709961,30.3618164,25.0960083,34.9858398
		c14.0057373,2.8638916,12.2119446-14.5643311,12.8578186-23.6730957
		c3.2679443-56.3450928,6.4850769-112.7033081,9.4038391-169.0754395
		c24.8619995-5.4268799,49.7297363-10.7964478,74.637207-15.90979c2.2876587-0.4856567,4.5802002-0.9536743,6.8686523-1.4364624
		c-2.8535767,49.8264771-4.5637817,99.7299194-5.5752563,149.6195068
		c-0.4491577,17.5232544-0.9667969,35.041626-1.4413452,52.562439c-0.1315308,5.541626-0.3430176,11.0828857-0.4602051,16.6240845
		c0.2983398,15.1962891,9.1517334,32.2052612,23.8087158,37.8702393
		c19.0941162,3.7613525,12.3927002-23.413269,14.1541138-34.8276978
		c2.1237183-68.8074341,4.175293-137.6140747,5.4990234-206.4424438c0.1135254-7.6710815,0.2999878-15.3430176,0.513916-23.0153198
		c34.6227417-7.1231689,69.2976074-14.0311584,103.9876099-20.8776855
		c-4.7949829,63.4539185-9.767395,126.8930664-14.6057739,190.3453979
		c-0.1622925,15.4934082-5.098999,31.6064453-0.6757812,46.7584839
		c3.9121704,11.8873291,11.2578735,24.331665,23.3300781,29.2155151
		c19.1584473,5.1420898,13.0979614-24.8484497,15.6573486-36.1218872
		c5.7821655-79.3608398,11.5279541-158.7340088,16.6261597-238.1440125
		c40.8897705-8.0444336,52.1650391-10.8669128,92.9863892-19.189209
		c51.7419434-9.6624451-9.1780396-48.6359253-50.6751709-34.9867249c-23.0657349,4.4453735-16.486145,3.791748-39.5072021,8.4116821
		c0.8015747-13.2094421,1.6491089-26.4164429,2.4052734-39.6283569c1.1548462-26.2123718,1.543396-52.6358032-1.9298706-78.681366
		c-0.0401611-6.0940857-4.99823-11.0595093-9.7243042-14.2823792c-10.8763428-7.2489624-16.8552856-3.5753174-17.4671631,8.6628723
		c-3.8928833,44.02948-9.1325073,87.9351807-12.8623047,131.9843445
		c-35.3547363,7.2378845-70.670105,14.6303101-105.946167,22.172699
		c2.5917358-61.3441467,6.0834351-122.7095947,2.8572998-184.0168457
		c-1.2897339-7.8292847-0.8220825-27.8188782-12.8521118-25.4656677c-1.9966431,1.6880646-1.6015625,4.7220154-2.0888672,7.1342163
		c-1.1671753,10.5263367-2.328186,21.0559692-3.7953491,31.5458374
		c-8.8936157,59.1933899-15.052063,118.7006836-19.3527222,178.3571777
		C537,475.8191223,509.6085815,481.8111572,482.2310791,487.8564758
		c2.5011597-51.4968872,4.7006836-103.005249,6.3482056-154.5299988
		c-0.4811401-18.3269348,0.8921814-37.3739319-3.1007385-55.2730103
		c-3.6490784-6.2346497-14.2995911-14.5315552-21.0481873-8.6825256
		c-8.0993347,59.4859924-13.2377319,119.9727783-18.0015259,179.9944153
		c-1.1983337,15.7114563-2.2663269,31.4302673-3.262207,47.1539917
		c-28.7598267,6.3965149-57.5114441,12.8201294-86.2548828,19.2772827
		c6.9014282-76.1576233,15.5905151-152.3476562,15.2233276-228.6950684
		c1.7507629-12.4012756-24.0099792-31.1286011-33.9826355-21.3788757
		c-11.5906677,75.7478027-18.5970154,152.7353516-26.7631836,229.089325
		c-0.9811096,10.6095276-1.8941956,21.2247925-2.786377,31.8425293
		c-41.7119141,9.3890991-83.4209747,18.7859497-125.1439514,28.1188965
		C155.1085052,558.2790527,173.7940369,576.5072021,189.6591492,580.4205933z"/>
</g>
</svg>
