<?xml version="1.0" encoding="utf-8"?>
<!-- Generator: Adobe Illustrator 30.1.0, SVG Export Plug-In . SVG Version: 9.03 Build 0)  -->
<svg version="1.1" xmlns="http://www.w3.org/2000/svg" xmlns:xlink="http://www.w3.org/1999/xlink" x="0px" y="0px"
	 viewBox="0 0 1024 1024" style="enable-background:new 0 0 1024 1024;" xml:space="preserve">
<g>
</g>
<g id="_x32___x2013__Layer">
	<path style="fill:#663C1F;" d="M589.232666,820.512207l1.1277466-0.2962036
		c1.612854-0.423645,2.9481812-1.5396118,3.6418457-3.0560303c1.3494873-2.9499512,4.5978394-12.0258179,5.0195923-15.1896973
		c0,0,0.9432983-5.9727173,1.2574463-7.5449829c0.6289673-3.7720337,1.5717773-7.2297363,2.8293457-10.6885376
		c1.8864136-5.3442993,3.772522-11.0027466,5.3441162-16.6602173c1.1948242-4.0437622,9.0030518-23.4848022,19.4848022-49.1327515
		c5.6885376-13.9191895,12.1644287-29.6665039,18.7980347-45.7728882
		c3.8453369-9.3363647,7.7435913-18.793396,11.5722046-28.0849609c2.7886963-6.7678833,5.5404663-13.4480591,8.2078247-19.9298096
		c5.444519-13.2300415,48.3475952-123.9938049,52.6859131-134.6305847
		c8.0362549-19.7036438,13.4830322-33.3446655,13.7780151-34.9460144c1.213501-6.5870972,13.7094727,3.0511475,28.0297241,2.7380371
		c8.7814941-0.1920166,18.2490845-4.1261902,26.2214966-17.8388367c1.3807373-2.3749084,3.355835-8.1097107-12.5840454-16.499115
		c-6.0780029-3.1989136-8.5695801-1.5923462-10.0671997,0.2796936c-4.4743042,5.592865-12.442688,4.5961304-15.0133667,3.196991
		c-10.0722046-5.4823303-17.6405029-7.9677734-23.3195801-8.4614868
		c-2.4951782-0.7179871-14.9188232-3.3846436-18.8634033,3.6914673c-1.3094482,2.3491211-1.7478027-1.1885071-9.4796753,22.3034363
		c-3.3407593,10.150116-9.1922607,17.6694946-12.6123047,26.4247742c-0.3608398,0-46.7853394,122.6501465-57.7680664,148.9138184
		c-4.456604,10.6572266-9.3051758,20.1150513-14.019043,31.4523315
		c-4.9841309,11.9872437-9.8233032,25.8320312-14.1047363,36.1600342
		c-7.760498,18.720459-13.5305786,32.6723633-14.2792969,34.4504395c-2.3059692,5.5344238-6.9372559,8.5737305-12.2811279,9.6297607
		c-9.2255859,1.8230591-20.5749512-2.2647095-25.7506104-9.6297607
		c-2.8291016-4.0866699-15.2406616-18.1769409-16.9185791-36.0742798
		c-1.6778564-17.8972778-1.0835571-39.1838989-1.0835571-39.1838989c0-1.9331665,1.2821045-3.6663208,3.1564941-4.1393433
		c1.5166626-0.3827515,2.9697266-0.8495483,4.3373413-1.4193726c15.0175171-6.2576904,31.8143311-21.0669556,42.9141846-37.5661011
		l2.6174316-4.8613892c5.9837646-7.479126,8.9752197-16.0803833,10.0968628-25.8032837l1.4959717-7.4790039
		c0-0.3739014,0-1.1221924,0-1.8699341c0-10.4706421-2.9914551-24.3071899-3.7398682-25.8032837l-5.9829102-14.2103882
		c-2.9915771-11.9666748-15.7064819-14.2098389-23.9332886-21.315033
		c-10.4707031-7.1052246-26.1772461-17.5763855-37.7698975-22.0639954
		c-5.9830322-2.2437744-10.8443909-8.9745483-16.828186-11.5927734l-8.6006165-5.6091614
		c0.7476501,0.7477417-21.6893921-12.3405151-21.6893921-26.5509338c0-2.9915771-1.8701172-0.7477417-1.8701172-5.2353516
		c0-5.6097412,3.7392578-15.7064514,8.6007996-22.811676c9.3490295-10.4706116,27.6730042-12.714386,27.2991943-12.714386
		c23.175293,0,33.1138916,11.9611511,42.8207397,19.2293396c3.5352783,3.9364929,8.9885864,8.7010803,17.9295654,4.7981262
		c3.3844604-0.9613647,6.9476929-3.0153503,9.1793823-6.2534485c2.3301392-2.092041,4.8243408-4.6617737,7.5116577-7.8392029
		c2.756897-3.2596741,11.1456299-15.0843201,11.9176636-17.254303c1.8839111-5.2956238-9.4066162-16.4458618-14.1417236-17.1991272
		c-7.2831421-1.1585388-12.7127686,6.6139221-15.0761108,8.3403015l-0.0310669,0.0226746
		c-1.7404785,1.2705078-4.0940552,1.2246399-5.8223267-0.0623169c-5.9879761-4.4587402-12.1484985-7.5752258-16.1439209-8.4631042
		c-7.4790649-1.4960327-16.0631104-4.5836182-16.0631104-11.3150024c0-0.5925903-0.409729-14.8794556-0.7966919-28.4460449
		c-0.0472412-1.6551514,1.3040161-3.0084229,2.9589844-2.9546814c1.7772827,0.0576782,3.6774902,0.0906677,5.758728,0.0906677
		c0.5512695-0.5512695,1.6531982-0.5512695,2.7557373-0.5512695c11.8519897,0,30.1810913,1.5159912,48.7169189,4.2722473
		c18.5358276,2.7562866,37.2783813,6.7528381,49.9572754,11.7139587l12.6785889,3.8588867
		c1.9005127,0.5430298,12.9302979,3.7154236,28.8465576,7.2282715c4.0787354,0.9002075,8.4783936,1.8227844,13.1275635,2.729187
		c13.3931274,2.611145,30.2001953,6.318573,46.0274658,7.7405701c12.6627197,1.1376648,24.2147217,0.3696289,36.46875-0.3149109
		c9.5518799-0.5335999,20.6098633-3.4069519,28.9683228-5.5576477c10.7961426-2.7779236,17.7202759-6.881134,25.5499268-14.1871643
		c6.065918-5.6602783,12.9485474-13.3311768,18.2844849-20.209198c5.9488525-7.6681519,9.5396729-16.2304993,13.3782959-26.4924622
		c2.1583862-5.7701111,4.9523315-12.2542419,6.3366699-18.1809082c1.0776978-4.613678,6.9832153-28.4071808,7.5504761-32.8583527
		c1.3469849-10.5708313,1.2583008-24.132431,2.2371216-32.9981537c1.3046265-11.8166809-23.0707397-12.5840454-23.909668-6.7114868
		c-1.7990723,12.5936127-3.7490845,30.9562836-9.088501,43.0653992
		c-2.7314453,6.1946411-10.4176025,24.9436951-13.5831299,30.9113159
		c-6.7189331,12.6667786-14.8546143,24.3078308-26.270874,32.7395935
		c-5.4260864,4.0075989-6.5115967,5.9653625-13.2786255,8.4277039c-8.9755249,3.2659607-24.1752319,6.3781738-35.8726196,6.1521606
		c-11.3890991-0.2200928-15.8207397-2.3991089-22.7130737-3.7052612
		c-7.9230957-1.5014954-17.8017578-2.2374268-23.6300659-3.9849548c-6.1724243-1.850708-12.3414917-2.5383606-20.8903809-4.5934143
		c-12.5203247-3.0097656-21.5108032-4.9472046-29.7490234-7.0407715
		c-7.3186035-1.8598633-14.0435181-3.8429565-22.1220703-6.8105164c-11.019043-2.2038879-17.3882446-3.4288025-31.6638184-6.4470215
		c-7.149292-1.5115356-16.2815552-3.4728699-28.973999-6.2321777c-2.2050781-0.5512695-28.1135254-3.8582764-28.6647949-3.3070068
		c-5.5126953-0.5512695-10.4735107-1.6538086-15.4349365-1.6538086l-8.8203125-1.1025391h-30.3186035
		c-5.5126953,0.5512695-17.0887451,0.5512695-31.4211426,3.8582764l-18.1912842,2.7563477
		c-2.4675598,0-20.6810913,4.865509-43.4300232,11.1479187c-11.4550171,3.1634521-24.0599976,6.6861877-36.383606,10.1278687
		c-6.9434814,1.9391174-13.7976379,3.8525391-20.306488,5.6614685
		c-32.3280029,8.9845886-29.1600037,10.6337891-49.1826477,11.185791
		c-5.3729553,0.1481323-21.2240906-0.0169678-29.3370972,0.139801c-16.2806091,0.3146057-28.8499908-0.1767883-40.0149689-6.2919922
		c-8.7723694-4.8047485-17.0124207-14.2305908-23.2417145-21.6938171
		c-5.8826294-7.0478821-10.7519684-15.0239868-14.8358765-23.442627c-3.8917236-8.0224304-7.0701904-16.4467163-9.7326202-24.852478
		c-4.6873169-14.7987671-7.2324524-31.7160339-9.7967529-44.1064148c-1.7587738-8.4981232-24.196167-8.0580444-25.1680908,0.3495483
		c-0.459259,3.9727936,0.0879211,10.5920868,0.4194641,17.1981964c0.3535461,7.0445709,1.8773499,12.8655396,3.3557434,21.8123474
		c1.541626,9.329422,4.9465332,22.3629608,7.9698944,32.5087738c4.5038605,15.1140442,12.4351807,29.9610901,20.9566193,43.3557434
		c3.4703369,5.4549561,7.3100281,10.5921021,11.5485382,15.2687683c4.8377991,5.3379211,8.834137,11.5556335,14.7549286,15.4815369
		c4.8341522,3.2053833,11.404953,4.3897095,17.0141296,6.3968506c5.3721466,1.9223328,11.4902954,3.3691711,18.1544189,4.387207
		c8.2613831,1.2620239,24.6252289,3.1653137,34.1835175,3.1982117c10.167572,0.0350037,13.5898132-1.8753662,24.3347778-3.0236206
		c9.4205017-1.0067139,13.1635132-0.8074036,22.3660278-2.5692749c6.4424744-1.2334595,18.4788513-4.2539062,24.5568848-5.7973938
		c7.5403137-1.9148254,14.7185364-4.0491943,21.3320312-6.3558655c11.1374207-4.3674622,23.5724792-7.9564209,34.5976868-10.6982422
		c16.8057251-4.1793823,30.3357849-6.3905029,31.0015564-6.3905029h6.0633545l8.8203125-2.2050781
		c7.0092773-1.8088989,14.20401-3.0613403,21.0897217-3.9094849c9.901825-1.219635,19.1645508-1.6032104,26.317627-1.6032104
		h0.0603638c3.0797424-0.0000305,5.5849609,2.4830627,5.6077881,5.5626831
		c0.0844421,11.3759155,0.4156189,22.883606,0.6269531,27.53302c0,5.23526-12.0546875,7.9946289-20.6560974,12.4821777
		c-11.9666443,6.3574829-11.218811,11.5928345-23.9332275,23.5594788
		c-5.2353516,10.0967407-11.2189026,18.3241272-11.2189026,31.7861938c0,22.063385,6.7312927,28.4208679,9.3489685,34.0300598
		c7.1052246,10.4711609,17.5757751,25.4293213,29.1686096,28.7947388
		c3.7397156,4.1137085,19.0717773,12.3411255,21.3157043,12.7149658
		c30.2906189,21.6895447,58.7114563,33.6562195,58.7114563,56.0934143c0,20.1940308-8.227356,37.0221558-32.1607056,44.875061
		c-5.9828491,1.1216431-17.5756836,3.7393188-18.6973267,3.7393188c-14.5848999,0-31.4129028-6.730835-38.5181885-16.828125
		c-2.9914551-3.7392578-6.7308655-17.2019043-11.2183838-21.3156128l-2.6176147-2.9915161
		c-0.1480103-0.2385254-0.2971497-0.4705811-0.4473572-0.6963501c-0.9793091-1.47229-1.3630676-3.2228394-1.3796387-4.9910278
		c-0.0127563-1.3635254-0.4033508-2.8040771-1.3513489-4.2875366c-3.6342773-5.6873169-9.8108215-23.2158203-37.6990356-0.7125244
		c-3.3224792,2.6809692-13.791626,12.7103882-14.959198,14.6958008c-2.8492432,4.8450317,6.1345825,17.925293,10.6425476,19.5584106
		c6.9336853,2.5120239,13.7323608-4.0963745,16.3789978-5.3458252c0.6429443-0.3035278,1.2705994-0.6060181,1.8838501-0.9075928
		c1.7012024,4.3632812,3.9590149,8.2753906,5.2417297,9.9858398l6.7307434,13.0883179
		c2.6176758,5.2352905,21.4399414,22.4442749,37.3796997,29.1557617c4.3396301,1.8272095,9.3169861,3.5178223,14.5622559,4.8925171
		c1.8829956,0.4934692,3.1952209,2.197876,3.1952209,4.1444702c0,0,2.7615051,12.0413208-0.5942383,38.8872681
		c-1.0911865,8.7296143-3.5305786,15.9694214-6.6183472,22.0285034
		c-6.4079285,12.5742188-15.6082153,20.0635986-21.3461914,25.2315674
		c-7.91745,7.1309814-15.2423706,6.0202026-21.5353394,1.2796631
		c-10.4883118-7.9008789-18.1100769-25.8846436-20.8309326-32.5999756
		c-3.8036499-9.3876953-9.4884338-27.9789429-19.9946594-52.6432495
		c-4.1859436-9.8268433-11.0348816-21.8276367-15.9360352-32.7460327
		c-4.0509033-9.024231-8.3121338-18.2915649-12.7276306-27.5874634
		c-6.117218-12.87854-46.3927307-115.2934265-50.1294861-125.1711121c-4.0778809-10.77948-8.9284363-19.6282959-11.819397-26.269989
		c-3.5035706-8.0491333-6.7670593-12.8435059-11.3212585-13.8591614c-5.300293-1.1820374-10.7882996-0.0219116-23.6999512,5.2433777
		c-6.0605469,2.4714661-18.7141418,6.4425659-20.8335876,6.9911194c-11.8849335,3.0761108-9.8575592-8.6690063-15.2406769-6.4318542
		c-9.3607788,3.8901367-25.8446655,5.8225708-23.7595215,10.8013c2.8466187,6.7970276,12.0795746,17.9338989,18.0967102,22.5464478
		c3.0003662,2.2999878,11.8046417,3.7402039,20.6134491,1.0136719c11.3746948-3.5206909,21.8589172-9.074646,23.4203491-2.5168152
		c0.1821594,0.7649841,39.8492737,96.7947998,43.4836731,105.0308228
		c3.0630798,6.9413452,7.1510315,16.0994263,11.9246521,26.7382812
		c6.0578613,13.5009155,13.2199402,29.3865356,20.7930298,46.1525269
		c7.9924622,17.694458,16.442688,36.3695679,24.5358887,54.2572021
		c10.7969971,23.8637085,20.9585266,46.3258667,28.5497437,63.1882324
		c7.7436218,17.2009277,12.8127136,28.5749512,13.1535645,29.6658325c1.2575378,3.7729492,2.2002563,7.5449829,2.8293152,11.6310425
		c0.3141479,1.2581787,3.5848694,11.0350952,3.5848694,11.0350952c1.0224304,2.9541626,3.1385193,7.8071899,4.4179688,11.5671387
		c0.9344788,2.7461548,3.6161499,4.5074463,6.5113831,4.328125l19.413208-1.2024536
		c2.8527832-0.1766968,5.2049561-2.2148438,5.8950806-4.9885254c0.4328613-1.739624,1.0945435-3.4251709,1.9412231-5.0252075
		c1.1037903-2.0856934,1.9237061-4.3405762,2.2460938-6.5980225c0.6289673,0,3.7724915-13.2022095,4.7156372-15.7172852
		c2.5145874-5.6585693,4.4011536-11.6311646,6.6012573-17.6039429c3.1437988-8.6449585,7.5152588-21.9558716,15.1868896-29.342041
		c4.6029663-4.4317017,10.3940125-6.7305298,17.8208008-4.6087646c6.3657837,1.7683716,11.0516968,5.5700684,14.6876221,10.394043
		c6.0599976,8.039917,9.2035522,18.9193726,12.347229,27.9571533c0.6287231,2.0436401,4.3699341,11.1954956,8.0457764,20.4918823
		c2.7540894,6.965332,4.34375,18.083313,5.6877441,22.2817993c0.5947876,1.8581543,2.376709,3.0745239,4.3255005,2.9807129
		L589.232666,820.512207z"/>
</g>
</svg>
