<?xml version="1.0" encoding="utf-8"?>
<!-- Generator: Adobe Illustrator 30.2.0, SVG Export Plug-In . SVG Version: 9.03 Build 0)  -->
<svg version="1.1" xmlns="http://www.w3.org/2000/svg" xmlns:xlink="http://www.w3.org/1999/xlink" x="0px" y="0px"
	 viewBox="0 0 1024 1024" style="enable-background:new 0 0 1024 1024;" xml:space="preserve">
<g>
</g>
<g id="_x33___x2013__Layer">
	<g>
		<path style="fill:#7A695C;" d="M220.3273926,964.7160645c-6.402832-1.6982422-12.7250977-3.6552734-18.7915039-5.8164062
			c-2.3393555-0.8349609-4.9150391,0.3886719-5.7490234,2.7294922c-0.8334961,2.3408203,0.3881836,4.9150391,2.7294922,5.7490234
			c6.2993164,2.2431641,12.8613281,4.2744141,19.5024414,6.0371094c0.387207,0.1025391,0.7749023,0.1513672,1.1572266,0.1513672
			c1.9912109,0,3.8115234-1.3320312,4.3466797-3.3466797C224.1599121,967.817627,222.729248,965.3537598,220.3273926,964.7160645z"
			/>
		<path style="fill:#7A695C;" d="M199.9504395,65.6730957c6.0561523-2.2080078,12.3632812-4.2094727,18.7460938-5.949707
			c2.3979492-0.6533203,3.8115234-3.1269531,3.1582031-5.5249023c-0.6538086-2.3974609-3.1289062-3.8144531-5.5253906-3.1582031
			c-6.6230469,1.8056641-13.1708984,3.8837891-19.4614258,6.1767578c-2.3349609,0.8515625-3.5375977,3.4345703-2.6860352,5.7695312
			c0.6655273,1.8261719,2.390625,2.9594727,4.2280273,2.9594727
			C198.9216309,65.9460449,199.4421387,65.8581543,199.9504395,65.6730957z"/>
		<path style="fill:#7A695C;" d="M247.6228027,53.5554199c6.2143555-0.9926758,12.8198242-1.8525391,19.6328125-2.5556641
			c2.472168-0.2548828,4.2695312-2.4658203,4.0141602-4.9379883c-0.2543945-2.4716797-2.4570312-4.2680664-4.9379883-4.0141602
			c-6.9780273,0.7197266-13.7504883,1.6015625-20.1289062,2.6201172c-2.4541016,0.3920898-4.1254883,2.699707-3.7338867,5.1538086
			c0.3540039,2.2138672,2.265625,3.7905273,4.4384766,3.7905273
			C247.1433105,53.6120605,247.3825684,53.5935059,247.6228027,53.5554199z"/>
		<path style="fill:#7A695C;" d="M118.9450684,907.0695801c-1.7680664-1.7460938-4.6176758-1.7285156-6.3642578,0.0400391
			c-1.7460938,1.7685547-1.7280273,4.6181641,0.0400391,6.3642578c4.8271484,4.7666016,9.9267578,9.3789062,15.1572266,13.7099609
			c0.8398438,0.6953125,1.8564453,1.0341797,2.8676758,1.0341797c1.2939453,0,2.5786133-0.5556641,3.46875-1.6298828
			c1.5849609-1.9140625,1.3178711-4.7509766-0.5961914-6.3359375
			C128.4885254,916.0871582,123.5856934,911.6525879,118.9450684,907.0695801z"/>
		<path style="fill:#7A695C;" d="M114.564209,119.4401855c1.1572266,0,2.3144531-0.4438477,3.1943359-1.3305664l0.1757812-0.175293
			c4.5512695-4.5512695,9.3588867-8.9614258,14.2905273-13.1074219c1.9023438-1.5991211,2.1479492-4.4379883,0.5483398-6.340332
			c-1.5991211-1.9023438-4.4375-2.1479492-6.340332-0.5483398c-5.128418,4.3120117-10.1293945,8.8984375-14.8500977,13.6196289
			l-0.2128906,0.2128906c-1.7504883,1.7641602-1.7392578,4.6132812,0.0249023,6.3637695
			C112.2722168,119.005127,113.4182129,119.4401855,114.564209,119.4401855z"/>
		<path style="fill:#7A695C;" d="M174.4812012,947.2229004c-5.8061523-2.96875-11.5546875-6.234375-17.0859375-9.7060547
			c-2.1040039-1.3212891-4.8818359-0.6855469-6.2036133,1.4189453c-1.3212891,2.1054688-0.6855469,4.8828125,1.4194336,6.2041016
			c5.7529297,3.6113281,11.7324219,7.0078125,17.7724609,10.0966797c0.65625,0.3349609,1.3554688,0.4941406,2.0454102,0.4941406
			c1.6357422,0,3.2138672-0.8955078,4.0097656-2.4521484C177.5705566,951.0656738,176.6940918,948.3547363,174.4812012,947.2229004z
			"/>
		<path style="fill:#7A695C;" d="M268.947998,973.1711426c-6.8291016-0.6767578-13.4404297-1.5058594-19.6503906-2.4638672
			c-2.4619141-0.3808594-4.7543945,1.3046875-5.1337891,3.7607422s1.3046875,4.7548828,3.7607422,5.1337891
			c6.3706055,0.9833984,13.1450195,1.8330078,20.1357422,2.5263672c0.1508789,0.0146484,0.3007812,0.0214844,0.4492188,0.0214844
			c2.2851562,0,4.2426758-1.734375,4.4726562-4.0566406C273.2272949,975.6203613,271.4211426,973.4162598,268.947998,973.1711426z"
			/>
		<path style="fill:#7A695C;" d="M155.9719238,87.3830566c5.5053711-3.5126953,11.2294922-6.8212891,17.0126953-9.8334961
			c2.2041016-1.1484375,3.0600586-3.8657227,1.9121094-6.0703125c-1.1479492-2.2041016-3.8652344-3.0605469-6.0703125-1.9121094
			c-6.015625,3.1337891-11.9692383,6.5751953-17.6953125,10.2290039c-2.0952148,1.3369141-2.7099609,4.1186523-1.3730469,6.2138672
			c0.8583984,1.3452148,2.3120117,2.0800781,3.7978516,2.0800781
			C154.3840332,88.0900879,155.2219238,87.8615723,155.9719238,87.3830566z"/>
		<path style="fill:#7A695C;" d="M296.9938965,48.8708496c4.9150391-0.2231445,10.0859375-0.40625,15.8085938-0.5610352
			c1.3769531-0.0375977,2.7543945-0.0722656,4.1308594-0.1035156c2.4848633-0.0571289,4.4526367-2.1176758,4.3959961-4.6025391
			c-0.0566406-2.4838867-2.1347656-4.4257812-4.6020508-4.3955078c-1.3901367,0.0322266-2.7792969,0.0668945-4.168457,0.1044922
			c-5.7773438,0.1567383-11.0019531,0.3417969-15.972168,0.5668945c-2.4829102,0.112793-4.4042969,2.2167969-4.2919922,4.6992188
			c0.109375,2.4135742,2.1005859,4.2963867,4.4921875,4.2963867
			C296.8557129,48.8752441,296.9245605,48.8737793,296.9938965,48.8708496z"/>
		<path style="fill:#7A695C;" d="M467.2121582,47.7468262c2.4853516,0,4.5-2.0146484,4.5-4.5s-2.0146484-4.5-4.5-4.5h-20.0512695
			c-2.4853516,0-4.5,2.0146484-4.5,4.5s2.0146484,4.5,4.5,4.5H467.2121582z"/>
		<path style="fill:#7A695C;" d="M88.0114746,869.0070801c-1.3476562-2.0888672-4.1328125-2.6865234-6.2211914-1.3408203
			c-2.0878906,1.3486328-2.6879883,4.1337891-1.340332,6.2216797c3.6796875,5.7001953,7.6572266,11.3095703,11.8227539,16.6708984
			c0.887207,1.1416016,2.2148438,1.7392578,3.5566406,1.7392578c0.9648438,0,1.9375-0.3085938,2.7578125-0.9462891
			c1.9628906-1.5253906,2.3173828-4.3525391,0.7929688-6.3144531
			C95.3747559,879.8820801,91.5495605,874.4885254,88.0114746,869.0070801z"/>
		<path style="fill:#7A695C;" d="M418.8024902,976.2531738h-20.0512695c-2.4853516,0-4.5,2.0146484-4.5,4.5s2.0146484,4.5,4.5,4.5
			h20.0512695c2.4853516,0,4.5-2.0146484,4.5-4.5S421.2878418,976.2531738,418.8024902,976.2531738z"/>
		<path style="fill:#7A695C;" d="M368.6784668,976.2492676c-6.6767578-0.0058594-13.3540039-0.0205078-20.0317383-0.0556641
			c-2.4492188-0.0478516-4.5102539,1.9912109-4.5234375,4.4765625s1.9912109,4.5107422,4.4765625,4.5234375
			c6.6904297,0.0351562,13.3803711,0.0498047,20.0708008,0.0556641c0.0014648,0,0.0024414,0,0.0043945,0
			c2.4829102,0,4.4975586-2.0126953,4.4995117-4.4960938C373.177002,978.2678223,371.1638184,976.2512207,368.6784668,976.2492676z"
			/>
		<path style="fill:#7A695C;" d="M318.6472168,975.833252c-1.9492188-0.0429688-3.8984375-0.0908203-5.8447266-0.1416016
			c-5.0957031-0.1386719-9.7084961-0.2978516-14.1020508-0.4863281c-2.4785156-0.1015625-4.5825195,1.8193359-4.6884766,4.3027344
			c-0.1069336,2.4833984,1.8193359,4.5830078,4.3022461,4.6894531c4.4414062,0.1904297,9.1005859,0.3515625,14.2470703,0.4902344
			c1.9628906,0.0527344,3.9257812,0.1005859,5.8886719,0.1435547c0.0336914,0.0009766,0.0668945,0.0009766,0.1005859,0.0009766
			c2.4389648,0,4.4428711-1.9501953,4.4970703-4.4013672C323.1018066,977.9465332,321.1320801,975.8879395,318.6472168,975.833252z"
			/>
		<path style="fill:#7A695C;" d="M346.9309082,47.8161621c6.6772461-0.0395508,13.3535156-0.0566406,20.0292969-0.0639648
			c2.4853516-0.0029297,4.4980469-2.0195312,4.4951172-4.5048828c-0.0024414-2.4838867-2.0170898-4.4951172-4.5-4.4951172
			c-0.0014648,0-0.003418,0-0.0048828,0c-6.6904297,0.0073242-13.3813477,0.0244141-20.0727539,0.0639648
			c-2.4848633,0.0146484-4.487793,2.0415039-4.4731445,4.5263672c0.0146484,2.4765625,2.0263672,4.4736328,4.4995117,4.4736328
			C346.9128418,47.8161621,346.9221191,47.8161621,346.9309082,47.8161621z"/>
		<path style="fill:#7A695C;" d="M417.0837402,47.7468262c2.4853516,0,4.5-2.0146484,4.5-4.5s-2.0146484-4.5-4.5-4.5h-20.0512695
			c-2.4853516,0-4.5,2.0146484-4.5,4.5s2.0146484,4.5,4.5,4.5H417.0837402z"/>
		<path style="fill:#7A695C;" d="M43.2468262,402.0612793c2.4853516,0,4.5-2.0146484,4.5-4.5v-20.0512695
			c0-2.4853516-2.0146484-4.5-4.5-4.5s-4.5,2.0146484-4.5,4.5v20.0512695
			C38.7468262,400.0466309,40.7614746,402.0612793,43.2468262,402.0612793z"/>
		<path style="fill:#7A695C;" d="M80.8933105,157.7990723c0.7480469,0.4746094,1.5825195,0.7011719,2.4072266,0.7011719
			c1.4892578,0,2.9462891-0.7387695,3.8037109-2.0888672c3.4975586-5.5097656,7.2822266-10.9311523,11.2475586-16.1132812
			c1.5102539-1.9736328,1.1347656-4.7983398-0.8388672-6.3085938c-1.9750977-1.5102539-4.7988281-1.1342773-6.3085938,0.8388672
			c-4.1245117,5.3901367-8.0605469,11.0288086-11.6987305,16.7597656
			C78.173584,153.6862793,78.7946777,156.467041,80.8933105,157.7990723z"/>
		<path style="fill:#7A695C;" d="M43.2468262,552.4455566c2.4853516,0,4.5-2.0146484,4.5-4.5v-20.0507812
			c0-2.4853516-2.0146484-4.5-4.5-4.5s-4.5,2.0146484-4.5,4.5v20.0507812
			C38.7468262,550.4309082,40.7614746,552.4455566,43.2468262,552.4455566z"/>
		<path style="fill:#7A695C;" d="M43.2468262,502.317627c2.4853516,0,4.5-2.0146484,4.5-4.5v-20.0512695
			c0-2.4853516-2.0146484-4.5-4.5-4.5s-4.5,2.0146484-4.5,4.5v20.0512695
			C38.7468262,500.3029785,40.7614746,502.317627,43.2468262,502.317627z"/>
		<path style="fill:#7A695C;" d="M48.3254395,251.8811035c0.2382812,0.0375977,0.4746094,0.0556641,0.7080078,0.0556641
			c2.175293,0,4.0888672-1.5810547,4.4394531-3.7978516c0.3398438-2.1494141,0.7021484-4.296875,1.0776367-6.3833008
			c0.7924805-4.4086914,1.6845703-8.7827148,2.6513672-12.9995117c0.5551758-2.4228516-0.9580078-4.8364258-3.3803711-5.3920898
			c-2.4272461-0.5571289-4.8364258,0.9580078-5.3920898,3.3803711c-0.9985352,4.3554688-1.9194336,8.8701172-2.7368164,13.4189453
			c-0.3867188,2.1479492-0.7597656,4.3588867-1.109375,6.5703125
			C44.1950684,249.1882324,45.8708496,251.4929199,48.3254395,251.8811035z"/>
		<path style="fill:#7A695C;" d="M43.2878418,351.9328613c0.0087891,0,0.0170898,0,0.0258789,0
			c2.4731445,0,4.4853516-1.9980469,4.4995117-4.4746094l0.0107422-1.8085938
			c0.0380859-6.7353516,0.0976562-12.6879883,0.1806641-18.1987305c0.0375977-2.4848633-1.9467773-4.5297852-4.4316406-4.5673828
			c-2.5063477-0.0688477-4.5302734,1.9467773-4.5673828,4.4316406c-0.0834961,5.5385742-0.1430664,11.5195312-0.1816406,18.2792969
			l-0.0107422,1.8129883C38.7990723,349.8928223,40.8024902,351.9187012,43.2878418,351.9328613z"/>
		<path style="fill:#7A695C;" d="M44.151123,301.8146973c0.0683594,0.0029297,0.1357422,0.0043945,0.2036133,0.0043945
			c2.3930664,0,4.3842773-1.8852539,4.4921875-4.2998047c0.3173828-7.1245117,0.7124023-13.6201172,1.206543-19.8579102
			c0.1962891-2.4775391-1.652832-4.6450195-4.1303711-4.8413086c-2.484375-0.1958008-4.6450195,1.6533203-4.8413086,4.1303711
			c-0.5029297,6.3422852-0.9038086,12.9394531-1.2260742,20.168457
			C39.7453613,299.6013184,41.6682129,301.7038574,44.151123,301.8146973z"/>
		<path style="fill:#7A695C;" d="M43.2468262,452.189209c2.4853516,0,4.5-2.0146484,4.5-4.5v-20.0512695
			c0-2.4853516-2.0146484-4.5-4.5-4.5s-4.5,2.0146484-4.5,4.5v20.0512695
			C38.7468262,450.1745605,40.7614746,452.189209,43.2468262,452.189209z"/>
		<path style="fill:#7A695C;" d="M57.5837402,796.8830566c-1.1162109-4.7275391-2.1367188-9.6533203-3.0336914-14.6386719
			c-0.2822266-1.5693359-0.5517578-3.1416016-0.809082-4.7158203c-0.4008789-2.4511719-2.7124023-4.1132812-5.1669922-3.7148438
			c-2.4526367,0.4013672-4.1157227,2.7148438-3.7148438,5.1679688c0.2651367,1.6210938,0.5424805,3.2402344,0.8334961,4.8564453
			c0.9248047,5.1435547,1.9790039,10.2285156,3.1323242,15.1132812c0.4887695,2.0712891,2.3359375,3.4667969,4.3754883,3.4667969
			c0.3422852,0,0.6904297-0.0390625,1.0380859-0.1210938C56.6574707,801.7258301,58.1550293,799.302002,57.5837402,796.8830566z"/>
		<path style="fill:#7A695C;" d="M66.072998,825.1379395c-0.8632812-2.3300781-3.4521484-3.5175781-5.7827148-2.65625
			c-2.3305664,0.8632812-3.5200195,3.4521484-2.6567383,5.7822266c2.3608398,6.3740234,5.0268555,12.7119141,7.9243164,18.8369141
			c0.769043,1.6259766,2.3852539,2.5771484,4.0708008,2.5771484c0.6445312,0,1.2998047-0.1386719,1.9213867-0.4335938
			c2.246582-1.0625,3.2060547-3.7451172,2.1435547-5.9912109C70.9074707,837.3625488,68.3435059,831.2678223,66.072998,825.1379395z
			"/>
		<path style="fill:#7A695C;" d="M46.0778809,752.8859863c2.4770508-0.2050781,4.3183594-2.3789062,4.112793-4.8564453
			c-0.5175781-6.2490234-0.9316406-12.7412109-1.265625-19.8486328c-0.1171875-2.4833984-2.2329102-4.3925781-4.706543-4.2841797
			c-2.4824219,0.1171875-4.4003906,2.2236328-4.2836914,4.7060547c0.3388672,7.2158203,0.7602539,13.8134766,1.2866211,20.1708984
			c0.1948242,2.3496094,2.1630859,4.1279297,4.4799805,4.1279297
			C45.8259277,752.9016113,45.951416,752.8967285,46.0778809,752.8859863z"/>
		<path style="fill:#7A695C;" d="M43.2468262,602.5744629c2.4853516,0,4.5-2.0146484,4.5-4.5v-20.0517578
			c0-2.4853516-2.0146484-4.5-4.5-4.5s-4.5,2.0146484-4.5,4.5v20.0517578
			C38.7468262,600.5598145,40.7614746,602.5744629,43.2468262,602.5744629z"/>
		<path style="fill:#7A695C;" d="M43.5310059,702.8293457c0.0249023,0,0.050293,0,0.0751953-0.0009766
			c2.4848633-0.0400391,4.4663086-2.0878906,4.4257812-4.5722656c-0.097168-5.9414062-0.1655273-12.4521484-0.2080078-19.8798828
			c0-0.0224609-0.0004883-0.1425781-0.0009766-0.1650391c-0.0371094-2.4599609-2.0424805-4.3837891-4.4970703-4.3837891
			c-0.0161133,0-0.0327148,0.0009766-0.0493164,0.0009766c-2.4765625,0.0253906-4.4667969,2.0966797-4.4526367,4.5732422
			c0.0429688,7.4863281,0.1113281,14.0283203,0.2089844,20.0009766
			C39.0734863,700.8625488,41.079834,702.8293457,43.5310059,702.8293457z"/>
		<path style="fill:#7A695C;" d="M43.2487793,652.7023926c2.4853516-0.0009766,4.4995117-2.0166016,4.4985352-4.5019531
			l-0.0004883-20.0498047c0-2.4853516-2.0146484-4.5-4.5-4.5s-4.5,2.0146484-4.5,4.5l0.0004883,20.0537109
			C38.748291,650.6887207,40.7634277,652.7033691,43.2487793,652.7023926z"/>
		<path style="fill:#7A695C;" d="M59.7331543,203.1379395c0.5058594,0.1831055,1.0229492,0.2700195,1.53125,0.2700195
			c1.8413086,0,3.5688477-1.1386719,4.2319336-2.9697266c2.2260742-6.1503906,4.7441406-12.2626953,7.4833984-18.1669922
			c1.0458984-2.2543945,0.0664062-4.9301758-2.1879883-5.9760742c-2.2543945-1.0463867-4.9296875-0.0664062-5.9760742,2.1879883
			c-2.8491211,6.140625-5.4672852,12.496582-7.7822266,18.8916016
			C56.1877441,199.7116699,57.3962402,202.291748,59.7331543,203.1379395z"/>
		<path style="fill:#7A695C;" d="M617.5969238,47.7468262c2.4853516,0,4.5-2.0146484,4.5-4.5s-2.0146484-4.5-4.5-4.5H597.545166
			c-2.4853516,0-4.5,2.0146484-4.5,4.5s2.0146484,4.5,4.5,4.5H617.5969238z"/>
		<path style="fill:#7A695C;" d="M569.1867676,976.2531738h-20.0507812c-2.4853516,0-4.5,2.0146484-4.5,4.5s2.0146484,4.5,4.5,4.5
			h20.0507812c2.4853516,0,4.5-2.0146484,4.5-4.5S571.6721191,976.2531738,569.1867676,976.2531738z"/>
		<path style="fill:#7A695C;" d="M619.3156738,976.2531738H599.263916c-2.4853516,0-4.5,2.0146484-4.5,4.5s2.0146484,4.5,4.5,4.5
			h20.0517578c2.4853516,0,4.5-2.0146484,4.5-4.5S621.8010254,976.2531738,619.3156738,976.2531738z"/>
		<path style="fill:#7A695C;" d="M468.9304199,976.2531738h-20.0512695c-2.4853516,0-4.5,2.0146484-4.5,4.5s2.0146484,4.5,4.5,4.5
			h20.0512695c2.4853516,0,4.5-2.0146484,4.5-4.5S471.4157715,976.2531738,468.9304199,976.2531738z"/>
		<path style="fill:#7A695C;" d="M517.3400879,47.7468262c2.4853516,0,4.5-2.0146484,4.5-4.5s-2.0146484-4.5-4.5-4.5h-20.0512695
			c-2.4853516,0-4.5,2.0146484-4.5,4.5s2.0146484,4.5,4.5,4.5H517.3400879z"/>
		<path style="fill:#7A695C;" d="M567.4680176,47.7468262c2.4853516,0,4.5-2.0146484,4.5-4.5s-2.0146484-4.5-4.5-4.5h-20.0507812
			c-2.4853516,0-4.5,2.0146484-4.5,4.5s2.0146484,4.5,4.5,4.5H567.4680176z"/>
		<path style="fill:#7A695C;" d="M519.0588379,976.2531738h-20.0512695c-2.4853516,0-4.5,2.0146484-4.5,4.5s2.0146484,4.5,4.5,4.5
			h20.0512695c2.4853516,0,4.5-2.0146484,4.5-4.5S521.5441895,976.2531738,519.0588379,976.2531738z"/>
		<path style="fill:#7A695C;" d="M980.7531738,621.9387207c-2.4853516,0-4.5,2.0146484-4.5,4.5v20.0512695
			c0,2.4853516,2.0146484,4.5,4.5,4.5s4.5-2.0146484,4.5-4.5v-20.0512695
			C985.2531738,623.9533691,983.2385254,621.9387207,980.7531738,621.9387207z"/>
		<path style="fill:#7A695C;" d="M980.7121582,672.0671387c-0.0087891,0-0.0170898,0-0.0258789,0
			c-2.4731445,0-4.4853516,1.9980469-4.4995117,4.4746094l-0.0107422,1.8085938
			c-0.0380859,6.7353516-0.0976562,12.6879883-0.1806641,18.1987305c-0.0375977,2.4848633,1.9467773,4.5297852,4.4316406,4.5673828
			c2.5063477,0.0688477,4.5302734-1.9467773,4.5673828-4.4316406c0.0834961-5.5385742,0.1430664-11.5195312,0.1816406-18.2792969
			l0.0107422-1.8129883C985.2009277,674.1071777,983.1975098,672.0812988,980.7121582,672.0671387z"/>
		<path style="fill:#7A695C;" d="M980.7531738,571.810791c-2.4853516,0-4.5,2.0146484-4.5,4.5v20.0512695
			c0,2.4853516,2.0146484,4.5,4.5,4.5s4.5-2.0146484,4.5-4.5V576.310791
			C985.2531738,573.8254395,983.2385254,571.810791,980.7531738,571.810791z"/>
		<path style="fill:#7A695C;" d="M963.7097168,201.5183105c2.3305664-0.8632812,3.5200195-3.4521484,2.6567383-5.7822266
			c-2.3608398-6.3740234-5.0268555-12.7119141-7.9243164-18.8369141c-0.769043-1.6259766-2.3852539-2.5771484-4.0708008-2.5771484
			c-0.6445312,0-1.2998047,0.1386719-1.9213867,0.4335938c-2.246582,1.0625-3.2060547,3.7451172-2.1435547,5.9912109
			c2.7861328,5.890625,5.3500977,11.9853516,7.6206055,18.1152344
			C958.7902832,201.1921387,961.3791504,202.3796387,963.7097168,201.5183105z"/>
		<path style="fill:#7A695C;" d="M980.7531738,521.682373c-2.4853516,0-4.5,2.0146484-4.5,4.5v20.0512695
			c0,2.4853516,2.0146484,4.5,4.5,4.5s4.5-2.0146484,4.5-4.5V526.182373
			C985.2531738,523.6970215,983.2385254,521.682373,980.7531738,521.682373z"/>
		<path style="fill:#7A695C;" d="M979.848877,722.1853027c-0.0683594-0.0029297-0.1357422-0.0043945-0.2036133-0.0043945
			c-2.3930664,0-4.3842773,1.8852539-4.4921875,4.2998047c-0.3173828,7.1245117-0.7124023,13.6201172-1.206543,19.8579102
			c-0.1962891,2.4775391,1.652832,4.6450195,4.1303711,4.8413086c2.484375,0.1958008,4.6450195-1.6533203,4.8413086-4.1303711
			c0.5029297-6.3422852,0.9038086-12.9394531,1.2260742-20.168457
			C984.2546387,724.3986816,982.3317871,722.2961426,979.848877,722.1853027z"/>
		<path style="fill:#7A695C;" d="M964.2668457,820.8620605c-0.5058594-0.1831055-1.0229492-0.2700195-1.53125-0.2700195
			c-1.8413086,0-3.5688477,1.1386719-4.2319336,2.9697266c-2.2260742,6.1503906-4.7441406,12.2626953-7.4833984,18.1669922
			c-1.0458984,2.2543945-0.0664062,4.9301758,2.1879883,5.9760742c2.2543945,1.0463867,4.9296875,0.0664062,5.9760742-2.1879883
			c2.8491211-6.140625,5.4672852-12.496582,7.7822266-18.8916016
			C967.8122559,824.2883301,966.6037598,821.708252,964.2668457,820.8620605z"/>
		<path style="fill:#7A695C;" d="M977.9221191,271.1140137c-2.4770508,0.2050781-4.3183594,2.3789062-4.112793,4.8564453
			c0.5175781,6.2490234,0.9316406,12.7412109,1.265625,19.8486328c0.1171875,2.4833984,2.2329102,4.3925781,4.706543,4.2841797
			c2.4824219-0.1171875,4.4003906-2.2236328,4.2836914-4.7060547c-0.3388672-7.2158203-0.7602539-13.8134766-1.2866211-20.1708984
			c-0.1948242-2.3496094-2.1630859-4.1279297-4.4799805-4.1279297
			C978.1740723,271.0983887,978.048584,271.1032715,977.9221191,271.1140137z"/>
		<path style="fill:#7A695C;" d="M980.4689941,321.1706543c-0.0249023,0-0.050293,0-0.0751953,0.0009766
			c-2.4848633,0.0400391-4.4663086,2.0878906-4.4257812,4.5722656c0.097168,5.9414062,0.1655273,12.4521484,0.2080078,19.8798828
			c0,0.0224609,0.0004883,0.1425781,0.0009766,0.1650391c0.0371094,2.4599609,2.0424805,4.3837891,4.4970703,4.3837891
			c0.0161133,0,0.0327148-0.0009766,0.0493164-0.0009766c2.4765625-0.0253906,4.4667969-2.0966797,4.4526367-4.5732422
			c-0.0429688-7.4863281-0.1113281-14.0283203-0.2089844-20.0009766
			C984.9265137,323.1374512,982.920166,321.1706543,980.4689941,321.1706543z"/>
		<path style="fill:#7A695C;" d="M980.7531738,471.5544434c-2.4853516,0-4.5,2.0146484-4.5,4.5v20.0507812
			c0,2.4853516,2.0146484,4.5,4.5,4.5s4.5-2.0146484,4.5-4.5v-20.0507812
			C985.2531738,473.5690918,983.2385254,471.5544434,980.7531738,471.5544434z"/>
		<path style="fill:#7A695C;" d="M980.7512207,371.2976074c-2.4853516,0.0009766-4.4995117,2.0166016-4.4985352,4.5019531
			l0.0004883,20.0498047c0,2.4853516,2.0146484,4.5,4.5,4.5s4.5-2.0146484,4.5-4.5l-0.0004883-20.0537109
			C985.251709,373.3112793,983.2365723,371.2966309,980.7512207,371.2976074z"/>
		<path style="fill:#7A695C;" d="M980.7531738,421.4255371c-2.4853516,0-4.5,2.0146484-4.5,4.5v20.0517578
			c0,2.4853516,2.0146484,4.5,4.5,4.5s4.5-2.0146484,4.5-4.5v-20.0517578
			C985.2531738,423.4401855,983.2385254,421.4255371,980.7531738,421.4255371z"/>
		<path style="fill:#7A695C;" d="M966.4162598,227.1169434c1.1162109,4.7275391,2.1367188,9.6533203,3.0336914,14.6386719
			c0.2822266,1.5693359,0.5517578,3.1416016,0.809082,4.7158203c0.4008789,2.4511719,2.7124023,4.1132812,5.1669922,3.7148438
			c2.4526367-0.4013672,4.1157227-2.7148438,3.7148438-5.1679688c-0.2651367-1.6210938-0.5424805-3.2402344-0.8334961-4.8564453
			c-0.9248047-5.1435547-1.9790039-10.2285156-3.1323242-15.1132812c-0.4887695-2.0712891-2.3359375-3.4667969-4.3754883-3.4667969
			c-0.3422852,0-0.6904297,0.0390625-1.0380859,0.1210938C967.3425293,222.2741699,965.8449707,224.697998,966.4162598,227.1169434z
			"/>
		<path style="fill:#7A695C;" d="M975.6745605,772.1188965c-0.2382812-0.0375977-0.4746094-0.0556641-0.7080078-0.0556641
			c-2.175293,0-4.0888672,1.5810547-4.4394531,3.7978516c-0.3398438,2.1494141-0.7021484,4.296875-1.0776367,6.3833008
			c-0.7924805,4.4086914-1.6845703,8.7827148-2.6513672,12.9995117c-0.5551758,2.4228516,0.9580078,4.8364258,3.3803711,5.3920898
			c2.4272461,0.5571289,4.8364258-0.9580078,5.3920898-3.3803711c0.9985352-4.3554688,1.9194336-8.8701172,2.7368164-13.4189453
			c0.3867188-2.1479492,0.7597656-4.3588867,1.109375-6.5703125
			C979.8049316,774.8117676,978.1291504,772.5070801,975.6745605,772.1188965z"/>
		<path style="fill:#7A695C;" d="M774.7023926,53.2927246c2.4619141,0.3808594,4.7543945-1.3046875,5.1337891-3.7607422
			s-1.3046875-4.7548828-3.7607422-5.1337891c-6.3706055-0.9833984-13.1450195-1.8330078-20.1357422-2.5263672
			c-0.1508789-0.0146484-0.3007812-0.0214844-0.4492188-0.0214844c-2.2851562,0-4.2426758,1.734375-4.4726562,4.0566406
			c-0.2451172,2.4726562,1.5610352,4.6767578,4.0341797,4.921875
			C761.8811035,51.5056152,768.4924316,52.3347168,774.7023926,53.2927246z"/>
		<path style="fill:#7A695C;" d="M777.0925293,970.3879395c-0.2358398,0-0.4750977,0.0185547-0.715332,0.0566406
			c-6.2143555,0.9926758-12.8198242,1.8525391-19.6328125,2.5556641c-2.472168,0.2548828-4.2695312,2.4658203-4.0141602,4.9379883
			c0.2543945,2.4716797,2.4570312,4.2680664,4.9379883,4.0141602c6.9780273-0.7197266,13.7504883-1.6015625,20.1289062-2.6201172
			c2.4541016-0.3920898,4.1254883-2.699707,3.7338867-5.1538086
			C781.177002,971.9645996,779.2653809,970.3879395,777.0925293,970.3879395z"/>
		<path style="fill:#7A695C;" d="M727.2131348,975.1247559c-0.0688477,0-0.1376953,0.0014648-0.2070312,0.0043945
			c-4.9150391,0.2231445-10.0859375,0.40625-15.8085938,0.5610352c-1.3769531,0.0375977-2.7543945,0.0722656-4.1308594,0.1035156
			c-2.4848633,0.0571289-4.4526367,2.1176758-4.3959961,4.6025391c0.0566406,2.4838867,2.1347656,4.4257812,4.6020508,4.3955078
			c1.3901367-0.0322266,2.7792969-0.0668945,4.168457-0.1044922c5.7773438-0.1567383,11.0019531-0.3417969,15.972168-0.5668945
			c2.4829102-0.112793,4.4042969-2.2167969,4.2919922-4.6992188
			C731.5959473,977.0075684,729.6047363,975.1247559,727.2131348,975.1247559z"/>
		<path style="fill:#7A695C;" d="M677.0959473,976.1838379c-0.0087891,0-0.0180664,0-0.0268555,0
			c-6.6772461,0.0395508-13.3535156,0.0566406-20.0292969,0.0639648c-2.4853516,0.0029297-4.4980469,2.0195312-4.4951172,4.5048828
			c0.0024414,2.4838867,2.0170898,4.4951172,4.5,4.4951172c0.0014648,0,0.003418,0,0.0048828,0
			c6.6904297-0.0073242,13.3813477-0.0244141,20.0727539-0.0639648c2.4848633-0.0146484,4.487793-2.0415039,4.4731445-4.5263672
			C681.5808105,978.1809082,679.5690918,976.1838379,677.0959473,976.1838379z"/>
		<path style="fill:#7A695C;" d="M711.1975098,48.3083496c5.0957031,0.1386719,9.7084961,0.2978516,14.1020508,0.4863281
			c2.4785156,0.1015625,4.5825195-1.8193359,4.6884766-4.3027344c0.1069336-2.4833984-1.8193359-4.5830078-4.3022461-4.6894531
			c-4.4414062-0.1904297-9.1005859-0.3515625-14.2470703-0.4902344c-1.9628906-0.0527344-3.9257812-0.1005859-5.8886719-0.1435547
			c-0.0336914-0.0009766-0.0668945-0.0009766-0.1005859-0.0009766c-2.4389648,0-4.4428711,1.9501953-4.4970703,4.4013672
			c-0.0541992,2.484375,1.9155273,4.5429688,4.4003906,4.5976562
			C707.302002,48.2097168,709.2512207,48.2575684,711.1975098,48.3083496z"/>
		<path style="fill:#7A695C;" d="M675.3532715,47.8063965c2.4492188,0.0478516,4.5102539-1.9912109,4.5234375-4.4765625
			s-1.9912109-4.5107422-4.4765625-4.5234375c-6.6904297-0.0351562-13.3803711-0.0498047-20.0708008-0.0556641
			c-0.0014648,0-0.0024414,0-0.0043945,0c-2.4829102,0-4.4975586,2.0126953-4.4995117,4.4960938
			c-0.0024414,2.4853516,2.0107422,4.5019531,4.4960938,4.5039062
			C661.998291,47.7565918,668.6755371,47.7712402,675.3532715,47.8063965z"/>
		<path style="fill:#7A695C;" d="M822.4641113,65.1003418c2.3393555,0.8349609,4.9150391-0.3886719,5.7490234-2.7294922
			c0.8334961-2.3408203-0.3881836-4.9150391-2.7294922-5.7490234c-6.2993164-2.2431641-12.8613281-4.2744141-19.5024414-6.0371094
			c-0.387207-0.1025391-0.7749023-0.1513672-1.1572266-0.1513672c-1.9912109,0-3.8115234,1.3320312-4.3466797,3.3466797
			c-0.637207,2.4023438,0.793457,4.8662109,3.1953125,5.5039062
			C810.0754395,60.9821777,816.3977051,62.939209,822.4641113,65.1003418z"/>
		<path style="fill:#7A695C;" d="M943.1066895,866.2009277c-0.7480469-0.4746094-1.5825195-0.7011719-2.4072266-0.7011719
			c-1.4892578,0-2.9462891,0.7387695-3.8037109,2.0888672c-3.4975586,5.5097656-7.2822266,10.9311523-11.2475586,16.1132812
			c-1.5102539,1.9736328-1.1347656,4.7983398,0.8388672,6.3085938c1.9750977,1.5102539,4.7988281,1.1342773,6.3085938-0.8388672
			c4.1245117-5.3901367,8.0605469-11.0288086,11.6987305-16.7597656
			C945.826416,870.3137207,945.2053223,867.532959,943.1066895,866.2009277z"/>
		<path style="fill:#7A695C;" d="M825.5900879,958.0539551c-0.5117188,0-1.0322266,0.0878906-1.5405273,0.2729492
			c-6.0561523,2.2080078-12.3632812,4.2094727-18.7460938,5.949707c-2.3979492,0.6533203-3.8115234,3.1269531-3.1582031,5.5249023
			c0.6538086,2.3974609,3.1289062,3.8144531,5.5253906,3.1582031c6.6230469-1.8056641,13.1708984-3.8837891,19.4614258-6.1767578
			c2.3349609-0.8515625,3.5375977-3.4345703,2.6860352-5.7695312
			C829.1525879,959.1872559,827.4274902,958.0539551,825.5900879,958.0539551z"/>
		<path style="fill:#7A695C;" d="M942.2097168,156.3337402c2.0878906-1.3486328,2.6879883-4.1337891,1.340332-6.2216797
			c-3.6796875-5.7001953-7.6572266-11.3095703-11.8227539-16.6708984c-0.887207-1.1416016-2.2148438-1.7392578-3.5566406-1.7392578
			c-0.9648438,0-1.9375,0.3085938-2.7578125,0.9462891c-1.9628906,1.5253906-2.3173828,4.3525391-0.7929688,6.3144531
			c4.0053711,5.1552734,7.8305664,10.5488281,11.3686523,16.0302734
			C937.3361816,157.0817871,940.1213379,157.6794434,942.2097168,156.3337402z"/>
		<path style="fill:#7A695C;" d="M905.0549316,116.9304199c1.7680664,1.7460938,4.6176758,1.7285156,6.3642578-0.0400391
			c1.7460938-1.7685547,1.7280273-4.6181641-0.0400391-6.3642578c-4.8271484-4.7666016-9.9267578-9.3789062-15.1572266-13.7099609
			c-0.8398438-0.6953125-1.8564453-1.0341797-2.8676758-1.0341797c-1.2939453,0-2.5786133,0.5556641-3.46875,1.6298828
			c-1.5849609,1.9140625-1.3178711,4.7509766,0.5961914,6.3359375
			C895.5114746,107.9128418,900.4143066,112.3474121,905.0549316,116.9304199z"/>
		<path style="fill:#7A695C;" d="M909.435791,904.5598145c-1.1572266,0-2.3144531,0.4438477-3.1943359,1.3305664
			l-0.1757812,0.175293c-4.5512695,4.5512695-9.3588867,8.9614258-14.2905273,13.1074219
			c-1.9023438,1.5991211-2.1479492,4.4379883-0.5483398,6.340332c1.5991211,1.9023438,4.4375,2.1479492,6.340332,0.5483398
			c5.128418-4.3120117,10.1293945-8.8984375,14.8500977-13.6196289l0.2128906-0.2128906
			c1.7504883-1.7641602,1.7392578-4.6132812-0.0249023-6.3637695
			C911.7277832,904.994873,910.5817871,904.5598145,909.435791,904.5598145z"/>
		<path style="fill:#7A695C;" d="M870.4440918,935.9099121c-0.828125,0-1.6660156,0.2285156-2.4160156,0.7070312
			c-5.5053711,3.5126953-11.2294922,6.8212891-17.0126953,9.8334961c-2.2041016,1.1484375-3.0600586,3.8657227-1.9121094,6.0703125
			c1.1479492,2.2041016,3.8652344,3.0605469,6.0703125,1.9121094c6.015625-3.1337891,11.9692383-6.5751953,17.6953125-10.2290039
			c2.0952148-1.3369141,2.7099609-4.1186523,1.3730469-6.2138672
			C873.3835449,936.6447754,871.9299316,935.9099121,870.4440918,935.9099121z"/>
		<path style="fill:#7A695C;" d="M866.6047363,86.4831543c2.1040039,1.3212891,4.8818359,0.6855469,6.2036133-1.4189453
			c1.3212891-2.1054688,0.6855469-4.8828125-1.4194336-6.2041016c-5.7529297-3.6113281-11.7324219-7.0078125-17.7724609-10.0966797
			c-0.65625-0.3349609-1.3554688-0.4941406-2.0454102-0.4941406c-1.6357422,0-3.2138672,0.8955078-4.0097656,2.4521484
			c-1.1318359,2.2128906-0.2553711,4.9238281,1.9575195,6.0556641
			C855.3249512,79.7458496,861.0734863,83.0114746,866.6047363,86.4831543z"/>
	</g>
</g>
</svg>
