<?xml version="1.0" encoding="utf-8"?>
<!-- Generator: Adobe Illustrator 30.1.0, SVG Export Plug-In . SVG Version: 9.03 Build 0)  -->
<svg version="1.1" xmlns="http://www.w3.org/2000/svg" xmlns:xlink="http://www.w3.org/1999/xlink" x="0px" y="0px"
	 viewBox="0 0 1024 1024" style="enable-background:new 0 0 1024 1024;" xml:space="preserve">
<g>
</g>
<g id="_x33___x2013__Layer">
	<g style="opacity:0.31;">
		<path style="fill:#FFFFFF;" d="M980.7502441,658.6359863c-0.0009766,0-0.0029297,0-0.0039062,0
			c-2.4853516-0.0019531-4.4980469-2.0185547-4.4960938-4.5039062l0.0029297-9.9960938c0-2.4853516,2.0146484-4.5,4.5-4.5
			s4.5,2.0146484,4.5,4.5l-0.0029297,10.0039062C985.248291,656.6242676,983.2336426,658.6359863,980.7502441,658.6359863z"/>
		<path style="fill:#FFFFFF;" d="M649.3928223,985.2531738c-2.4853516,0.0009766-4.5-2.0136719-4.5009766-4.4990234
			s2.0136719-4.5,4.4990234-4.5009766c6.6787109-0.0019531,13.3574219-0.0078125,20.0361328-0.0322266
			c0.0058594,0,0.0117188,0,0.0166016,0c2.4775391,0,4.4912109,2.0039062,4.5,4.4833984
			c0.0087891,2.4853516-1.9980469,4.5078125-4.4833984,4.5166016
			C662.7717285,985.2453613,656.083252,985.2512207,649.3928223,985.2531738z M619.3156738,985.2531738H599.263916
			c-2.4853516,0-4.5-2.0146484-4.5-4.5s2.0146484-4.5,4.5-4.5h20.0517578c2.4853516,0,4.5,2.0146484,4.5,4.5
			S621.8010254,985.2531738,619.3156738,985.2531738z M569.1867676,985.2531738h-20.0507812c-2.4853516,0-4.5-2.0146484-4.5-4.5
			s2.0146484-4.5,4.5-4.5h20.0507812c2.4853516,0,4.5,2.0146484,4.5,4.5S571.6721191,985.2531738,569.1867676,985.2531738z
			 M519.0588379,985.2531738h-20.0512695c-2.4853516,0-4.5-2.0146484-4.5-4.5s2.0146484-4.5,4.5-4.5h20.0512695
			c2.4853516,0,4.5,2.0146484,4.5,4.5S521.5441895,985.2531738,519.0588379,985.2531738z M468.9304199,985.2531738h-20.0512695
			c-2.4853516,0-4.5-2.0146484-4.5-4.5s2.0146484-4.5,4.5-4.5h20.0512695c2.4853516,0,4.5,2.0146484,4.5,4.5
			S471.4157715,985.2531738,468.9304199,985.2531738z M418.8024902,985.2531738h-20.0512695c-2.4853516,0-4.5-2.0146484-4.5-4.5
			s2.0146484-4.5,4.5-4.5h20.0512695c2.4853516,0,4.5,2.0146484,4.5,4.5S421.2878418,985.2531738,418.8024902,985.2531738z
			 M368.6750488,985.2492676c-0.0019531,0-0.0029297,0-0.0043945,0c-6.6904297-0.0058594-13.3803711-0.0205078-20.0708008-0.0556641
			c-2.4853516-0.0126953-4.4897461-2.0380859-4.4765625-4.5234375s2.0742188-4.5244141,4.5234375-4.4765625
			c6.6777344,0.0351562,13.3549805,0.0498047,20.0317383,0.0556641c2.4853516,0.0019531,4.4985352,2.0185547,4.4960938,4.5039062
			C373.1726074,983.2365723,371.157959,985.2492676,368.6750488,985.2492676z M699.5178223,984.9484863
			c-2.4501953,0-4.4560547-1.9638672-4.4980469-4.4228516c-0.0429688-2.4853516,1.9365234-4.5341797,4.421875-4.5761719
			c3.9199219-0.0673828,7.8388672-0.1523438,11.7568359-0.2578125c2.7333984-0.0742188,5.46875-0.1591797,8.2050781-0.2558594
			c2.5117188-0.0791016,4.5693359,1.8535156,4.6572266,4.3369141c0.0878906,2.484375-1.8535156,4.5693359-4.3369141,4.6572266
			c-2.7626953,0.0986328-5.5234375,0.1835938-8.28125,0.2578125c-3.9492188,0.1074219-7.8974609,0.1923828-11.8466797,0.2597656
			C699.5695801,984.9484863,699.5432129,984.9484863,699.5178223,984.9484863z M318.5505371,984.8322754
			c-0.0336914,0-0.0668945,0-0.1005859-0.0009766c-1.9628906-0.0429688-3.9257812-0.0908203-5.8886719-0.1435547
			c-5.1464844-0.1386719-9.8056641-0.2998047-14.2470703-0.4902344c-2.4829102-0.1064453-4.4091797-2.2060547-4.3022461-4.6894531
			c0.105957-2.4833984,2.2099609-4.4042969,4.6884766-4.3027344c4.3935547,0.1884766,9.0063477,0.3476562,14.1020508,0.4863281
			c1.9462891,0.0507812,3.8955078,0.0986328,5.8447266,0.1416016c2.4848633,0.0546875,4.4545898,2.1132812,4.4003906,4.5976562
			C322.9934082,982.8820801,320.989502,984.8322754,318.5505371,984.8322754z M749.583252,982.6955566
			c-2.3125,0-4.2783203-1.7705078-4.4785156-4.1162109c-0.2119141-2.4765625,1.6240234-4.6552734,4.1005859-4.8671875
			c6.9570312-0.5947266,13.4023438-1.3017578,19.7041016-2.1621094c2.4560547-0.3359375,4.7304688,1.3886719,5.0673828,3.8505859
			c0.3359375,2.4628906-1.3876953,4.7314453-3.8505859,5.0673828c-6.453125,0.8798828-13.0458984,1.6035156-20.1552734,2.2109375
			C749.8410645,982.6906738,749.7111816,982.6955566,749.583252,982.6955566z M268.5095215,982.1496582
			c-0.1484375,0-0.2983398-0.0068359-0.4492188-0.0214844c-6.9907227-0.6933594-13.7651367-1.5429688-20.1357422-2.5263672
			c-2.4560547-0.3789062-4.1401367-2.6777344-3.7607422-5.1337891s2.671875-4.1416016,5.1337891-3.7607422
			c6.2099609,0.9580078,12.8212891,1.7871094,19.6503906,2.4638672c2.4731445,0.2451172,4.2792969,2.4492188,4.0341797,4.921875
			C272.7521973,980.4152832,270.7946777,982.1496582,268.5095215,982.1496582z M799.0715332,975.020752
			c-2.03125,0-3.8740234-1.3847656-4.3710938-3.4472656c-0.5820312-2.4160156,0.9052734-4.8466797,3.3212891-5.4287109
			c6.4667969-1.5576172,12.8378906-3.3623047,18.9345703-5.3623047c2.3603516-0.7792969,4.9052734,0.5107422,5.6787109,2.8720703
			c0.7753906,2.3623047-0.5107422,4.9042969-2.8730469,5.6787109c-6.3251953,2.0761719-12.9306641,3.9472656-19.6328125,5.5615234
			C799.7756348,974.9797363,799.420166,975.020752,799.0715332,975.020752z M219.1760254,973.5666504
			c-0.3823242,0-0.7700195-0.0488281-1.1572266-0.1513672c-6.6411133-1.7626953-13.203125-3.7939453-19.5024414-6.0371094
			c-2.3413086-0.8339844-3.5629883-3.4082031-2.7294922-5.7490234c0.8339844-2.3408203,3.409668-3.5644531,5.7490234-2.7294922
			c6.0664062,2.1611328,12.3886719,4.1181641,18.7915039,5.8164062c2.4018555,0.6376953,3.8325195,3.1015625,3.1953125,5.5039062
			C222.9875488,972.2346191,221.1672363,973.5666504,219.1760254,973.5666504z M846.2541504,958.3654785
			c-1.6767578,0-3.2861328-0.9414062-4.0595703-2.5537109c-1.0751953-2.2412109-0.1308594-4.9287109,2.109375-6.0039062
			c1.6191406-0.7773438,3.2333984-1.5751953,4.8457031-2.3955078c4.2119141-2.1435547,8.4140625-4.4541016,12.4892578-6.8671875
			c2.140625-1.2646484,4.8994141-0.5576172,6.1650391,1.5791016c1.2666016,2.1386719,0.5585938,4.8994141-1.5791016,6.1650391
			c-4.2402344,2.5107422-8.6113281,4.9140625-12.9921875,7.1435547c-1.6738281,0.8525391-3.3525391,1.6816406-5.0341797,2.4882812
			C847.5705566,958.2229004,846.9074707,958.3654785,846.2541504,958.3654785z M172.4289551,955.7307129
			c-0.6899414,0-1.3891602-0.1591797-2.0454102-0.4941406c-6.0400391-3.0888672-12.0195312-6.4853516-17.7724609-10.0966797
			c-2.1049805-1.3212891-2.7407227-4.0986328-1.4194336-6.2041016c1.3217773-2.1044922,4.0996094-2.7402344,6.2036133-1.4189453
			c5.53125,3.4716797,11.2797852,6.7373047,17.0859375,9.7060547c2.2128906,1.1318359,3.0893555,3.8427734,1.9575195,6.0556641
			C175.6428223,954.8352051,174.0646973,955.7307129,172.4289551,955.7307129z M888.7365723,931.942627
			c-1.3339844,0-2.6542969-0.5898438-3.5419922-1.7207031c-1.5351562-1.9541016-1.1953125-4.7832031,0.7597656-6.3183594
			c5.1347656-4.0332031,10.1513672-8.3408203,14.9111328-12.8017578c1.8134766-1.7001953,4.6621094-1.6064453,6.3603516,0.2060547
			c1.6992188,1.8125,1.6074219,4.6601562-0.2060547,6.3603516c-4.9492188,4.6386719-10.1660156,9.1181641-15.5068359,13.3134766
			C890.6887207,931.6291504,889.7092285,931.942627,888.7365723,931.942627z M130.645752,928.2180176
			c-1.0112305,0-2.027832-0.3388672-2.8676758-1.0341797c-5.2304688-4.3310547-10.3300781-8.9433594-15.1572266-13.7099609
			c-1.7680664-1.7460938-1.7861328-4.5957031-0.0400391-6.3642578c1.746582-1.7685547,4.5961914-1.7861328,6.3642578-0.0400391
			c4.640625,4.5830078,9.543457,9.0175781,14.5732422,13.1826172c1.9140625,1.5849609,2.1811523,4.421875,0.5961914,6.3359375
			C133.2243652,927.6623535,131.9396973,928.2180176,130.645752,928.2180176z M924.4709473,896.935791
			c-1.0029297,0-2.0126953-0.3339844-2.8486328-1.0195312c-1.9228516-1.5742188-2.2041016-4.4101562-0.6289062-6.3320312
			c4.1367188-5.0498047,8.0996094-10.3417969,11.7783203-15.7304688c1.4023438-2.0527344,4.2011719-2.5791016,6.2539062-1.1796875
			c2.0527344,1.4013672,2.5810547,4.2021484,1.1796875,6.2539062c-3.8271484,5.6044922-7.9482422,11.1083984-12.2509766,16.359375
			C927.0646973,896.373291,925.7736816,896.935791,924.4709473,896.935791z M95.8293457,892.2980957
			c-1.3417969,0-2.6694336-0.5976562-3.5566406-1.7392578c-4.1655273-5.3613281-8.1430664-10.9707031-11.8227539-16.6708984
			c-1.3476562-2.0878906-0.7475586-4.8730469,1.340332-6.2216797c2.0883789-1.3457031,4.8735352-0.7480469,6.2211914,1.3408203
			c3.5380859,5.4814453,7.3632812,10.875,11.3686523,16.0302734c1.5244141,1.9619141,1.1699219,4.7890625-0.7929688,6.3144531
			C97.7668457,891.989502,96.7941895,892.2980957,95.8293457,892.2980957z M951.763916,855.0109863
			c-0.6816406,0-1.3730469-0.1552734-2.0234375-0.4833984c-2.21875-1.1201172-3.109375-3.8261719-1.9902344-6.0449219
			c2.9472656-5.8398438,5.6679688-11.8662109,8.0849609-17.9121094c0.9238281-2.3076172,3.5410156-3.4296875,5.8496094-2.5078125
			c2.3076172,0.9228516,3.4306641,3.5419922,2.5078125,5.8496094c-2.5146484,6.2871094-5.34375,12.5537109-8.4072266,18.625
			C954.9934082,854.1057129,953.4084473,855.0109863,951.763916,855.0109863z M69.6286621,849.6779785
			c-1.6855469,0-3.3017578-0.9511719-4.0708008-2.5771484c-2.8974609-6.125-5.5634766-12.4628906-7.9243164-18.8369141
			c-0.8632812-2.3300781,0.3261719-4.9189453,2.6567383-5.7822266c2.3305664-0.8613281,4.9194336,0.3261719,5.7827148,2.65625
			c2.2705078,6.1298828,4.8344727,12.2246094,7.6206055,18.1152344c1.0625,2.2460938,0.1030273,4.9287109-2.1435547,5.9912109
			C70.9284668,849.5393066,70.2731934,849.6779785,69.6286621,849.6779785z M969.3693848,808.1809082
			c-0.375,0-0.7568359-0.046875-1.1367188-0.1464844c-2.4052734-0.6259766-3.8466797-3.0830078-3.2207031-5.4882812
			c1.6083984-6.1796875,3.0371094-12.6582031,4.2480469-19.2548828c0.4472656-2.4443359,2.7919922-4.0654297,5.2373047-3.6132812
			c2.4453125,0.4482422,4.0634766,2.7929688,3.6142578,5.2373047c-1.2490234,6.8125-2.7265625,13.5068359-4.390625,19.8984375
			C973.1945801,806.8381348,971.3684082,808.1809082,969.3693848,808.1809082z M53.2004395,802.4182129
			c-2.0395508,0-3.8867188-1.3955078-4.3754883-3.4667969c-1.1533203-4.8847656-2.2075195-9.9697266-3.1323242-15.1132812
			c-0.2910156-1.6162109-0.5683594-3.2353516-0.8334961-4.8564453c-0.4008789-2.453125,1.262207-4.7666016,3.7148438-5.1679688
			c2.4545898-0.3984375,4.7661133,1.2636719,5.1669922,3.7148438c0.2573242,1.5742188,0.5268555,3.1464844,0.809082,4.7158203
			c0.8969727,4.9853516,1.9174805,9.9111328,3.0336914,14.6386719c0.5712891,2.4189453-0.9262695,4.8427734-3.3452148,5.4140625
			C53.8908691,802.3791504,53.5427246,802.4182129,53.2004395,802.4182129z M977.7697754,758.8117676
			c-0.1435547,0-0.2890625-0.0068359-0.4365234-0.0205078c-2.4736328-0.2382812-4.2861328-2.4365234-4.0478516-4.9111328
			c0.6035156-6.2714844,1.0908203-12.7529297,1.4873047-19.8154297c0.1396484-2.4814453,2.2705078-4.3769531,4.7460938-4.2402344
			c2.4814453,0.1396484,4.3798828,2.2646484,4.2402344,4.7460938c-0.4042969,7.1826172-0.8994141,13.7802734-1.5146484,20.1728516
			C982.0197754,757.0705566,980.060791,758.8117676,977.7697754,758.8117676z M45.701416,752.9016113
			c-2.3168945,0-4.2851562-1.7783203-4.4799805-4.1279297c-0.5263672-6.3574219-0.9477539-12.9550781-1.2866211-20.1708984
			c-0.1166992-2.4824219,1.8012695-4.5888672,4.2836914-4.7060547c2.4736328-0.1083984,4.5893555,1.8007812,4.706543,4.2841797
			c0.3339844,7.1074219,0.7480469,13.5996094,1.265625,19.8486328c0.2055664,2.4775391-1.6357422,4.6513672-4.112793,4.8564453
			C45.951416,752.8967285,45.8259277,752.9016113,45.701416,752.9016113z M980.3596191,708.7629395
			c-0.0322266,0-0.0644531,0-0.0957031-0.0009766c-2.4853516-0.0517578-4.4570312-2.1083984-4.4052734-4.5927734
			c0.1269531-6.0810547,0.2177734-12.6210938,0.2783203-19.9931641c0.0205078-2.4726562,2.03125-4.4628906,4.4990234-4.4628906
			c0.0126953,0,0.0253906,0,0.0380859,0c2.4853516,0.0205078,4.4833984,2.0517578,4.4628906,4.5371094
			c-0.0605469,7.4101562-0.1523438,13.9873047-0.2802734,20.1064453
			C984.8059082,706.8098145,982.8010254,708.7629395,980.3596191,708.7629395z M43.5310059,702.8293457
			c-2.4511719,0-4.4575195-1.9667969-4.4980469-4.4267578c-0.0976562-5.9726562-0.1660156-12.5146484-0.2089844-20.0009766
			c-0.0141602-2.4765625,1.9760742-4.5478516,4.4526367-4.5732422c0.0166016,0,0.0332031-0.0009766,0.0493164-0.0009766
			c2.4545898,0,4.4599609,1.9238281,4.4970703,4.3837891c0.0004883,0.0224609,0.0009766,0.1425781,0.0009766,0.1650391
			c0.0424805,7.4277344,0.1108398,13.9384766,0.2080078,19.8798828c0.0405273,2.484375-1.940918,4.5322266-4.4257812,4.5722656
			C43.5812988,702.8293457,43.5559082,702.8293457,43.5310059,702.8293457z M43.2487793,652.7023926
			c-2.4853516,0.0009766-4.5004883-2.0136719-4.5014648-4.4980469l-0.0004883-20.0537109c0-2.4853516,2.0146484-4.5,4.5-4.5
			s4.5,2.0146484,4.5,4.5l0.0004883,20.0498047C47.748291,650.685791,45.7341309,652.701416,43.2487793,652.7023926z
			 M43.2468262,602.5744629c-2.4853516,0-4.5-2.0146484-4.5-4.5v-20.0517578c0-2.4853516,2.0146484-4.5,4.5-4.5
			s4.5,2.0146484,4.5,4.5v20.0517578C47.7468262,600.5598145,45.7321777,602.5744629,43.2468262,602.5744629z
			 M43.2468262,552.4455566c-2.4853516,0-4.5-2.0146484-4.5-4.5v-20.0507812c0-2.4853516,2.0146484-4.5,4.5-4.5
			s4.5,2.0146484,4.5,4.5v20.0507812C47.7468262,550.4309082,45.7321777,552.4455566,43.2468262,552.4455566z
			 M43.2468262,502.317627c-2.4853516,0-4.5-2.0146484-4.5-4.5v-20.0512695c0-2.4853516,2.0146484-4.5,4.5-4.5
			s4.5,2.0146484,4.5,4.5v20.0512695C47.7468262,500.3029785,45.7321777,502.317627,43.2468262,502.317627z M43.2468262,452.189209
			c-2.4853516,0-4.5-2.0146484-4.5-4.5v-20.0512695c0-2.4853516,2.0146484-4.5,4.5-4.5s4.5,2.0146484,4.5,4.5v20.0512695
			C47.7468262,450.1745605,45.7321777,452.189209,43.2468262,452.189209z M43.2468262,402.0612793
			c-2.4853516,0-4.5-2.0146484-4.5-4.5v-20.0512695c0-2.4853516,2.0146484-4.5,4.5-4.5s4.5,2.0146484,4.5,4.5v20.0512695
			C47.7468262,400.0466309,45.7321777,402.0612793,43.2468262,402.0612793z M43.3137207,351.9328613
			c-0.0087891,0-0.0170898,0-0.0258789,0c-2.4853516-0.0141602-4.4887695-2.0400391-4.4746094-4.5253906l0.0107422-1.8129883
			c0.0385742-6.7597656,0.0981445-12.7407227,0.1816406-18.2792969c0.0371094-2.4848633,2.0610352-4.5004883,4.5673828-4.4316406
			c2.4848633,0.0375977,4.4692383,2.0825195,4.4316406,4.5673828c-0.0830078,5.5107422-0.1425781,11.4633789-0.1806641,18.1987305
			l-0.0107422,1.8085938C47.7990723,349.9348145,45.7868652,351.9328613,43.3137207,351.9328613z M980.6203613,342.5617676
			c-2.4667969,0-4.4765625-1.9882812-4.4990234-4.4599609c-0.0644531-7.293457-0.1630859-13.8320312-0.2998047-19.9887695
			c-0.0546875-2.4848633,1.9140625-4.5439453,4.3994141-4.5991211c0.0332031-0.0004883,0.0673828-0.0009766,0.1015625-0.0009766
			c2.4384766,0,4.4423828,1.9492188,4.4970703,4.3999023c0.1376953,6.1972656,0.2363281,12.7749023,0.3017578,20.1088867
			c0.0214844,2.4853516-1.9746094,4.5175781-4.4599609,4.5400391
			C980.6477051,342.5617676,980.6340332,342.5617676,980.6203613,342.5617676z M44.3547363,301.8190918
			c-0.0678711,0-0.1352539-0.0014648-0.2036133-0.0043945c-2.4829102-0.1108398-4.4057617-2.2133789-4.2954102-4.6958008
			c0.3222656-7.2290039,0.7231445-13.8261719,1.2260742-20.168457c0.1962891-2.4770508,2.3569336-4.3261719,4.8413086-4.1303711
			c2.4775391,0.1962891,4.3266602,2.3637695,4.1303711,4.8413086c-0.4941406,6.237793-0.8891602,12.7333984-1.206543,19.8579102
			C48.7390137,299.9338379,46.7478027,301.8190918,44.3547363,301.8190918z M979.1633301,292.4597168
			c-2.3642578,0-4.3466797-1.8432617-4.4882812-4.2333984c-0.4189453-7.0678711-0.9277344-13.5463867-1.5556641-19.8056641
			c-0.2480469-2.4731445,1.5556641-4.6787109,4.0283203-4.9267578c2.4609375-0.2470703,4.6787109,1.5551758,4.9267578,4.0283203
			c0.6396484,6.3823242,1.1582031,12.9799805,1.5849609,20.1713867c0.1474609,2.4804688-1.7451172,4.6113281-4.2255859,4.7583008
			C979.3430176,292.4572754,979.2521973,292.4597168,979.1633301,292.4597168z M49.0334473,251.9367676
			c-0.2333984,0-0.4697266-0.0180664-0.7080078-0.0556641c-2.4545898-0.3881836-4.1303711-2.6928711-3.7421875-5.1474609
			c0.3496094-2.2114258,0.7226562-4.4223633,1.109375-6.5703125c0.8173828-4.5488281,1.7382812-9.0634766,2.7368164-13.4189453
			c0.5556641-2.4223633,2.9648438-3.9375,5.3920898-3.3803711c2.4223633,0.5556641,3.9355469,2.9692383,3.3803711,5.3920898
			c-0.9667969,4.2167969-1.8588867,8.5908203-2.6513672,12.9995117c-0.3754883,2.0864258-0.737793,4.2338867-1.0776367,6.3833008
			C53.1223145,250.3557129,51.2087402,251.9367676,49.0334473,251.9367676z M973.3654785,242.7038574
			c-2.1201172,0-4.0078125-1.5043945-4.4160156-3.6630859c-1.2470703-6.5800781-2.7167969-13.0463867-4.3681641-19.21875
			c-0.6425781-2.4008789,0.7832031-4.8676758,3.1835938-5.5102539c2.4003906-0.6416016,4.8671875,0.7832031,5.5097656,3.184082
			c1.7089844,6.3867188,3.2285156,13.0712891,4.5166016,19.8691406c0.4628906,2.4418945-1.1416016,4.7963867-3.5830078,5.2592773
			C973.9250488,242.6779785,973.6428223,242.7038574,973.3654785,242.7038574z M61.2644043,203.407959
			c-0.5083008,0-1.0253906-0.0869141-1.53125-0.2700195c-2.3369141-0.8461914-3.5454102-3.4262695-2.699707-5.7631836
			c2.3149414-6.3950195,4.9331055-12.7509766,7.7822266-18.8916016c1.0463867-2.2543945,3.7216797-3.234375,5.9760742-2.1879883
			c2.2543945,1.0458984,3.2338867,3.7216797,2.1879883,5.9760742c-2.7392578,5.9042969-5.2573242,12.0166016-7.4833984,18.1669922
			C64.833252,202.2692871,63.1057129,203.407959,61.2644043,203.407959z M959.3723145,194.6657715
			c-1.7744141,0-3.4550781-1.0556641-4.1679688-2.7993164c-2.3427734-5.7363281-4.9648438-11.4609375-7.7929688-17.015625
			l-0.4287109-0.8393555c-1.1347656-2.2114258-0.2607422-4.9233398,1.9501953-6.0576172
			c2.2138672-1.1362305,4.9248047-0.2602539,6.0576172,1.9501953l0.4423828,0.8652344
			c2.9394531,5.7744141,5.6660156,11.7280273,8.1035156,17.6938477c0.9394531,2.3007812-0.1640625,4.9277344-2.4638672,5.8676758
			C960.5148926,194.5583496,959.9387207,194.6657715,959.3723145,194.6657715z M83.3005371,158.5002441
			c-0.824707,0-1.6591797-0.2265625-2.4072266-0.7011719c-2.0986328-1.3320312-2.7197266-4.112793-1.3876953-6.2109375
			c3.6381836-5.730957,7.5742188-11.3696289,11.6987305-16.7597656c1.5097656-1.9731445,4.3334961-2.3491211,6.3085938-0.8388672
			c1.9736328,1.5102539,2.3491211,4.3349609,0.8388672,6.3085938c-3.965332,5.1821289-7.75,10.6035156-11.2475586,16.1132812
			C86.2468262,157.7614746,84.7897949,158.5002441,83.3005371,158.5002441z M935.5168457,150.692627
			c-1.4248047,0-2.8271484-0.675293-3.7011719-1.9350586c-3.7216797-5.3632812-7.7246094-10.6264648-11.8974609-15.6420898
			c-1.5888672-1.9106445-1.328125-4.7480469,0.5820312-6.3374023c1.9121094-1.5888672,4.7480469-1.328125,6.3378906,0.581543
			c4.3388672,5.2163086,8.5009766,10.6894531,12.3720703,16.2670898c1.4169922,2.0419922,0.9101562,4.8457031-1.1318359,6.2626953
			C937.2961426,150.4318848,936.4016113,150.692627,935.5168457,150.692627z M114.564209,119.4401855
			c-1.1459961,0-2.2919922-0.4350586-3.1694336-1.3056641c-1.7641602-1.7504883-1.7753906-4.5996094-0.0249023-6.3637695
			l0.2128906-0.2128906c4.7207031-4.7211914,9.7216797-9.3076172,14.8500977-13.6196289
			c1.902832-1.5996094,4.7412109-1.3540039,6.340332,0.5483398c1.5996094,1.9023438,1.3540039,4.7412109-0.5483398,6.340332
			c-4.9316406,4.1459961-9.7392578,8.5561523-14.2905273,13.1074219l-0.1757812,0.175293
			C116.8786621,118.9963379,115.7214355,119.4401855,114.564209,119.4401855z M902.6818848,112.9436035
			c-1.0917969,0-2.1865234-0.3950195-3.0527344-1.1943359c-4.7910156-4.4257812-9.8398438-8.6953125-15.0048828-12.6889648
			c-1.9658203-1.5205078-2.3271484-4.3466797-0.8066406-6.3129883s4.3476562-2.3261719,6.3125-0.8071289
			c5.3720703,4.1542969,10.6220703,8.5942383,15.6064453,13.1977539c1.8251953,1.6865234,1.9384766,4.5332031,0.2519531,6.3588867
			C905.1018066,112.4572754,903.8937988,112.9436035,902.6818848,112.9436035z M153.5559082,88.0900879
			c-1.4858398,0-2.9394531-0.7348633-3.7978516-2.0800781c-1.3369141-2.0952148-0.722168-4.8769531,1.3730469-6.2138672
			c5.7260742-3.6538086,11.6796875-7.0952148,17.6953125-10.2290039c2.2050781-1.1484375,4.9223633-0.2919922,6.0703125,1.9121094
			c1.1479492,2.2045898,0.2919922,4.921875-1.9121094,6.0703125c-5.7832031,3.012207-11.5073242,6.3208008-17.0126953,9.8334961
			C155.2219238,87.8615723,154.3840332,88.0900879,153.5559082,88.0900879z M862.442627,83.2121582
			c-0.7685547,0-1.5478516-0.1967773-2.2597656-0.6113281c-3.5976562-2.0942383-7.3105469-4.1171875-11.0332031-6.012207
			c-2.1015625-1.0703125-4.2441406-2.1186523-6.3662109-3.1166992c-2.25-1.0571289-3.2158203-3.737793-2.1582031-5.9868164
			c1.0576172-2.2495117,3.7392578-3.2148438,5.9863281-2.1577148c2.2080078,1.0371094,4.4355469,2.1279297,6.6210938,3.2407227
			c3.8730469,1.9711914,7.734375,4.0756836,11.4775391,6.2543945c2.1474609,1.25,2.8759766,4.0048828,1.6259766,6.152832
			C865.5002441,82.4108887,863.9924316,83.2121582,862.442627,83.2121582z M198.4099121,65.9460449
			c-1.8374023,0-3.5625-1.1333008-4.2280273-2.9594727c-0.8515625-2.3349609,0.3510742-4.9179688,2.6860352-5.7695312
			c6.2905273-2.2929688,12.8383789-4.3710938,19.4614258-6.1767578c2.3964844-0.65625,4.871582,0.7607422,5.5253906,3.1582031
			c0.6533203,2.3979492-0.7602539,4.871582-3.1582031,5.5249023c-6.3828125,1.7402344-12.6899414,3.7416992-18.7460938,5.949707
			C199.4421387,65.8581543,198.9216309,65.9460449,198.4099121,65.9460449z M816.7277832,62.9152832
			c-0.4541016,0-0.9160156-0.0693359-1.3720703-0.215332c-6.1152344-1.9570312-12.5-3.7182617-18.9775391-5.2348633
			c-2.4199219-0.5664062-3.9228516-2.9873047-3.3564453-5.4072266c0.5673828-2.4199219,2.9882812-3.9257812,5.4072266-3.3554688
			c6.7109375,1.5708008,13.328125,3.3959961,19.6699219,5.4257812c2.3662109,0.7573242,3.6708984,3.2900391,2.9140625,5.6572266
			C820.4006348,61.6960449,818.6320801,62.9152832,816.7277832,62.9152832z M246.9074707,53.6120605
			c-2.1728516,0-4.0844727-1.5766602-4.4384766-3.7905273c-0.3916016-2.4541016,1.2797852-4.7617188,3.7338867-5.1538086
			c6.378418-1.0185547,13.1508789-1.9003906,20.1289062-2.6201172c2.480957-0.2539062,4.6835938,1.5424805,4.9379883,4.0141602
			c0.2553711,2.472168-1.5419922,4.6831055-4.0141602,4.9379883c-6.8129883,0.703125-13.418457,1.5629883-19.6328125,2.5556641
			C247.3825684,53.5935059,247.1433105,53.6120605,246.9074707,53.6120605z M767.817627,52.2644043
			c-0.1953125,0-0.3935547-0.0126953-0.5917969-0.0390625c-6.3037109-0.828125-12.7539062-1.5078125-19.7197266-2.0776367
			c-2.4765625-0.2026367-4.3203125-2.3745117-4.1181641-4.8515625s2.3720703-4.3291016,4.8525391-4.1181641
			c7.1132812,0.581543,13.7070312,1.2768555,20.1572266,2.1240234c2.4648438,0.3242188,4.1992188,2.5839844,3.8759766,5.0483398
			C771.9758301,50.6154785,770.0422363,52.2644043,767.817627,52.2644043z M296.7868652,48.8752441
			c-2.3916016,0-4.3828125-1.8828125-4.4921875-4.2963867c-0.1123047-2.4824219,1.809082-4.5864258,4.2919922-4.6992188
			c4.9702148-0.2250977,10.1948242-0.4101562,15.972168-0.5668945c1.3891602-0.0375977,2.7783203-0.0722656,4.168457-0.1044922
			c2.4672852-0.0302734,4.5454102,1.9116211,4.6020508,4.3955078c0.0566406,2.4848633-1.9111328,4.5454102-4.3959961,4.6025391
			c-1.3764648,0.03125-2.7539062,0.065918-4.1308594,0.1035156c-5.7226562,0.1547852-10.8935547,0.3378906-15.8085938,0.5610352
			C296.9245605,48.8737793,296.8557129,48.8752441,296.7868652,48.8752441z M717.8479004,48.5085449
			c-0.0517578,0-0.1025391-0.0009766-0.1542969-0.0024414c-2.1660156-0.0727539-4.3310547-0.1376953-6.4951172-0.1962891
			c-4.3095703-0.1171875-8.7158203-0.2104492-13.46875-0.2861328c-2.4853516-0.0395508-4.4677734-2.0864258-4.4277344-4.5712891
			c0.0390625-2.4848633,2.1064453-4.4702148,4.5703125-4.4277344c4.7880859,0.0761719,9.2265625,0.1704102,13.5703125,0.2880859
			c2.1835938,0.0595703,4.3681641,0.1245117,6.5537109,0.1982422c2.484375,0.0839844,4.4296875,2.1650391,4.3457031,4.6489258
			C722.2609863,46.592041,720.2629395,48.5085449,717.8479004,48.5085449z M346.9040527,47.8161621
			c-2.4731445,0-4.4848633-1.9970703-4.4995117-4.4736328c-0.0146484-2.4848633,1.9882812-4.5117188,4.4731445-4.5263672
			c6.6914062-0.0395508,13.3823242-0.0566406,20.0727539-0.0639648c0.0014648,0,0.003418,0,0.0048828,0
			c2.4829102,0,4.4975586,2.0112305,4.5,4.4951172c0.0029297,2.4853516-2.0097656,4.5019531-4.4951172,4.5048828
			c-6.6757812,0.0073242-13.3520508,0.0244141-20.0292969,0.0639648
			C346.9221191,47.8161621,346.9128418,47.8161621,346.9040527,47.8161621z M667.7258301,47.7736816
			c-0.0048828,0-0.0087891,0-0.0146484,0c-6.6787109-0.0209961-13.3574219-0.0258789-20.0380859-0.0268555
			c-2.4853516-0.0004883-4.4990234-2.0151367-4.4990234-4.5004883s2.0146484-4.4995117,4.5-4.4995117c0,0,0,0,0.0009766,0
			c6.6884766,0.0009766,13.3769531,0.0058594,20.0654297,0.0268555c2.484375,0.0078125,4.4931641,2.0288086,4.4853516,4.5141602
			C672.2180176,45.7683105,670.2043457,47.7736816,667.7258301,47.7736816z M617.5969238,47.7468262H597.545166
			c-2.4853516,0-4.5-2.0146484-4.5-4.5s2.0146484-4.5,4.5-4.5h20.0517578c2.4853516,0,4.5,2.0146484,4.5,4.5
			S620.0822754,47.7468262,617.5969238,47.7468262z M567.4680176,47.7468262h-20.0507812c-2.4853516,0-4.5-2.0146484-4.5-4.5
			s2.0146484-4.5,4.5-4.5h20.0507812c2.4853516,0,4.5,2.0146484,4.5,4.5S569.9533691,47.7468262,567.4680176,47.7468262z
			 M517.3400879,47.7468262h-20.0512695c-2.4853516,0-4.5-2.0146484-4.5-4.5s2.0146484-4.5,4.5-4.5h20.0512695
			c2.4853516,0,4.5,2.0146484,4.5,4.5S519.8254395,47.7468262,517.3400879,47.7468262z M467.2121582,47.7468262h-20.0512695
			c-2.4853516,0-4.5-2.0146484-4.5-4.5s2.0146484-4.5,4.5-4.5h20.0512695c2.4853516,0,4.5,2.0146484,4.5,4.5
			S469.6975098,47.7468262,467.2121582,47.7468262z M417.0837402,47.7468262h-20.0512695c-2.4853516,0-4.5-2.0146484-4.5-4.5
			s2.0146484-4.5,4.5-4.5h20.0512695c2.4853516,0,4.5,2.0146484,4.5,4.5S419.5690918,47.7468262,417.0837402,47.7468262z"/>
		<path style="fill:#FFFFFF;" d="M980.7531738,382.7946777c-2.4853516,0-4.5-2.0146484-4.5-4.5l-0.0039062-9.9956055
			c-0.0019531-2.4853516,2.0107422-4.5019531,4.4960938-4.5039062c0.0009766,0,0.0029297,0,0.0039062,0
			c2.4833984,0,4.4980469,2.012207,4.5,4.4960938l0.0039062,10.003418
			C985.2531738,380.7800293,983.2385254,382.7946777,980.7531738,382.7946777z"/>
	</g>
	<path style="opacity:0.31;fill:#FFFFFF;" d="M1219.3103027,615.6660156h-20c-2.4853516,0-4.5-2.0146484-4.5-4.5
		s2.0146484-4.5,4.5-4.5h20c2.4853516,0,4.5,2.0146484,4.5,4.5S1221.7956543,615.6660156,1219.3103027,615.6660156z
		 M1266.4729004,615.6660156h-20c-2.4853516,0-4.5-2.0146484-4.5-4.5s2.0146484-4.5,4.5-4.5h20c2.4853516,0,4.5,2.0146484,4.5,4.5
		S1268.958252,615.6660156,1266.4729004,615.6660156z M1169.3103027,615.6660156h-20c-2.4853516,0-4.5-2.0146484-4.5-4.5
		s2.0146484-4.5,4.5-4.5h20c2.4853516,0,4.5,2.0146484,4.5,4.5S1171.7956543,615.6660156,1169.3103027,615.6660156z
		 M1119.3103027,615.6660156h-20c-2.4853516,0-4.5-2.0146484-4.5-4.5s2.0146484-4.5,4.5-4.5h20c2.4853516,0,4.5,2.0146484,4.5,4.5
		S1121.7956543,615.6660156,1119.3103027,615.6660156z M1069.3103027,615.6660156h-20c-2.4853516,0-4.5-2.0146484-4.5-4.5
		s2.0146484-4.5,4.5-4.5h20c2.4853516,0,4.5,2.0146484,4.5,4.5S1071.7956543,615.6660156,1069.3103027,615.6660156z
		 M1019.3103027,615.6660156h-20c-2.4853516,0-4.5-2.0146484-4.5-4.5s2.0146484-4.5,4.5-4.5h20c2.4853516,0,4.5,2.0146484,4.5,4.5
		S1021.7956543,615.6660156,1019.3103027,615.6660156z M969.3103027,615.6660156h-20c-2.4853516,0-4.5-2.0146484-4.5-4.5
		s2.0146484-4.5,4.5-4.5h20c2.4853516,0,4.5,2.0146484,4.5,4.5S971.7956543,615.6660156,969.3103027,615.6660156z
		 M919.3103027,615.6660156h-20c-2.4853516,0-4.5-2.0146484-4.5-4.5s2.0146484-4.5,4.5-4.5h20c2.4853516,0,4.5,2.0146484,4.5,4.5
		S921.7956543,615.6660156,919.3103027,615.6660156z M869.3278809,615.3300781c-0.1240234,0-0.2480469-0.0048828-0.3740234-0.015625
		c-6.9492188-0.5712891-13.8535156-1.8496094-20.5195312-3.7988281c-2.3847656-0.6982422-3.7529297-3.1972656-3.0556641-5.5830078
		c0.6972656-2.3837891,3.1962891-3.7529297,5.5830078-3.0556641c6.0830078,1.7792969,12.3847656,2.9462891,18.7304688,3.4677734
		c2.4765625,0.2041016,4.3193359,2.3769531,4.1152344,4.8544922
		C873.6140137,613.5507812,871.6462402,615.3300781,869.3278809,615.3300781z M822.6247559,599.046875
		c-0.859375,0-1.7275391-0.2451172-2.4960938-0.7587891c-5.78125-3.8623047-11.1972656-8.3291016-16.0976562-13.2763672
		c-1.7490234-1.765625-1.7353516-4.6152344,0.0302734-6.3642578c1.7666016-1.7490234,4.6152344-1.7353516,6.3642578,0.0302734
		c4.4765625,4.5195312,9.4228516,8.5996094,14.703125,12.1279297c2.0664062,1.3798828,2.6220703,4.1748047,1.2412109,6.2412109
		C825.5026855,598.3447266,824.0769043,599.046875,822.6247559,599.046875z M789.6345215,562.2001953
		c-1.6269531,0-3.1982422-0.8847656-3.9990234-2.4296875c-3.2070312-6.1855469-5.7910156-12.7158203-7.6806641-19.4091797
		c-0.6748047-2.3925781,0.7167969-4.8789062,3.1083984-5.5537109c2.3964844-0.6748047,4.8789062,0.7167969,5.5537109,3.1083984
		c1.7236328,6.1083984,4.0810547,12.0673828,7.0087891,17.7119141c1.1435547,2.2060547,0.2822266,4.921875-1.9238281,6.0664062
		C791.0397949,562.0371094,790.3317871,562.2001953,789.6345215,562.2001953z M778.604248,513.9902344
		c-0.0351562,0-0.0693359-0.0009766-0.1044922-0.0019531c-2.4853516-0.0566406-4.453125-2.1166992-4.3964844-4.6015625
		c0.1601562-6.9804688,1.0224609-13.9467773,2.5654297-20.7050781c0.5527344-2.4223633,2.9628906-3.9418945,5.3876953-3.3862305
		c2.4228516,0.5527344,3.9394531,2.965332,3.3867188,5.3881836c-1.4082031,6.1699219-2.1962891,12.5317383-2.3417969,18.9091797
		C783.0446777,512.0419922,781.041748,513.9902344,778.604248,513.9902344z M792.0495605,466.4033203
		c-0.7724609,0-1.5537109-0.1987305-2.2675781-0.6166992c-2.1455078-1.2543945-2.8671875-4.0107422-1.6132812-6.15625
		c3.5097656-5.9995117,7.6464844-11.6728516,12.2949219-16.8613281c1.6582031-1.8486328,4.5019531-2.0078125,6.3544922-0.3486328
		c1.8505859,1.6586914,2.0068359,4.503418,0.3486328,6.3544922c-4.2460938,4.7392578-8.0244141,9.9204102-11.2285156,15.3994141
		C795.1013184,465.6054688,793.595459,466.4033203,792.0495605,466.4033203z M826.8737793,431.2670898
		c-1.53125,0-3.0253906-0.7822266-3.8671875-2.1933594c-1.2744141-2.1337891-0.578125-4.8964844,1.5556641-6.1708984
		c5.984375-3.5727539,12.3476562-6.5449219,18.9121094-8.8334961c2.3476562-0.8164062,4.9130859,0.4213867,5.7304688,2.7685547
		c0.8183594,2.3466797-0.4208984,4.9121094-2.7675781,5.7304688c-5.9912109,2.0878906-11.7988281,4.800293-17.2607422,8.0620117
		C828.4538574,431.0620117,827.6589355,431.2670898,826.8737793,431.2670898z M874.3269043,417.3803711
		c-2.4179688,0-4.4169922-1.9208984-4.4951172-4.355957c-0.0791016-2.4838867,1.8701172-4.5620117,4.3535156-4.6416016
		c1.1132812-0.0356445,2.2314453-0.0537109,3.3535156-0.0537109h16.7900391c2.4853516,0,4.5,2.0146484,4.5,4.5
		s-2.0146484,4.5-4.5,4.5h-16.7900391c-1.0263672,0-2.046875,0.0161133-3.0644531,0.0488281
		C874.4245605,417.3793945,874.3757324,417.3803711,874.3269043,417.3803711z M1244.3288574,417.3291016h-20
		c-2.4853516,0-4.5-2.0146484-4.5-4.5s2.0146484-4.5,4.5-4.5h20c2.4853516,0,4.5,2.0146484,4.5,4.5
		S1246.814209,417.3291016,1244.3288574,417.3291016z M1194.3288574,417.3291016h-20c-2.4853516,0-4.5-2.0146484-4.5-4.5
		s2.0146484-4.5,4.5-4.5h20c2.4853516,0,4.5,2.0146484,4.5,4.5S1196.814209,417.3291016,1194.3288574,417.3291016z
		 M1144.3288574,417.3291016h-20c-2.4853516,0-4.5-2.0146484-4.5-4.5s2.0146484-4.5,4.5-4.5h20c2.4853516,0,4.5,2.0146484,4.5,4.5
		S1146.814209,417.3291016,1144.3288574,417.3291016z M1094.3288574,417.3291016h-20c-2.4853516,0-4.5-2.0146484-4.5-4.5
		s2.0146484-4.5,4.5-4.5h20c2.4853516,0,4.5,2.0146484,4.5,4.5S1096.814209,417.3291016,1094.3288574,417.3291016z
		 M1044.3288574,417.3291016h-20c-2.4853516,0-4.5-2.0146484-4.5-4.5s2.0146484-4.5,4.5-4.5h20c2.4853516,0,4.5,2.0146484,4.5,4.5
		S1046.814209,417.3291016,1044.3288574,417.3291016z M994.3288574,417.3291016h-20c-2.4853516,0-4.5-2.0146484-4.5-4.5
		s2.0146484-4.5,4.5-4.5h20c2.4853516,0,4.5,2.0146484,4.5,4.5S996.814209,417.3291016,994.3288574,417.3291016z
		 M944.3288574,417.3291016h-20c-2.4853516,0-4.5-2.0146484-4.5-4.5s2.0146484-4.5,4.5-4.5h20c2.4853516,0,4.5,2.0146484,4.5,4.5
		S946.814209,417.3291016,944.3288574,417.3291016z"/>
</g>
</svg>
