<?xml version="1.0" encoding="utf-8"?>
<!-- Generator: Adobe Illustrator 30.1.0, SVG Export Plug-In . SVG Version: 9.03 Build 0)  -->
<svg version="1.1" xmlns="http://www.w3.org/2000/svg" xmlns:xlink="http://www.w3.org/1999/xlink" x="0px" y="0px"
	 viewBox="0 0 1024 1024" style="enable-background:new 0 0 1024 1024;" xml:space="preserve">
<g>
</g>
<g id="_x33___x2013__Layer">
	<g>
		<g>
			
				<path style="fill:none;stroke:#663C1F;stroke-width:10;stroke-linecap:round;stroke-linejoin:round;stroke-dasharray:19.951889,19.951889;" d="
				M996.0012207,643.3987427c0,13.4638672,0.0056152,26.9255981-0.0794067,40.3894653
				c-0.0651855,11.3403931-0.1959839,22.6782837-0.5032349,34.0152588
				c-0.6696167,24.7044678-2.1236572,49.6234131-6.5151978,74.0537109
				c-4.4550781,24.7834473-11.725708,47.8494873-23.1875,70.3672485
				c-11.2653809,22.1318359-25.9857788,42.3850708-43.5460815,59.9453735s-37.8135376,32.2807007-59.9453735,43.5460205
				c-22.5177612,11.461853-45.5837402,18.7324219-70.3672485,23.187561
				c-24.4302368,4.3915405-49.3492432,5.8455811-74.0537109,6.5151978
				c-11.3369751,0.307251-22.6748657,0.4380493-34.0151978,0.5032349
				c-13.4638672,0.085022-26.9255981,0.0793457-40.3894653,0.0793457H380.6011963
				c-13.4638672,0-26.9255981,0.0056763-40.3894653-0.0793457c-11.340332-0.0651855-22.6782227-0.1959839-34.0151978-0.5032349
				c-24.7044983-0.6696167-49.6235046-2.1236572-74.0536957-6.5151978
				c-24.7835388-4.4551392-47.8495331-11.725708-70.3672943-23.187561
				c-22.1318207-11.2653198-42.3850632-25.9857178-59.945343-43.5460205s-32.2806854-37.8135376-43.546051-59.9453735
				c-11.4618301-22.5177612-18.73246-45.5838013-23.1875114-70.3672485
				c-4.3915825-24.4302979-5.8456173-49.3492432-6.5151958-74.0537109
				c-0.3072968-11.3369751-0.438097-22.6748657-0.5032368-34.0152588
				c-0.085104-13.4638672-0.0794487-26.9255981-0.0794487-40.3894653V380.6011963
				c0-13.4638672-0.0056553-26.9255981,0.0794487-40.3894653c0.0651398-11.340332,0.19594-22.6782837,0.5032368-34.0151978
				c0.6695786-24.7044983,2.1236134-49.6235046,6.5151958-74.0536957
				c4.4550514-24.7835388,11.7256813-47.8495331,23.1875114-70.3673553
				c11.2653656-22.1317596,25.9857788-42.3850021,43.546051-59.945282s37.8135223-32.2806854,59.945343-43.5460548
				c22.5177612-11.4618874,45.5837555-18.7324562,70.3672943-23.1875076
				c24.430191-4.3916416,49.3491974-5.8456173,74.0536957-6.515255c11.3369751-0.3072395,22.6748657-0.4380379,34.0151978-0.5032368
				c13.4638672-0.0850468,26.9255981-0.0793915,40.3894653-0.0793915h262.7976074
				c13.4638672,0,26.9255981-0.0056553,40.3894653,0.0793915c11.340332,0.0651989,22.6782227,0.1959972,34.0151978,0.5032368
				c24.7044678,0.6696377,49.6234741,2.1236134,74.0537109,6.515255
				c24.7835083,4.4550514,47.8494873,11.7256203,70.3672485,23.1875076
				c22.1318359,11.2653694,42.3850708,25.9857826,59.9453735,43.5460548s32.2807007,37.8135223,43.5460815,59.945282
				c11.461792,22.5178223,18.7324219,45.5838165,23.1875,70.3673553c4.3915405,24.430191,5.8455811,49.3491974,6.5151978,74.0536957
				c0.307251,11.3369141,0.4380493,22.6748657,0.5032349,34.0151978c0.085022,13.4638672,0.0794067,26.9255981,0.0794067,40.3894653
				V643.3987427z"/>
		</g>
	</g>
</g>
</svg>
