<?xml version="1.0" encoding="utf-8"?>
<!-- Generator: Adobe Illustrator 30.1.0, SVG Export Plug-In . SVG Version: 9.03 Build 0)  -->
<svg version="1.1" xmlns="http://www.w3.org/2000/svg" xmlns:xlink="http://www.w3.org/1999/xlink" x="0px" y="0px"
	 viewBox="0 0 1024 1024" style="enable-background:new 0 0 1024 1024;" xml:space="preserve">
<g>
</g>
<g id="Layer_11">
	<path style="fill:#FF7900;" d="M650.1081543,520.807251c-18.4768677-18.6716614-46.5923462-31.9799805-84.3358154-39.932373
		l-64.9655762-14.3043823c-19.874115-4.3683472-33.8799744-10.0301819-42.0197144-16.9865723
		c-8.1482239-6.9468079-12.2181091-15.9894714-12.2181091-27.1183777c0-15.0960999,6.6494141-27.4168701,19.966217-36.9527588
		c13.3083191-9.5369568,31.8868408-14.3043518,55.7271118-14.3043518c22.6494751,0,43.704834,3.2781067,63.178833,9.8343811
		c6.487793,2.1854248,12.7116699,4.7133179,18.6713867,7.5833435c18.4730835,8.8961792,40.5877075,0.5881958,47.9707031-18.5400391
		l1.6252441-4.2108765c6.0180664-15.5919189,0.1987305-33.3615723-14.0247803-42.1374817
		c-9.4501953-5.8307495-19.9825439-10.7683105-31.5952148-14.8127136
		c-8.8033447-3.0645142-17.6999512-5.6392517-26.6887817-7.7323608
		c-15.7861328-3.6759033-26.953125-17.7396545-26.953125-33.9481201v-2.4119263
		c0-19.2631531-15.6158447-34.8790131-34.8789673-34.8790131h-1.1668701c-19.2631226,0-34.8789673,15.61586-34.8789673,34.8790131
		v4.9795532c0,15.6835327-10.5187683,29.2719727-25.590271,33.6104126
		c-11.9135132,3.4293823-22.9575806,7.9386597-33.1164856,13.5490723
		c-20.8606262,11.5289917-37.1581116,26.624054-48.8734131,45.2967834
		c-11.7248535,18.6812134-17.582489,39.9324036-17.582489,63.772644c0,30.9934998,8.9399414,56.1282959,26.8209229,75.395874
		c17.8799438,19.2771301,45.0914612,32.8829041,81.653656,40.8268127l65.5604553,14.3043823
		c20.6573486,4.7684937,35.164978,10.532959,43.5100708,17.2839966
		c8.3429565,6.7615967,12.5155029,15.4962158,12.5155029,26.2250366c0,12.7208252-5.9592896,23.5427856-17.8799438,32.4827881
		c-11.9206543,8.9399414-31.5894165,13.4099121-59.0052185,13.4099121c-25.4332581,0-49.673645-3.7713623-72.7136841-11.3236694
		c-9.8273315-3.2164917-19.2213135-6.9407959-28.1812134-11.1715698
		c-18.7237854-8.8411255-40.9798584,0.0754395-48.0048523,19.5535278l-2.5640869,7.109436
		c-5.9578247,16.519165,1.3536377,34.7678223,16.9211121,42.8938599
		c12.0775146,6.3043213,25.3363647,11.6757812,39.7765808,16.1162109
		c12.1871338,3.7529907,24.7796936,6.6917114,37.7703247,8.8358765
		c16.7591248,2.7662354,28.9830322,17.3782959,28.9830322,34.3641968v0.000061
		c0,19.2631226,15.6158447,34.8790283,34.8789673,34.8790283h1.1668701c19.2631226,0,34.8789673-15.6159058,34.8789673-34.8790283
		v-5.4727173c0-15.5166016,10.2950439-29.0325317,25.1587524-33.486145
		c11.9445801-3.5790405,23.0328979-8.166626,33.2505493-13.7781982
		c20.2657471-11.1193848,36.1536255-25.7211914,47.6826782-43.8064575
		c11.5184326-18.0757446,17.2828979-38.8336792,17.2828979-62.2833862
		C677.8214111,563.7203369,668.5829468,539.4884644,650.1081543,520.807251z"/>
</g>
</svg>
