<?xml version="1.0" encoding="utf-8"?>
<!-- Generator: Adobe Illustrator 30.1.0, SVG Export Plug-In . SVG Version: 9.03 Build 0)  -->
<svg version="1.1" id="Layer_1" xmlns="http://www.w3.org/2000/svg" xmlns:xlink="http://www.w3.org/1999/xlink" x="0px" y="0px"
	 viewBox="0 0 1024 1024" style="enable-background:new 0 0 1024 1024;" xml:space="preserve">
<circle style="fill:none;" cx="417.0880737" cy="133.3008423" r="36.1865158"/>
<ellipse transform="matrix(0.9238794 -0.3826837 0.3826837 0.9238794 -0.3682398 281.1118774)" style="fill:none;" cx="706.4377441" cy="141.4815674" rx="24.7610226" ry="24.7609806"/>
<g>
	<path d="M974.1633301,335.6448364l-0.0234985-0.1221313c-86.0772705-39.2469482-145.7180176-123.4857178-146.0389404-221.243103
		c0-0.0357056,0.0014038-0.071167,0.0014038-0.1068726c0-46.4439087-37.6474609-84.0946655-84.0899658-84.1004639v-0.0001221
		c-0.001709,0-0.0036011,0.000061-0.005249,0.000061c-0.0018921,0-0.0036011-0.000061-0.0054321-0.000061v0.0001221
		c-46.4425049,0.0057983-84.0899658,37.6565552-84.0899658,84.1004639c0,0.0357056,0.0014038,0.071167,0.0014038,0.1068726
		c-0.1741943,53.0599976-17.8300171,102.1330566-47.6975098,142.1952515
		c36.720459,75.8996582,100.2088623,137.3598633,178.7653809,173.1777954l0.0343628,0.1784668
		c40.5588379,20.4243774,68.3085938,62.8253784,68.3085938,111.2676392v143.1765747h98.9160767
		c34.6083984,0,62.6641846-28.0556641,62.6641846-62.6641235V411.7808228
		C1020.9041748,378.633728,1001.9161377,349.6204224,974.1633301,335.6448364z M744.0070801,138.5598755
		c-13.6751709,0-24.7610474-11.0858765-24.7610474-24.7609863s11.0858765-24.7609863,24.7610474-24.7609863
		c13.6751099,0,24.7609253,11.0858765,24.7609253,24.7609863S757.6821899,138.5598755,744.0070801,138.5598755z"/>
	<path d="M753.4459839,457.5137939l-0.0343628-0.1784668c-78.5565186-35.8179321-142.0449219-97.2781372-178.7653809-173.1777954
		c-22.081604-45.6417847-34.4845581-96.5045166-34.6607056-150.1541748c0-0.0521851,0.0020752-0.1040039,0.0020752-0.156189
		c0-67.8746338-55.0192261-122.8986816-122.8918457-122.9071655v-0.0001221c-0.0024414,0-0.005188,0.000061-0.0076904,0.000061
		c-0.0026855,0-0.005188-0.000061-0.0078735-0.000061v0.0001221
		c-67.8726196,0.0084839-122.8917847,55.0325317-122.8917847,122.9071655c0,0.0521851,0.0020142,0.1040039,0.0020142,0.156189
		c-0.4689941,142.8658447-87.6298828,265.9751587-213.4259644,323.3319702l-0.0344238,0.1784668
		c-40.5588989,20.4243774-68.3085327,62.8253784-68.3085327,111.2676392v306.6528931
		c0,50.5779419,41.0015259,91.5794067,91.5794067,91.5794067h170.6867065c0,25.4307861,20.6156006,46.0463867,46.0463867,46.0463867
		h62.5132446h25.300415h8.5325317h0.015564h8.5325317h25.3004761h62.5131836
		c25.4307861,0,46.0463867-20.6156006,46.0463867-46.0463867h170.6867065c50.5778809,0,91.5795288-41.0014648,91.5795288-91.5794067
		V711.9580078V568.7814331C821.7545776,520.3391724,794.0048218,477.9381714,753.4459839,457.5137939z M417.0880737,169.4873657
		c-19.9852905,0-36.1865234-16.2012939-36.1865234-36.1865234c0-19.9852905,16.2012329-36.1865234,36.1865234-36.1865234
		c19.9853516,0,36.1864624,16.2012329,36.1864624,36.1865234
		C453.2745361,153.2860718,437.0734253,169.4873657,417.0880737,169.4873657z"/>
</g>
</svg>
