<svg id="Capa_1" enable-background="new 0 0 512 512" height="512" viewBox="0 0 512 512" width="512" xmlns="http://www.w3.org/2000/svg"><g><path d="m106 120v15c0 41.4 33.6 75 75 75s75-33.6 75-75v-15z"/><path d="m256 45v15h-150v-15c0-24.9 20.1-45 45-45h60c24.9 0 45 20.1 45 45z"/><path d="m271 60c-8.019 0-167.024 0-180 0-8.4 0-15 6.6-15 15s6.6 15 15 15h180c8.4 0 15-6.6 15-15s-6.6-15-15-15z"/><path d="m421 150c8.401 0 15 6.599 15 15v45h45c8.401 0 15-6.601 15-15v-52.8c0-47.1-26.1-89.7-68.401-110.7-4.199-2.1-9-2.1-13.198 0-42.301 21-68.401 63.599-68.401 110.7v52.8c0 8.399 6.599 15 15 15h45v-45c0-8.401 6.599-15 15-15z"/><path d="m406 210v216.612c-8.8 5.237-15 14.431-15 25.388v30c0 16.538 13.462 30 30 30s30-13.462 30-30v-30c0-10.957-6.2-20.151-15-25.388v-216.612z"/><path d="m106 512h150v-182h-150zm30-121c0-8.291 6.709-15 15-15h60c8.291 0 15 6.709 15 15v30c0 24.814-20.186 45-45 45s-45-20.186-45-45z"/><path d="m181 436c8.276 0 15-6.724 15-15v-15h-30v15c0 8.276 6.724 15 15 15z"/><path d="m31 512h45v-197c0-8.291 6.709-15 15-15h15v-88.484c-50.75 7.357-90 50.729-90 103.484v182c0 8.291 6.709 15 15 15z"/><path d="m256 211.516v88.484h15c8.291 0 15 6.709 15 15v197h83.344c-5.167-8.86-8.344-19.023-8.344-30v-30h-15v-137c0-52.755-39.25-96.127-90-103.484z"/><path d="m181 240c-16.165 0-31.307-3.977-45-10.532v70.532h90v-70.532c-13.693 6.555-28.835 10.532-45 10.532z"/></g></svg>