<svg xmlns="http://www.w3.org/2000/svg" viewBox="0 0 64 64"><title>Agriculture Icon Editable Expanded</title><g id="Layer_17" data-name="Layer 17"><path d="M49.075,20.548H14.925a1,1,0,0,1,0-2h34.15a1,1,0,0,1,0,2Zm8.881,32.52V62a1,1,0,0,1-1,1H43.1a1,1,0,0,1,0-2H47V51a1,1,0,0,0-1-1H27.868a1,1,0,1,1,0-2H41V36.588q-.736-.068-1.487-.068H39.3L32.76,43.057a1,1,0,0,1-1.409.006L24.707,36.52h-.115c-.533,0-1.064.035-1.592.086V48h2.009a1,1,0,0,1,0,2H18a1,1,0,0,0-1,1V61H35.908a1,1,0,0,1,0,2H7.044a1,1,0,0,1-1-1V53.068a18.618,18.618,0,0,1,5.849-13.5,1,1,0,1,1,1.371,1.456,16.61,16.61,0,0,0-5.22,12.045V61H15V51a3,3,0,0,1,2-2.816V38.378c-.242.126-.483.251-.719.389a1,1,0,0,1-1.008-1.728,18.491,18.491,0,0,1,8.844-2.5V34.4a8.968,8.968,0,0,1-3.468-7.077V25.806a5.012,5.012,0,0,1-2.735-1.58H13.243a4.8,4.8,0,0,1-5.1-4.573,4.906,4.906,0,0,1,5.1-4.677h31.7C44.472,8.286,41.316,3,37.655,3a4.476,4.476,0,0,0-2.7.958,5.146,5.146,0,0,1-6.475-.008A3.861,3.861,0,0,0,26.016,3c-2.918,0-5.647,3.819-6.635,9.287a1,1,0,0,1-1.969-.356C18.6,5.393,22.052,1,26.016,1a5.819,5.819,0,0,1,3.716,1.389,3.135,3.135,0,0,0,4.02-.027A6.447,6.447,0,0,1,37.655,1c4.89,0,8.782,5.945,9.29,13.976h3.812a4.906,4.906,0,0,1,5.1,4.677,4.8,4.8,0,0,1-5.1,4.573H46.088a4.983,4.983,0,0,1-2.737,1.581v1.517A8.968,8.968,0,0,1,39.883,34.4v.136A18.477,18.477,0,0,1,57.649,49.7a1,1,0,0,1-.8,1.165,1.045,1.045,0,0,1-.183.016,1,1,0,0,1-.982-.819A16.545,16.545,0,0,0,47,38.353v9.831A3,3,0,0,1,49,51V61h6.956V53.068a1,1,0,0,1,2,0ZM29.636,34.31h4.728a6.994,6.994,0,0,0,6.987-6.986V24.907a1,1,0,0,1,1-1,2.99,2.99,0,0,0,2.837-2.036,1,1,0,0,1,1.266-.63.988.988,0,0,1,.665.985h3.638a2.84,2.84,0,0,0,3.1-2.573,2.913,2.913,0,0,0-3.1-2.677H13.243a2.913,2.913,0,0,0-3.1,2.677,2.84,2.84,0,0,0,3.1,2.573H16.89a.994.994,0,0,1,1.934-.319,3,3,0,0,0,2.825,2,1,1,0,0,1,1,1v2.417A6.994,6.994,0,0,0,29.636,34.31ZM21,36.924a16.558,16.558,0,0,0-2,.579V48h2Zm16.112-1.048a8.921,8.921,0,0,1-2.748.434H29.636a8.93,8.93,0,0,1-2.721-.424l5.132,5.055ZM43,48h2V37.476a16.222,16.222,0,0,0-2-.565ZM40.112,61H39.054a1,1,0,0,0,0,2h1.058a1,1,0,0,0,0-2Z"/></g></svg>