<svg width="222" height="231" viewBox="0 0 222 231" fill="none" xmlns="http://www.w3.org/2000/svg">
<g clip-path="url(#clip0_29_4353)">
<path d="M81.4186 116.05C92.988 113.318 103.93 108.803 114.317 103.202L165.044 121.258C166.096 121.648 167.185 121.836 168.263 121.836C171.396 121.836 174.439 120.255 176.184 117.498L184.905 104.216C185.45 104.815 187.537 105.039 187.97 104.357C187.97 104.357 190.616 102.707 193.821 96.0589C194.264 95.1386 193.417 91.8001 193.057 90.8436L197.059 84.5239C198.475 82.2862 198.876 79.536 198.158 76.9879C197.762 75.5731 197.03 74.2954 196.06 73.2307C197.001 71.1699 197.199 68.8275 196.583 66.6223C196.485 66.2758 196.348 65.9473 196.179 65.6333C199.586 64.6047 203.75 63.0203 206.263 61.6416C210.016 59.5807 213.077 55.6539 212.039 51.0594C211.188 45.8044 205.967 44.238 201.504 44.6278C186.809 45.9451 167.805 58.0721 155.554 66.2794C137.831 79.0307 119.786 92.1899 99.683 100.643C86.7508 106.19 72.7406 110.2 58.698 109.395C48.4265 108.792 38.4686 105.443 30.9263 98.4591C23.5066 91.5944 18.7404 81.6041 18.5205 71.455C18.4448 64.5253 21.1704 57.8844 24.9379 52.1457C31.687 42.0039 42.4705 35.6372 54.1445 32.6488C54.6961 32.5081 54.5447 31.6815 53.9786 31.7573C52.7636 31.9198 51.5559 32.1183 50.3481 32.3493C35.3392 35.2366 21.4516 45.2233 15.4776 59.6565C10.459 70.8126 12.4131 83.9609 18.3078 94.3843C30.811 116.815 58.2004 121.713 81.415 116.054L81.4186 116.05ZM192.181 96.0481C190.832 98.8272 186.697 104.84 186.023 101.411C185.547 98.9932 183.477 94.2868 183.081 93.3484L183.063 93.3809C182.493 92.1033 181.732 90.7462 180.698 89.3278C178.935 86.9204 176.4 84.3579 172.784 81.7918C171.663 80.9941 170.635 80.3697 169.73 79.8175C168.303 78.9477 167.07 78.197 166.972 77.6195C166.918 77.2983 167.091 76.4429 168.844 74.3424C171.926 70.6465 174.197 71.4153 179.346 74.5697C179.746 74.8152 180.608 75.4396 181.019 75.685C183.203 77.0023 185.529 78.3702 186.729 80.1171C187.793 81.6618 193.23 93.879 192.177 96.0481H192.181ZM193.753 82.4234L191.661 85.7294C191.355 84.8343 190.894 83.6288 190.493 82.658L190.562 82.2465C190.551 82.2213 190.533 82.196 190.522 82.1707L193.893 76.8471C194.102 77.2225 194.275 77.6195 194.394 78.049C194.816 79.5541 194.589 81.1096 193.756 82.427L193.753 82.4234ZM196.849 49.8178C200.534 48.7134 207.575 46.6706 208.855 51.7596C210.139 57.0218 204.284 60.0499 200.152 61.8292C198.843 62.3417 196.006 62.8037 194.178 63.3812C193.053 62.5042 191.716 61.8076 190.493 61.2049L180.489 57.5632C185.724 54.5134 191.157 51.691 196.853 49.8214L196.849 49.8178ZM141.89 85.3143C152.699 76.876 163.356 68.1959 174.958 60.8981L175.481 61.111C175.517 61.1255 175.553 61.1327 175.585 61.1327C175.697 61.1327 175.802 61.0677 175.845 60.9558C175.903 60.8114 175.834 60.6454 175.69 60.5877L175.546 60.5299C176.195 60.1257 176.844 59.7251 177.496 59.3281C177.511 59.3172 177.529 59.31 177.543 59.2992L189.632 64.6228C190.94 65.2796 191.878 66.4165 192.274 67.8314C192.675 69.257 192.458 70.7332 191.669 71.9855L187.746 78.1826C187.631 78.0382 187.515 77.8938 187.407 77.7531L187.396 77.7819C186.131 76.2588 184.552 74.8224 182.554 73.6205C182.151 73.3787 181.754 73.1333 181.361 72.8915C176.721 70.0474 171.468 66.8244 166.695 72.5486C164.679 74.9668 163.958 76.5656 164.211 78.0779C164.517 79.9186 166.172 80.9292 168.27 82.2068C169.136 82.7338 170.116 83.3329 171.162 84.0728C174.158 86.1986 176.321 88.2919 177.882 90.2554C177.875 90.2626 177.864 90.2698 177.857 90.277L177.612 90.6199C177.521 90.7462 177.55 90.9231 177.676 91.0133C177.727 91.0494 177.785 91.0674 177.839 91.0674C177.925 91.0674 178.012 91.0277 178.069 90.9483L178.239 90.7137C178.538 91.1107 178.816 91.5041 179.072 91.8903L170.798 104.963C169.503 107.006 166.922 107.875 164.665 107.038L130.079 93.6769C134.103 90.9952 138.036 88.1945 141.89 85.3143ZM124.152 97.4954L163.104 111.232C164.189 111.636 165.31 111.828 166.421 111.828C169.647 111.828 172.78 110.2 174.576 107.359L181.311 96.7158C182.223 98.4735 182.504 100.704 182.504 100.704L172.878 115.401C171.515 117.555 168.793 118.472 166.453 117.602L121.08 99.3614C122.108 98.7478 123.132 98.127 124.149 97.4954H124.152Z" fill="url(#paint0_linear_29_4353)"/>
<path d="M90.6197 17.9701C89.7616 18.1723 89.9671 19.4463 90.8432 19.3669L90.9514 19.3561C98.6451 18.3419 132.856 8.93629 142.623 6.72385C154.689 3.99529 159.878 16.4579 164.943 46.6922C165.105 47.6522 166.555 47.4934 166.58 46.519C166.955 32.2482 164.564 10.5027 155.367 2.42529C154.08 1.34974 152.371 0.386085 150.403 0.0865212C147.569 -0.187778 144.674 0.230889 141.865 0.5485C131.41 2.04993 121.632 5.54725 111.941 9.45963C104.799 12.2748 97.9817 15.6855 90.681 17.9557L90.6161 17.9701H90.6197Z" fill="url(#paint1_linear_29_4353)"/>
<path d="M86.1086 83.2861C98.4892 83.6398 110.827 80.9293 122.291 76.3961C122.933 76.1435 122.645 75.1762 121.967 75.3098C110.279 77.6413 91.2786 84.6648 71.3882 73.3969C60.2694 67.0988 66.4525 34.6268 78.6853 12.5673C83.0117 4.76785 104.561 3.22311 110.329 1.47986C110.964 1.28857 110.834 0.346568 110.17 0.335741C104.229 0.227465 80.5024 -0.414974 73.8794 9.12416C68.147 17.3856 53.7835 43.9855 58.7876 67.384C61.3474 79.3629 76.4861 83.0551 86.105 83.2861H86.1086Z" fill="url(#paint2_linear_29_4353)"/>
<path d="M173.902 73.1587C171.454 73.1587 169.46 74.7684 169.46 76.7462C169.46 78.7241 171.454 80.3338 173.902 80.3338C176.35 80.3338 178.343 78.7241 178.343 76.7462C178.343 74.7684 176.35 73.1587 173.902 73.1587ZM173.902 78.6555C172.402 78.6555 171.136 77.7821 171.136 76.7462C171.136 75.7104 172.402 74.837 173.902 74.837C175.401 74.837 176.667 75.7104 176.667 76.7462C176.667 77.7821 175.401 78.6555 173.902 78.6555Z" fill="url(#paint3_linear_29_4353)"/>
<path d="M165.44 105.317C165.592 105.317 165.718 105.198 165.722 105.042C165.725 104.887 165.603 104.757 165.448 104.75C165.184 104.743 164.925 104.707 164.669 104.645C164.517 104.609 164.366 104.703 164.33 104.855C164.294 105.006 164.388 105.158 164.539 105.194C164.831 105.266 165.13 105.306 165.433 105.313H165.44V105.317Z" fill="url(#paint4_linear_29_4353)"/>
<path d="M176.533 92.9007C176.62 92.9007 176.707 92.861 176.764 92.7816L177.255 92.0958C177.345 91.9695 177.316 91.7926 177.19 91.7024C177.063 91.6122 176.887 91.6411 176.797 91.7674L176.306 92.4531C176.216 92.5795 176.245 92.7563 176.371 92.8465C176.422 92.8826 176.479 92.9007 176.533 92.9007Z" fill="url(#paint5_linear_29_4353)"/>
<path d="M144.576 96.6834L143.794 96.373C143.65 96.3152 143.484 96.3874 143.426 96.5318C143.368 96.6761 143.441 96.8422 143.585 96.8999L144.367 97.2103C144.403 97.2247 144.436 97.232 144.472 97.232C144.583 97.232 144.688 97.1634 144.735 97.0551C144.793 96.9107 144.72 96.7447 144.576 96.687V96.6834Z" fill="url(#paint6_linear_29_4353)"/>
<path d="M150.85 99.1811L150.067 98.8671C149.923 98.8094 149.757 98.8815 149.7 99.0259C149.642 99.1703 149.714 99.3363 149.858 99.3941L150.641 99.7081C150.677 99.7225 150.709 99.7297 150.745 99.7297C150.857 99.7297 150.961 99.6611 151.008 99.5528C151.066 99.4085 150.994 99.2425 150.85 99.1847V99.1811Z" fill="url(#paint7_linear_29_4353)"/>
<path d="M142.488 95.8494L141.706 95.539C141.562 95.4812 141.396 95.5534 141.338 95.6978C141.281 95.8422 141.353 96.0082 141.497 96.0659L142.279 96.3763C142.315 96.3908 142.348 96.398 142.384 96.398C142.496 96.398 142.6 96.3294 142.647 96.2211C142.705 96.0768 142.633 95.9107 142.488 95.853V95.8494Z" fill="url(#paint8_linear_29_4353)"/>
<path d="M168.674 103.887C168.754 103.887 168.833 103.855 168.887 103.79C168.97 103.693 169.053 103.588 169.129 103.48L169.406 103.093C169.496 102.967 169.468 102.79 169.341 102.7C169.215 102.61 169.039 102.639 168.948 102.765L168.671 103.151C168.602 103.245 168.534 103.335 168.458 103.422C168.357 103.541 168.372 103.718 168.487 103.819C168.541 103.866 168.606 103.887 168.671 103.887H168.674Z" fill="url(#paint9_linear_29_4353)"/>
<path d="M175.229 94.7342C175.315 94.7342 175.402 94.6945 175.46 94.6151L175.95 93.9293C176.04 93.803 176.011 93.6261 175.885 93.5359C175.759 93.4457 175.582 93.4745 175.492 93.6009L175.002 94.2866C174.912 94.4129 174.94 94.5898 175.067 94.68C175.117 94.7161 175.175 94.7342 175.229 94.7342Z" fill="url(#paint10_linear_29_4353)"/>
<path d="M169.997 102.065C170.084 102.065 170.17 102.025 170.228 101.946L170.718 101.26C170.809 101.134 170.78 100.957 170.654 100.866C170.527 100.776 170.351 100.805 170.261 100.931L169.77 101.617C169.68 101.744 169.709 101.92 169.835 102.011C169.886 102.047 169.943 102.065 169.997 102.065Z" fill="url(#paint11_linear_29_4353)"/>
<path d="M173.92 96.5677C174.007 96.5677 174.093 96.528 174.151 96.4486L174.641 95.7628C174.731 95.6365 174.703 95.4596 174.576 95.3694C174.45 95.2792 174.274 95.3081 174.183 95.4344L173.693 96.1201C173.603 96.2464 173.632 96.4233 173.758 96.5135C173.808 96.5496 173.866 96.5677 173.92 96.5677Z" fill="url(#paint12_linear_29_4353)"/>
<path d="M172.611 98.3977C172.697 98.3977 172.784 98.358 172.841 98.2786L173.332 97.5929C173.422 97.4666 173.393 97.2897 173.267 97.1995C173.141 97.1093 172.964 97.1381 172.874 97.2644L172.384 97.9502C172.293 98.0765 172.322 98.2534 172.448 98.3436C172.499 98.3797 172.557 98.3977 172.611 98.3977Z" fill="url(#paint13_linear_29_4353)"/>
<path d="M171.302 100.231C171.389 100.231 171.475 100.192 171.533 100.112L172.023 99.4264C172.113 99.3001 172.084 99.1232 171.958 99.033C171.832 98.9427 171.655 98.9716 171.565 99.0979L171.075 99.7837C170.985 99.91 171.014 100.087 171.14 100.177C171.19 100.213 171.248 100.231 171.302 100.231Z" fill="url(#paint14_linear_29_4353)"/>
<path d="M166.824 105.118C166.853 105.118 166.882 105.114 166.911 105.103C167.196 105.01 167.473 104.891 167.733 104.739C167.866 104.663 167.917 104.49 167.837 104.353C167.762 104.216 167.589 104.169 167.452 104.248C167.224 104.378 166.983 104.483 166.734 104.566C166.586 104.613 166.503 104.771 166.554 104.919C166.594 105.039 166.702 105.114 166.821 105.114L166.824 105.118Z" fill="url(#paint15_linear_29_4353)"/>
<path d="M163.393 104.176L162.61 103.862C162.466 103.804 162.3 103.877 162.243 104.021C162.185 104.165 162.257 104.331 162.401 104.389L163.184 104.703C163.22 104.718 163.252 104.725 163.288 104.725C163.4 104.725 163.504 104.656 163.551 104.548C163.609 104.404 163.537 104.238 163.393 104.18V104.176Z" fill="url(#paint16_linear_29_4353)"/>
<path d="M161.301 103.346L160.519 103.036C160.374 102.978 160.208 103.05 160.151 103.194C160.093 103.339 160.165 103.505 160.309 103.563L161.092 103.873C161.128 103.887 161.16 103.895 161.196 103.895C161.308 103.895 161.413 103.826 161.459 103.718C161.517 103.573 161.445 103.407 161.301 103.35V103.346Z" fill="url(#paint17_linear_29_4353)"/>
<path d="M157.119 101.678L156.337 101.368C156.193 101.31 156.027 101.383 155.969 101.527C155.911 101.671 155.984 101.837 156.128 101.895L156.91 102.205C156.946 102.22 156.979 102.227 157.015 102.227C157.126 102.227 157.231 102.159 157.278 102.05C157.336 101.906 157.263 101.74 157.119 101.682V101.678Z" fill="url(#paint18_linear_29_4353)"/>
<path d="M159.21 102.512L158.428 102.202C158.283 102.144 158.118 102.216 158.06 102.36C158.002 102.505 158.074 102.671 158.219 102.729L159.001 103.039C159.037 103.053 159.069 103.061 159.105 103.061C159.217 103.061 159.322 102.992 159.369 102.884C159.426 102.739 159.354 102.573 159.21 102.516V102.512Z" fill="url(#paint19_linear_29_4353)"/>
<path d="M152.941 100.015L152.158 99.7006C152.014 99.6429 151.848 99.715 151.79 99.8594C151.733 100.004 151.805 100.17 151.949 100.228L152.731 100.542C152.767 100.556 152.8 100.563 152.836 100.563C152.948 100.563 153.052 100.495 153.099 100.386C153.157 100.242 153.085 100.076 152.941 100.018V100.015Z" fill="url(#paint20_linear_29_4353)"/>
<path d="M155.028 100.845L154.246 100.531C154.102 100.473 153.936 100.545 153.878 100.689C153.821 100.834 153.893 101 154.037 101.058L154.819 101.372C154.855 101.386 154.888 101.393 154.924 101.393C155.036 101.393 155.14 101.325 155.187 101.216C155.245 101.072 155.173 100.906 155.028 100.848V100.845Z" fill="url(#paint21_linear_29_4353)"/>
<path d="M134.128 92.5185L133.346 92.2045C133.201 92.1468 133.036 92.2189 132.978 92.3633C132.92 92.5077 132.992 92.6737 133.137 92.7314L133.919 93.0454C133.955 93.0599 133.987 93.0671 134.023 93.0671C134.135 93.0671 134.24 92.9985 134.287 92.8903C134.344 92.7459 134.272 92.5799 134.128 92.5221V92.5185Z" fill="url(#paint22_linear_29_4353)"/>
<path d="M146.667 97.5169L145.885 97.2065C145.741 97.1487 145.575 97.2209 145.517 97.3653C145.459 97.5096 145.531 97.6757 145.676 97.7334L146.458 98.0438C146.494 98.0582 146.526 98.0655 146.563 98.0655C146.674 98.0655 146.779 97.9969 146.826 97.8886C146.883 97.7442 146.811 97.5782 146.667 97.5205V97.5169Z" fill="url(#paint23_linear_29_4353)"/>
<path d="M138.307 94.1855L137.524 93.8715C137.38 93.8138 137.214 93.8859 137.157 94.0303C137.099 94.1747 137.171 94.3407 137.315 94.3984L138.098 94.7124C138.134 94.7269 138.166 94.7341 138.202 94.7341C138.314 94.7341 138.418 94.6655 138.465 94.5572C138.523 94.4129 138.451 94.2469 138.307 94.1891V94.1855Z" fill="url(#paint24_linear_29_4353)"/>
<path d="M136.216 93.352L135.434 93.038C135.289 92.9803 135.123 93.0524 135.066 93.1968C135.008 93.3412 135.08 93.5072 135.224 93.5649L136.007 93.8789C136.043 93.8934 136.075 93.9006 136.111 93.9006C136.223 93.9006 136.328 93.832 136.375 93.7237C136.432 93.5794 136.36 93.4134 136.216 93.3556V93.352Z" fill="url(#paint25_linear_29_4353)"/>
<path d="M148.758 98.3471L147.976 98.0331C147.831 97.9754 147.665 98.0476 147.608 98.1919C147.55 98.3363 147.622 98.5023 147.766 98.5601L148.549 98.8741C148.585 98.8885 148.617 98.8957 148.653 98.8957C148.765 98.8957 148.87 98.8271 148.917 98.7189C148.974 98.5745 148.902 98.4085 148.758 98.3507V98.3471Z" fill="url(#paint26_linear_29_4353)"/>
<path d="M140.398 95.0161L139.615 94.7021C139.471 94.6443 139.305 94.7165 139.247 94.8609C139.19 95.0052 139.262 95.1713 139.406 95.229L140.188 95.543C140.224 95.5574 140.257 95.5647 140.293 95.5647C140.405 95.5647 140.509 95.4961 140.556 95.3878C140.614 95.2434 140.542 95.0774 140.398 95.0197V95.0161Z" fill="url(#paint27_linear_29_4353)"/>
<path d="M186.791 76.1757C186.834 76.201 186.885 76.2154 186.932 76.2154C187.029 76.2154 187.123 76.1649 187.177 76.0746L187.39 75.7101C187.469 75.5766 187.422 75.4033 187.289 75.3239C187.155 75.2445 186.982 75.2914 186.903 75.425L186.69 75.7895C186.611 75.9231 186.658 76.0963 186.791 76.1757Z" fill="url(#paint28_linear_29_4353)"/>
<path d="M189.75 69.376C189.75 69.4121 189.75 69.4482 189.75 69.4806C189.75 69.7152 189.729 69.9498 189.686 70.1772C189.657 70.3288 189.758 70.4768 189.913 70.5057C189.931 70.5057 189.949 70.5093 189.963 70.5093C190.097 70.5093 190.216 70.4154 190.241 70.2783C190.291 70.0184 190.313 69.7477 190.313 69.4806C190.313 69.4409 190.313 69.3976 190.313 69.3579C190.309 69.2027 190.183 69.0728 190.024 69.0836C189.869 69.0872 189.747 69.2172 189.75 69.3724V69.376Z" fill="url(#paint29_linear_29_4353)"/>
<path d="M181.087 63.3885L181.888 63.7133C181.924 63.7278 181.96 63.735 181.992 63.735C182.104 63.735 182.209 63.67 182.252 63.5581C182.309 63.4138 182.241 63.2478 182.097 63.19L181.296 62.8652C181.152 62.8074 180.986 62.876 180.929 63.0204C180.871 63.1647 180.939 63.3308 181.084 63.3885H181.087Z" fill="url(#paint30_linear_29_4353)"/>
<path d="M188.442 73.3244C188.309 73.245 188.136 73.2919 188.056 73.4255L187.624 74.1726C187.544 74.3061 187.591 74.4794 187.725 74.5588C187.768 74.584 187.818 74.5985 187.865 74.5985C187.963 74.5985 188.056 74.5479 188.11 74.4577L188.543 73.7106C188.622 73.5771 188.575 73.4038 188.442 73.3244Z" fill="url(#paint31_linear_29_4353)"/>
<path d="M183.225 64.2547L184.025 64.5795C184.061 64.594 184.097 64.6012 184.13 64.6012C184.242 64.6012 184.346 64.5362 184.389 64.4244C184.447 64.28 184.379 64.114 184.234 64.0562L183.434 63.7314C183.29 63.6736 183.124 63.7422 183.066 63.8866C183.009 64.0309 183.077 64.197 183.221 64.2547H183.225Z" fill="url(#paint32_linear_29_4353)"/>
<path d="M176.815 61.6522L177.615 61.977C177.651 61.9914 177.687 61.9987 177.72 61.9987C177.831 61.9987 177.936 61.9337 177.979 61.8218C178.037 61.6774 177.969 61.5114 177.824 61.4537L177.024 61.1288C176.88 61.0711 176.714 61.1397 176.656 61.284C176.598 61.4284 176.667 61.5944 176.811 61.6522H176.815Z" fill="url(#paint33_linear_29_4353)"/>
<path d="M178.952 62.5223L179.753 62.8471C179.789 62.8616 179.825 62.8688 179.857 62.8688C179.969 62.8688 180.074 62.8038 180.117 62.6919C180.175 62.5476 180.106 62.3815 179.962 62.3238L179.162 61.999C179.017 61.9412 178.852 62.0098 178.794 62.1542C178.736 62.2985 178.805 62.4645 178.949 62.5223H178.952Z" fill="url(#paint34_linear_29_4353)"/>
<path d="M189.48 68.0659C189.523 68.1778 189.631 68.2427 189.743 68.2427C189.779 68.2427 189.812 68.2355 189.848 68.2211C189.992 68.1633 190.064 68.0009 190.006 67.8565C189.895 67.5714 189.75 67.2935 189.577 67.0373C189.491 66.9073 189.314 66.8712 189.188 66.9579C189.058 67.0445 189.022 67.2177 189.109 67.3477C189.257 67.5714 189.383 67.8096 189.48 68.0587V68.0659Z" fill="url(#paint35_linear_29_4353)"/>
<path d="M185.363 65.1209L186.163 65.4458C186.199 65.4602 186.235 65.4674 186.268 65.4674C186.379 65.4674 186.484 65.4024 186.527 65.2906C186.585 65.1462 186.516 64.9802 186.372 64.9224L185.572 64.5976C185.428 64.5398 185.262 64.6084 185.204 64.7528C185.146 64.8972 185.215 65.0632 185.359 65.1209H185.363Z" fill="url(#paint36_linear_29_4353)"/>
<path d="M188.882 72.5632C188.925 72.5884 188.976 72.6029 189.022 72.6029C189.12 72.6029 189.214 72.5523 189.268 72.4621L189.7 71.715C189.78 71.5814 189.733 71.4082 189.599 71.3288C189.466 71.2494 189.293 71.2963 189.214 71.4299L188.781 72.177C188.702 72.3105 188.748 72.4838 188.882 72.5632Z" fill="url(#paint37_linear_29_4353)"/>
<path d="M187.49 65.9871C187.735 66.0954 187.97 66.2326 188.186 66.3878C188.236 66.4238 188.294 66.4419 188.352 66.4419C188.438 66.4419 188.525 66.4022 188.579 66.3264C188.669 66.2001 188.644 66.0232 188.518 65.933C188.269 65.7525 188.002 65.5973 187.721 65.471C187.577 65.4061 187.411 65.471 187.349 65.6154C187.285 65.7561 187.349 65.9258 187.494 65.9871H187.49Z" fill="url(#paint38_linear_29_4353)"/>
<path d="M4.40168 181.124C3.29485 181.124 3.08935 181.738 2.35387 181.738C1.61838 181.738 1.12446 181.247 0.836034 179.522C0.54761 177.88 0.219528 176.035 0.0176309 173.657C-0.065291 172.671 0.100553 172.015 0.796376 172.015C1.45254 172.015 1.85994 172.466 2.47645 173.574C3.66619 176.118 5.95917 179.399 10.711 179.439C14.1937 179.439 15.7512 177.345 15.8341 175.09C15.9567 171.932 12.3514 170.495 8.9083 168.813C4.56391 166.64 0.551215 164.998 0.551215 160.075C0.551215 155.932 4.2791 152.323 10.4658 152.323C12.3514 152.323 13.9485 152.814 15.0157 152.814C15.9999 152.814 16.2054 152.323 16.9409 152.323C17.7197 152.323 18.0477 152.734 18.4587 154.456C18.7472 155.809 19.0752 157.329 19.3204 159.256C19.443 160.198 19.2375 160.855 18.502 160.855C17.8855 160.855 17.3952 160.364 16.739 159.335C15.387 157.285 13.1337 154.535 9.73392 154.535C6.70186 154.535 5.10471 156.217 5.10471 158.513C5.10471 161.385 7.80868 162.573 11.8646 164.623C16.4145 166.879 20.6327 168.438 20.7553 173.195C20.8779 178.526 15.7584 181.727 10.2675 181.767C7.19578 181.767 5.55537 181.11 4.40889 181.11L4.40168 181.124Z" fill="#E9E2D8"/>
<path d="M36.73 177.966C36.1171 179.565 34.1486 181.781 30.8714 181.781C27.349 181.781 25.5031 179.609 25.5031 175.628V173.946C25.5031 169.719 25.5427 166.233 25.6689 163.898H24.3169C23.3759 163.898 23.0479 163.609 23.0479 162.995C23.0479 162.584 23.1704 162.256 23.5382 161.848C25.056 160.206 26.8154 158.773 28.3332 157.748C29.0723 157.257 29.3571 157.257 29.6456 157.257C30.1791 157.257 30.4243 157.708 30.3846 158.325C30.3017 159.31 30.2621 160.335 30.2224 161.689H34.318C35.0138 161.689 35.6304 161.812 35.4248 162.92C35.2193 164.067 34.5235 164.19 33.7448 164.15L30.1791 164.028C30.1395 166.283 30.1395 169.359 30.0566 173.953C30.0169 177.151 30.5469 178.465 32.5983 178.465C33.6655 178.465 34.8516 177.851 35.6304 177.194C36.3262 176.62 37.022 177.194 36.7372 177.974L36.73 177.966Z" fill="#E9E2D8"/>
<path d="M38.1618 172.264C38.1618 166.11 42.791 161.27 49.2229 161.27C54.7534 161.27 58.6868 165.496 58.6868 170.99C58.6868 177.1 54.1802 181.778 47.788 181.778C42.2971 181.778 38.1582 178.085 38.1582 172.26L38.1618 172.264ZM54.1441 173.415C54.1441 168.492 51.4005 163.652 47.5897 163.652C44.3125 163.652 42.755 166.565 42.755 169.968C42.755 175.054 45.4589 179.442 49.3094 179.442C52.464 179.442 54.1441 176.818 54.1441 173.411V173.415Z" fill="#E9E2D8"/>
<path d="M61.5566 172.184C61.5566 165.951 66.2291 161.313 72.0877 161.313C77.1676 161.313 80.1996 164.638 80.1996 168.001C80.1996 169.683 79.1757 170.546 77.9067 170.546C76.4321 170.546 75.8589 169.477 75.4875 168.207C74.7484 165.54 73.4397 163.613 70.898 163.573C67.8263 163.573 66.0236 166.157 66.0236 169.727C66.0236 174.935 68.9331 178.421 73.2775 178.421C75.8985 178.421 77.5786 177.151 79.0135 175.754C79.7923 175.018 80.6936 175.508 80.2826 176.617C79.4209 178.789 76.6376 181.785 71.2693 181.785C65.2449 181.785 61.5602 177.396 61.5602 172.188L61.5566 172.184Z" fill="#E9E2D8"/>
<path d="M97.4477 166.973L101.915 177.187C102.856 179.28 104.702 179.32 104.702 180.55C104.702 181.207 104.168 181.37 102.899 181.37H97.9416C96.7122 181.37 96.1786 181.164 96.1786 180.55C96.1786 179.32 98.1471 179.359 97.3647 177.678L94.1704 170.499L89.1735 175.83C89.1735 179.684 91.0987 178.865 91.0987 180.464C91.0987 181.2 90.4858 181.366 89.4187 181.366H84.2559C83.232 181.366 82.5361 181.16 82.5361 180.424C82.5361 178.865 84.5443 179.684 84.5443 175.83L84.5046 158.971C84.5046 155.73 82.5361 156.264 82.5361 154.994C82.5361 154.503 82.7813 154.254 83.7655 153.803C85.5285 152.983 87.6989 152.283 88.3154 152.243C88.9283 152.204 89.2168 152.529 89.2168 153.308L89.1771 158.967V172.708L96.2651 165.161C97.6568 163.641 95.4035 163.519 95.4035 162.494C95.4035 161.959 95.7712 161.674 96.7951 161.674H101.262C102.203 161.674 102.697 161.92 102.697 162.494C102.697 163.562 101.057 163.067 98.9258 165.406L97.4513 166.965L97.4477 166.973Z" fill="#E9E2D8"/>
<path d="M142.639 176.901C143.13 179.446 144.81 179.117 144.81 180.471C144.81 181.207 144.153 181.373 143.09 181.373H138.05C136.983 181.373 136.33 181.167 136.33 180.431C136.33 179.161 138.461 179.363 137.97 176.699L136.741 170.055C136.207 167.142 135.717 164.273 132.48 164.313C130.187 164.352 127.807 166.323 127.684 170.466L127.724 175.84C127.724 179.695 129.649 178.876 129.649 180.475C129.649 181.211 129.033 181.377 127.969 181.377H122.846C121.779 181.377 121.083 181.171 121.083 180.435C121.083 178.876 123.091 179.695 123.091 175.84V170.304C123.091 166.94 122.313 164.15 119.075 164.233C116.533 164.233 114.035 166.489 114.035 170.795V175.84C114.035 179.695 115.96 178.876 115.96 180.475C115.96 181.211 115.347 181.377 114.28 181.377H109.117C108.093 181.377 107.397 181.171 107.397 180.435C107.397 178.876 109.406 179.695 109.406 175.84V167.803C109.406 166.532 109.078 165.63 108.137 165.013C107.726 164.728 107.397 164.439 107.397 163.944C107.397 163.41 107.643 163.125 108.627 162.674C110.101 162.017 112.07 161.403 112.683 161.36C113.256 161.36 113.544 161.645 113.544 162.428L113.505 165.587C115.145 162.714 117.766 161.281 120.593 161.281C123.913 161.281 126.084 162.8 127.068 165.63C128.625 162.757 131.247 161.281 134.073 161.281C138.54 161.281 140.22 163.948 141.284 169.813L142.636 176.909L142.639 176.901Z" fill="#E9E2D8"/>
<path d="M167.837 179.114C167.837 180.305 165.912 181.659 164.027 181.659C162.141 181.659 161.323 180.594 160.872 178.54C159.03 180.713 156.2 181.738 153.824 181.738C149.029 181.738 146.119 179.071 146.119 175.584C146.119 171.686 149.602 168.9 155.01 168.9C156.401 168.9 157.386 169.023 158.86 169.311C158.082 166.399 157.386 164.226 154.108 164.226C152.017 164.226 150.42 164.966 148.823 165.868C148.044 166.359 147.266 165.746 147.839 164.8C148.863 163.241 151.895 161.313 155.706 161.313C160.58 161.313 162.22 164.515 163.082 168.001L165.051 176.328C165.462 178.172 166.197 178.544 167.059 178.544C167.509 178.504 167.837 178.667 167.837 179.118V179.114ZM160.216 175.671C160.093 174.852 159.765 173.783 159.354 172.184C159.149 171.199 157.018 170.831 155.706 170.831C152.428 170.831 150.626 172.43 150.665 174.935C150.748 177.436 152.508 179.323 155.378 179.323C157.959 179.323 160.54 177.396 160.212 175.674L160.216 175.671Z" fill="#E9E2D8"/>
<path d="M191.888 176.901C192.378 179.446 194.019 179.117 194.019 180.471C194.019 181.207 193.402 181.373 192.338 181.373H187.298C186.231 181.373 185.535 181.167 185.535 180.431C185.535 179.161 187.706 179.363 187.215 176.699L185.986 170.055C185.452 167.142 184.717 164.273 181.479 164.313C179.06 164.352 176.684 166.529 176.684 170.795V175.84C176.684 179.695 178.609 178.876 178.609 180.475C178.609 181.211 177.997 181.377 176.929 181.377H171.767C170.743 181.377 170.047 181.171 170.047 180.435C170.047 178.876 172.055 179.695 172.055 175.84V167.803C172.055 166.532 171.727 165.63 170.786 165.013C170.375 164.728 170.047 164.439 170.047 163.944C170.047 163.41 170.292 163.125 171.276 162.674C172.751 162.017 174.719 161.403 175.332 161.36C175.905 161.36 176.194 161.645 176.194 162.428L176.154 165.464C177.751 162.674 180.455 161.281 183.159 161.281C187.543 161.281 189.469 163.948 190.536 169.813L191.888 176.909V176.901Z" fill="#E9E2D8"/>
<path d="M195.739 162.667C195.739 162.05 197.458 160.902 197.458 159.426C197.458 157.949 195.288 157.704 195.288 155.448C195.288 153.727 196.64 152.619 197.992 152.619C199.632 152.619 200.902 153.644 200.902 156.105C200.902 160.332 197.992 163.241 196.435 163.241C195.984 163.241 195.739 162.995 195.739 162.667Z" fill="#E9E2D8"/>
<path d="M206.349 180.262C205.733 178.619 205.282 177.472 204.874 175.956C204.709 175.22 204.874 174.808 205.325 174.642C205.859 174.397 206.392 174.808 207.128 175.505C210.037 178.54 212.291 179.648 214.584 179.648C216.224 179.648 217.493 178.829 217.493 177.309C217.493 175.71 215.323 174.602 211.88 173.166C208.519 171.773 205.365 170.293 205.365 166.89C205.365 163.035 208.887 161.27 212.002 161.27C214.255 161.27 215.607 161.761 216.754 161.804C217.493 161.844 217.655 161.27 218.272 161.27C218.845 161.27 219.133 161.761 219.707 162.746C220.28 163.811 220.568 164.468 220.896 165.291C221.225 166.153 221.142 166.727 220.691 166.973C219.995 167.341 219.339 166.644 217.987 165.619C216.39 164.471 214.342 163.363 212.496 163.363C210.528 163.363 209.504 164.388 209.504 165.579C209.504 167.178 211.306 168.081 214.872 169.557C219.051 171.278 222 172.881 222 175.916C222 179.197 218.845 181.781 214.418 181.781C211.469 181.781 210.156 180.962 209.295 180.962C208.682 180.962 208.476 181.781 207.697 181.781C207.081 181.781 206.879 181.492 206.345 180.262H206.349Z" fill="#E9E2D8"/>
<path d="M90.7916 201.877C91.9381 201.877 92.6772 202.083 92.6772 202.779C92.6772 204.216 90.5068 203.599 89.3567 206.923L81.6955 229.484C81.5296 230.018 81.0789 230.469 79.727 230.715C78.2921 230.96 77.6359 230.754 77.434 230.097L71.1247 211.802L65.1435 229.48C64.938 230.054 64.5306 230.466 63.175 230.711C61.7834 230.917 61.1272 230.751 60.9217 230.094L52.8098 206.959C51.6633 203.718 49.8174 204.212 49.8174 202.855C49.8174 202.036 50.4736 201.87 51.7426 201.87H57.3957C58.5026 201.87 59.1587 202.076 59.1587 202.812C59.1587 204.205 56.8657 203.88 57.9293 206.995L64.116 225.413L69.935 208.392L69.4843 206.999C68.3775 203.718 66.5352 204.209 66.5352 202.855C66.5352 202.036 67.1913 201.87 68.4604 201.87H74.1135C75.2203 201.87 75.9162 202.076 75.9162 202.812C75.9162 204.205 73.5799 203.88 74.6038 206.995L80.6679 225.29L86.7321 206.955C87.8389 203.631 85.5856 204.209 85.5856 202.852C85.5856 202.032 86.3211 201.866 87.2656 201.866H90.788L90.7916 201.877Z" fill="#E9E2D8"/>
<path d="M111.194 228.333C111.194 229.524 109.269 230.877 107.383 230.877C105.498 230.877 104.679 229.813 104.228 227.759C102.386 229.932 99.556 230.957 97.1801 230.957C92.3851 230.957 89.4756 228.29 89.4756 224.803C89.4756 220.905 92.9583 218.119 98.3663 218.119C99.7579 218.119 100.742 218.241 102.217 218.53C101.438 215.618 100.742 213.445 97.4649 213.445C95.3739 213.445 93.7767 214.185 92.1796 215.087C91.4008 215.578 90.6221 214.964 91.1953 214.019C92.2192 212.46 95.2513 210.532 99.0621 210.532C103.936 210.532 105.577 213.734 106.439 217.22L108.407 225.547C108.818 227.391 109.554 227.763 110.415 227.763C110.866 227.723 111.194 227.885 111.194 228.336V228.333ZM103.572 224.89C103.45 224.07 103.122 223.002 102.711 221.403C102.505 220.418 100.374 220.05 99.0657 220.05C95.7885 220.05 93.9858 221.649 94.0255 224.153C94.1084 226.655 95.8678 228.542 98.7376 228.542C101.319 228.542 103.9 226.615 103.572 224.893V224.89Z" fill="#E9E2D8"/>
<path d="M115.168 208.193C115.168 204.952 113.199 205.486 113.199 204.216C113.199 203.725 113.444 203.476 114.429 203.025C116.192 202.206 118.362 201.505 118.979 201.466C119.591 201.426 119.88 201.751 119.88 202.53L119.84 208.19V225.048C119.84 228.903 121.765 228.084 121.765 229.682C121.765 230.419 121.153 230.585 120.085 230.585H114.923C113.899 230.585 113.203 230.379 113.203 229.643C113.203 228.084 115.211 228.903 115.211 225.048L115.171 208.19L115.168 208.193Z" fill="#E9E2D8"/>
<path d="M127.09 208.193C127.09 204.952 125.121 205.486 125.121 204.216C125.121 203.725 125.366 203.476 126.351 203.025C128.113 202.206 130.284 201.505 130.9 201.466C131.513 201.426 131.802 201.751 131.802 202.53L131.762 208.19V225.048C131.762 228.903 133.687 228.084 133.687 229.682C133.687 230.419 133.074 230.585 132.007 230.585H126.844C125.821 230.585 125.125 230.379 125.125 229.643C125.125 228.084 127.133 228.903 127.133 225.048L127.093 208.19L127.09 208.193Z" fill="#E9E2D8"/>
<path d="M155.241 225.709C154.422 227.842 151.185 231 145.856 231C140.08 231 136.187 226.896 136.187 221.403C136.187 215.17 140.816 210.492 146.674 210.492C151.386 210.492 154.296 213.282 154.952 216.769C155.075 217.465 154.869 218.082 154.011 218.411C149.71 220.215 145.899 221.569 141.349 223.168C142.168 225.301 144.259 227.64 147.781 227.64C150.402 227.64 152.533 226.326 154.008 224.81C154.786 224.03 155.648 224.604 155.237 225.712L155.241 225.709ZM140.571 218.573C140.571 219.558 140.653 220.461 140.859 221.118C143.729 220.176 146.512 219.23 149.094 218.165C149.75 217.92 150.161 217.552 149.955 216.646C149.465 214.184 147.291 212.586 145.16 212.791C142.128 212.957 140.571 215.787 140.571 218.573Z" fill="#E9E2D8"/>
<path d="M170.848 227.185C170.235 228.784 168.266 231 164.989 231C161.467 231 159.621 228.827 159.621 224.846V223.165C159.621 218.938 159.661 215.452 159.783 213.117H158.431C157.49 213.117 157.162 212.828 157.162 212.214C157.162 211.803 157.285 211.474 157.652 211.066C159.167 209.424 160.93 207.991 162.447 206.966C163.187 206.476 163.471 206.476 163.76 206.476C164.293 206.476 164.539 206.927 164.499 207.544C164.416 208.529 164.376 209.554 164.337 210.908H168.432C169.128 210.908 169.745 211.03 169.539 212.138C169.334 213.286 168.638 213.409 167.859 213.369L164.293 213.246C164.254 215.502 164.254 218.577 164.171 223.172C164.131 226.37 164.661 227.683 166.713 227.683C167.78 227.683 168.966 227.07 169.745 226.413C170.44 225.839 171.136 226.413 170.851 227.192L170.848 227.185Z" fill="#E9E2D8"/>
</g>
<defs>
<linearGradient id="paint0_linear_29_4353" x1="90" y1="21.0334" x2="115.302" y2="133.308" gradientUnits="userSpaceOnUse">
<stop stop-color="#FF9500"/>
<stop offset="1" stop-color="#FF7900"/>
</linearGradient>
<linearGradient id="paint1_linear_29_4353" x1="119.746" y1="-5.63529" x2="137.226" y2="50.9621" gradientUnits="userSpaceOnUse">
<stop stop-color="#FF9500"/>
<stop offset="1" stop-color="#FF7900"/>
</linearGradient>
<linearGradient id="paint2_linear_29_4353" x1="82.9079" y1="-9.59317" x2="132.243" y2="67.6255" gradientUnits="userSpaceOnUse">
<stop stop-color="#FF9500"/>
<stop offset="1" stop-color="#FF7900"/>
</linearGradient>
<linearGradient id="paint3_linear_29_4353" x1="172.904" y1="72.3049" x2="176.164" y2="80.3867" gradientUnits="userSpaceOnUse">
<stop stop-color="#FF9500"/>
<stop offset="1" stop-color="#FF7900"/>
</linearGradient>
<linearGradient id="paint4_linear_29_4353" x1="164.865" y1="104.557" x2="165.068" y2="105.397" gradientUnits="userSpaceOnUse">
<stop stop-color="#FF9500"/>
<stop offset="1" stop-color="#FF7900"/>
</linearGradient>
<linearGradient id="paint5_linear_29_4353" x1="176.662" y1="91.5011" x2="177.381" y2="92.7128" gradientUnits="userSpaceOnUse">
<stop stop-color="#FF9500"/>
<stop offset="1" stop-color="#FF7900"/>
</linearGradient>
<linearGradient id="paint6_linear_29_4353" x1="143.929" y1="96.2484" x2="144.268" y2="97.2892" gradientUnits="userSpaceOnUse">
<stop stop-color="#FF9500"/>
<stop offset="1" stop-color="#FF7900"/>
</linearGradient>
<linearGradient id="paint7_linear_29_4353" x1="150.202" y1="98.7422" x2="150.544" y2="99.7864" gradientUnits="userSpaceOnUse">
<stop stop-color="#FF9500"/>
<stop offset="1" stop-color="#FF7900"/>
</linearGradient>
<linearGradient id="paint8_linear_29_4353" x1="141.841" y1="95.4145" x2="142.18" y2="96.4553" gradientUnits="userSpaceOnUse">
<stop stop-color="#FF9500"/>
<stop offset="1" stop-color="#FF7900"/>
</linearGradient>
<linearGradient id="paint9_linear_29_4353" x1="168.805" y1="102.5" x2="169.509" y2="103.715" gradientUnits="userSpaceOnUse">
<stop stop-color="#FF9500"/>
<stop offset="1" stop-color="#FF7900"/>
</linearGradient>
<linearGradient id="paint10_linear_29_4353" x1="175.357" y1="93.3346" x2="176.076" y2="94.5463" gradientUnits="userSpaceOnUse">
<stop stop-color="#FF9500"/>
<stop offset="1" stop-color="#FF7900"/>
</linearGradient>
<linearGradient id="paint11_linear_29_4353" x1="170.126" y1="100.665" x2="170.845" y2="101.877" gradientUnits="userSpaceOnUse">
<stop stop-color="#FF9500"/>
<stop offset="1" stop-color="#FF7900"/>
</linearGradient>
<linearGradient id="paint12_linear_29_4353" x1="174.049" y1="95.1681" x2="174.768" y2="96.3798" gradientUnits="userSpaceOnUse">
<stop stop-color="#FF9500"/>
<stop offset="1" stop-color="#FF7900"/>
</linearGradient>
<linearGradient id="paint13_linear_29_4353" x1="172.739" y1="96.9981" x2="173.458" y2="98.2099" gradientUnits="userSpaceOnUse">
<stop stop-color="#FF9500"/>
<stop offset="1" stop-color="#FF7900"/>
</linearGradient>
<linearGradient id="paint14_linear_29_4353" x1="171.431" y1="98.8316" x2="172.149" y2="100.043" gradientUnits="userSpaceOnUse">
<stop stop-color="#FF9500"/>
<stop offset="1" stop-color="#FF7900"/>
</linearGradient>
<linearGradient id="paint15_linear_29_4353" x1="167.057" y1="104.101" x2="167.419" y2="105.168" gradientUnits="userSpaceOnUse">
<stop stop-color="#FF9500"/>
<stop offset="1" stop-color="#FF7900"/>
</linearGradient>
<linearGradient id="paint16_linear_29_4353" x1="162.745" y1="103.737" x2="163.087" y2="104.782" gradientUnits="userSpaceOnUse">
<stop stop-color="#FF9500"/>
<stop offset="1" stop-color="#FF7900"/>
</linearGradient>
<linearGradient id="paint17_linear_29_4353" x1="160.654" y1="102.911" x2="160.992" y2="103.952" gradientUnits="userSpaceOnUse">
<stop stop-color="#FF9500"/>
<stop offset="1" stop-color="#FF7900"/>
</linearGradient>
<linearGradient id="paint18_linear_29_4353" x1="156.472" y1="101.244" x2="156.811" y2="102.284" gradientUnits="userSpaceOnUse">
<stop stop-color="#FF9500"/>
<stop offset="1" stop-color="#FF7900"/>
</linearGradient>
<linearGradient id="paint19_linear_29_4353" x1="158.563" y1="102.077" x2="158.902" y2="103.118" gradientUnits="userSpaceOnUse">
<stop stop-color="#FF9500"/>
<stop offset="1" stop-color="#FF7900"/>
</linearGradient>
<linearGradient id="paint20_linear_29_4353" x1="152.293" y1="99.5757" x2="152.635" y2="100.62" gradientUnits="userSpaceOnUse">
<stop stop-color="#FF9500"/>
<stop offset="1" stop-color="#FF7900"/>
</linearGradient>
<linearGradient id="paint21_linear_29_4353" x1="154.381" y1="100.406" x2="154.722" y2="101.45" gradientUnits="userSpaceOnUse">
<stop stop-color="#FF9500"/>
<stop offset="1" stop-color="#FF7900"/>
</linearGradient>
<linearGradient id="paint22_linear_29_4353" x1="133.481" y1="92.0796" x2="133.822" y2="93.1238" gradientUnits="userSpaceOnUse">
<stop stop-color="#FF9500"/>
<stop offset="1" stop-color="#FF7900"/>
</linearGradient>
<linearGradient id="paint23_linear_29_4353" x1="146.02" y1="97.0819" x2="146.359" y2="98.1227" gradientUnits="userSpaceOnUse">
<stop stop-color="#FF9500"/>
<stop offset="1" stop-color="#FF7900"/>
</linearGradient>
<linearGradient id="paint24_linear_29_4353" x1="137.66" y1="93.7465" x2="138.001" y2="94.7908" gradientUnits="userSpaceOnUse">
<stop stop-color="#FF9500"/>
<stop offset="1" stop-color="#FF7900"/>
</linearGradient>
<linearGradient id="paint25_linear_29_4353" x1="135.569" y1="92.9131" x2="135.91" y2="93.9573" gradientUnits="userSpaceOnUse">
<stop stop-color="#FF9500"/>
<stop offset="1" stop-color="#FF7900"/>
</linearGradient>
<linearGradient id="paint26_linear_29_4353" x1="148.111" y1="97.9082" x2="148.452" y2="98.9524" gradientUnits="userSpaceOnUse">
<stop stop-color="#FF9500"/>
<stop offset="1" stop-color="#FF7900"/>
</linearGradient>
<linearGradient id="paint27_linear_29_4353" x1="139.75" y1="94.5771" x2="140.092" y2="95.6214" gradientUnits="userSpaceOnUse">
<stop stop-color="#FF9500"/>
<stop offset="1" stop-color="#FF7900"/>
</linearGradient>
<linearGradient id="paint28_linear_29_4353" x1="186.953" y1="75.1745" x2="187.489" y2="76.0718" gradientUnits="userSpaceOnUse">
<stop stop-color="#FF9500"/>
<stop offset="1" stop-color="#FF7900"/>
</linearGradient>
<linearGradient id="paint29_linear_29_4353" x1="189.926" y1="68.9133" x2="190.853" y2="69.7364" gradientUnits="userSpaceOnUse">
<stop stop-color="#FF9500"/>
<stop offset="1" stop-color="#FF7900"/>
</linearGradient>
<linearGradient id="paint30_linear_29_4353" x1="181.437" y1="62.7388" x2="181.781" y2="63.7927" gradientUnits="userSpaceOnUse">
<stop stop-color="#FF9500"/>
<stop offset="1" stop-color="#FF7900"/>
</linearGradient>
<linearGradient id="paint31_linear_29_4353" x1="187.971" y1="73.1294" x2="188.761" y2="74.3295" gradientUnits="userSpaceOnUse">
<stop stop-color="#FF9500"/>
<stop offset="1" stop-color="#FF7900"/>
</linearGradient>
<linearGradient id="paint32_linear_29_4353" x1="183.575" y1="63.605" x2="183.918" y2="64.6589" gradientUnits="userSpaceOnUse">
<stop stop-color="#FF9500"/>
<stop offset="1" stop-color="#FF7900"/>
</linearGradient>
<linearGradient id="paint33_linear_29_4353" x1="177.165" y1="61.0025" x2="177.508" y2="62.0564" gradientUnits="userSpaceOnUse">
<stop stop-color="#FF9500"/>
<stop offset="1" stop-color="#FF7900"/>
</linearGradient>
<linearGradient id="paint34_linear_29_4353" x1="179.302" y1="61.8726" x2="179.646" y2="62.9265" gradientUnits="userSpaceOnUse">
<stop stop-color="#FF9500"/>
<stop offset="1" stop-color="#FF7900"/>
</linearGradient>
<linearGradient id="paint35_linear_29_4353" x1="189.436" y1="66.7521" x2="190.251" y2="67.9345" gradientUnits="userSpaceOnUse">
<stop stop-color="#FF9500"/>
<stop offset="1" stop-color="#FF7900"/>
</linearGradient>
<linearGradient id="paint36_linear_29_4353" x1="185.712" y1="64.4712" x2="186.056" y2="65.5252" gradientUnits="userSpaceOnUse">
<stop stop-color="#FF9500"/>
<stop offset="1" stop-color="#FF7900"/>
</linearGradient>
<linearGradient id="paint37_linear_29_4353" x1="189.129" y1="71.1338" x2="189.918" y2="72.3339" gradientUnits="userSpaceOnUse">
<stop stop-color="#FF9500"/>
<stop offset="1" stop-color="#FF7900"/>
</linearGradient>
<linearGradient id="paint38_linear_29_4353" x1="187.831" y1="65.3273" x2="188.265" y2="66.467" gradientUnits="userSpaceOnUse">
<stop stop-color="#FF9500"/>
<stop offset="1" stop-color="#FF7900"/>
</linearGradient>
<clipPath id="clip0_29_4353">
<rect width="222" height="231" fill="white"/>
</clipPath>
</defs>
</svg>
